<svg id="Layer_1" data-name="Layer 1" xmlns="http://www.w3.org/2000/svg" viewBox="0 0 14.64 13.36"><defs><style>.cls-1{fill:#fbfbfb;}.cls-2{fill:#fb0707;}</style></defs><title>לב אדום</title><path class="cls-1" d="M6.18,6.46L6.24,6.72c0.14,0.69.23,1.39,0.34,2.08a10,10,0,0,0,.36,1.59c0.22,0.45.47,0.89,0.72,1.33s0.43,0.79.68,1.16a7.21,7.21,0,0,0,.62.62,7,7,0,0,0,.73.42L10,14l0.31,0.1a9.34,9.34,0,0,0,1.23-.42c0.26-.11.52-0.22,0.79-0.31A2.1,2.1,0,0,1,13,13c0-.2,0-0.39,0-0.59,0-.81.1-1.62,0.16-2.44s0.13-1.51.19-2.27c0-.26,0-0.52,0-0.78l-1.26-.11c-1.6-.17-3.2-0.29-4.8-0.33Z" transform="translate(-2.68 -3.32)"/><path class="cls-2" d="M17.32,7.33a7.33,7.33,0,0,1-.24,1.8,5.49,5.49,0,0,1-1,1.95,12.43,12.43,0,0,1-1.34,1.4c-0.7.65-1.43,1.26-2.15,1.89S10.86,15.88,10,16.66c0,0,0,0-.07,0-1-1-2-1.87-3.09-2.77C6.25,13.34,5.62,12.8,5,12.23A10.83,10.83,0,0,1,3.86,11a5.4,5.4,0,0,1-1-2,6.79,6.79,0,0,1-.17-1,8.3,8.3,0,0,1,0-1,3.7,3.7,0,0,1,2.68-3.5,3.92,3.92,0,0,1,1.3-.15,3.8,3.8,0,0,1,2,.68A4.63,4.63,0,0,1,10,5.41c0,0.05,0,.05.06,0A4.64,4.64,0,0,1,11.33,4,3.76,3.76,0,0,1,13,3.36a3.81,3.81,0,0,1,2.4.42,3.6,3.6,0,0,1,1.75,2.15,3.88,3.88,0,0,1,.17,1.26S17.32,7.28,17.32,7.33Z" transform="translate(-2.68 -3.32)"/></svg>