<svg id="Layer_1" data-name="Layer 1" xmlns="http://www.w3.org/2000/svg" viewBox="0 0 25.78 18.86"><title>תפריט שלושה קווים</title><path d="M15,7.52H2.28c-0.14,0-.17,0-0.17-0.26q0-2.24,0-4.48c0-.17,0-0.21.14-0.21h25.5c0.11,0,.14,0,0.14.21q0,2.25,0,4.5c0,0.19,0,.24-0.16.24H15Z" transform="translate(-2.11 -2.57)"/><path d="M15,14.47H2.28c-0.14,0-.17-0.05-0.17-0.26q0-2.24,0-4.48c0-.18,0-0.21.14-0.21h25.5c0.11,0,.14,0,0.14.21q0,2.25,0,4.5c0,0.19,0,.24-0.16.24H15Z" transform="translate(-2.11 -2.57)"/><path d="M15,21.42H2.28c-0.14,0-.17-0.05-0.17-0.26q0-2.24,0-4.48c0-.18,0-0.21.14-0.21h25.5c0.11,0,.14,0,0.14.21q0,2.25,0,4.5c0,0.19,0,.24-0.16.24H15Z" transform="translate(-2.11 -2.57)"/></svg>