<svg id="Layer_1" data-name="Layer 1" xmlns="http://www.w3.org/2000/svg" viewBox="0 0 45.71 45.71"><defs><style>.cls-1{fill:#fff;}.cls-2{fill:#fcaf17;}</style></defs><title>חתול</title><path class="cls-1" d="M33.27,44.18a20,20,0,0,0,2.31-.72,16.61,16.61,0,0,0,2.17-1.21l0.09-.09c0.24-.4.46-0.81,0.69-1.21a15.75,15.75,0,0,1,2.38-3.24,8.7,8.7,0,0,1,2.79-1.88c0.16-1.68.29-3.36,0.36-5a68.76,68.76,0,0,0,0-9.62,17.79,17.79,0,0,0-.75-2.92c-0.37-.78-0.77-1.56-1.15-2.33q-0.45-.92-0.87-1.86l-0.4-.15c-0.84-.33-1.68-0.67-2.48-1.07-1.45-.72-2.76-1.67-4.13-2.52a29.06,29.06,0,0,0-3.49-1.85A30.58,30.58,0,0,0,25,6.73a25.57,25.57,0,0,0-4.89.06A37.53,37.53,0,0,0,12.16,9L12,9.08,12.18,9a11.8,11.8,0,0,0-1.8,1.11A11.9,11.9,0,0,1,8,11.35q-0.08.35-.14,0.7a34.18,34.18,0,0,0-.11,3.84c0.06,2.87.25,5.75,0.35,8.62,0.1,3,.27,6.07.63,9.08A39.59,39.59,0,0,1,9.44,39,20.84,20.84,0,0,1,12,40a9.77,9.77,0,0,1,1.58.88A19.29,19.29,0,0,1,16.16,43c0.59,0.58,1.09,1.22,1.67,1.8l0.09,0.05c0.34,0.1.69,0.18,1,.25a54.14,54.14,0,0,0,12.32-.55l-1.74.23A36.07,36.07,0,0,0,33.27,44.18Z" transform="translate(-2.14 -2.14)"/><path class="cls-2" d="M25,47.86A22.86,22.86,0,1,1,47.86,25.07,22.85,22.85,0,0,1,25,47.86Z" transform="translate(-2.14 -2.14)"/><path class="cls-1" d="M30.83,27.85a1.13,1.13,0,0,1-.26-0.1,5.2,5.2,0,0,1-.67-0.33L29.3,27a8.45,8.45,0,0,1-.95-0.89,4.41,4.41,0,0,1-.67-0.91,6.23,6.23,0,0,1-.43-0.81,7.89,7.89,0,0,1-.4-1.16,1.17,1.17,0,0,0-.12-0.49,0,0,0,0,1,0,0c0-.22-0.09-0.42-0.07-0.64a0.38,0.38,0,0,0-.06-0.29,0.32,0.32,0,0,1,0-.17q0-.69,0-1.37a0.3,0.3,0,0,1,0-.23,0.2,0.2,0,0,0,0-.17c0-.32.08-0.63,0.07-0.95a2.5,2.5,0,0,0,.13-0.51c0-.12,0-0.27.08-0.39s0.11-.52.21-0.77,0.12-.29.18-0.43a9.28,9.28,0,0,1,.44-0.88,1.81,1.81,0,0,1,.46-0.57c0.09-.08.17-0.07,0.21,0,0.19,0.43.52,0.77,0.73,1.18a5.61,5.61,0,0,0,.43.66c0.15,0.21.28,0.45,0.43,0.67a3.11,3.11,0,0,1,.38.62,0.27,0.27,0,0,0,.35.08c0.18-.08.39-0.1,0.57-0.18h0c0.15,0,.3-0.06.44-0.06s0.45-.1.68-0.09,0.47,0,.7,0a0.26,0.26,0,0,1,.19,0,0.18,0.18,0,0,0,.12,0,1.82,1.82,0,0,1,.51.06c0.14,0,.3,0,0.44.07l0.54,0.13a0.3,0.3,0,0,0,.32-0.08c0.27-.28.57-0.53,0.81-0.82,0.6-.74,1.33-1.35,2-2l0.12-.12c0.07,0,0,.09,0,0.13a0.38,0.38,0,0,0,.06.29,0.08,0.08,0,0,1,0,.06c0,0.28.09,0.54,0.07,0.81a0.25,0.25,0,0,0,0,.21,0.25,0.25,0,0,1,0,.17,1.27,1.27,0,0,0,.07.59,0.38,0.38,0,0,1,0,.17c0,0.56.11,1.12,0.06,1.69a7.82,7.82,0,0,1,.07,1.7,0.29,0.29,0,0,1-.05.25,0.2,0.2,0,0,0,0,.15c0,0.09,0,.19,0,0.28a5.29,5.29,0,0,1-.12.91c0,0.23-.1.44-0.15,0.66s-0.13.39-.18,0.59-0.2.44-.28,0.67a2.61,2.61,0,0,1-.29.52c-0.14.23-.31,0.44-0.46,0.66a3.61,3.61,0,0,1-.41.42,5.41,5.41,0,0,1-1.78,1.21,3.63,3.63,0,0,1-.95.32c-0.1,0-.2.06-0.31,0.07a0.35,0.35,0,0,0-.31.3,7.89,7.89,0,0,1-.19.84,1,1,0,0,0-.08.37,1.15,1.15,0,0,1-.08.31,4.06,4.06,0,0,1-.18.76,1.47,1.47,0,0,0-.07.31c0,0.24-.09.49-0.16,0.73s-0.11.45-.17,0.67a2.67,2.67,0,0,0-.11.45,1.26,1.26,0,0,1-.1.43,1.16,1.16,0,0,0-.08.33c0,0.25-.15.49-0.17,0.75s-0.13.43-.17,0.65-0.09.31-.11,0.48a1.69,1.69,0,0,1-.1.41c-0.07.21-.1,0.44-0.17,0.66a6.9,6.9,0,0,1-.19.8,1.92,1.92,0,0,0-.07.31c-0.07.27-.15,0.53-0.2,0.8s-0.12.45-.16,0.68a6,6,0,0,1-.22.77c-0.08.24-.17,0.48-0.24,0.72a1.15,1.15,0,0,1-.06.16c-0.07.15-.14,0.31-0.2,0.47a6.79,6.79,0,0,1-.46.79,1,1,0,0,1-.94.35,0.47,0.47,0,0,1-.27-0.26,1.75,1.75,0,0,1-.22-0.6A2,2,0,0,0,28.09,41,4.09,4.09,0,0,1,28,39.93c0-.37,0-0.74,0-1.11a1.11,1.11,0,0,1,.07-0.59,0.28,0.28,0,0,0,0-.13c0-.23,0-0.47,0-0.7a0.63,0.63,0,0,1,.06-0.4,0.29,0.29,0,0,0,0-.15c0-.73,0-1.47,0-2.2A2.13,2.13,0,0,0,28,34.07c0-.12,0-0.26-0.09-0.37a1,1,0,0,0-.78-0.7,0.21,0.21,0,0,1-.12,0,0.18,0.18,0,0,0-.17,0,1.06,1.06,0,0,0-.73.5,4.14,4.14,0,0,0-.42,1c-0.06.23-.13,0.45-0.19,0.67s-0.11.51-.18,0.76-0.07.33-.1,0.5-0.06.4-.1,0.61-0.08.35-.11,0.52a2.43,2.43,0,0,1-.11.65,1,1,0,0,1-.07.35,1.79,1.79,0,0,1-.09.61,3.37,3.37,0,0,1-.11.63,3.91,3.91,0,0,0-.09.41c-0.07.27-.12,0.55-0.19,0.83a4.64,4.64,0,0,1-.36,1,0.89,0.89,0,0,1-.4.41A0.51,0.51,0,0,1,23,42.1a3.91,3.91,0,0,1-.36-1c0-.13-0.08-0.26-0.1-0.39s-0.08-.35-0.11-0.52a2.3,2.3,0,0,0-.11-0.65,0.35,0.35,0,0,1,0-.13A0.9,0.9,0,0,0,22.24,39a5.13,5.13,0,0,0-.08-0.77A0.28,0.28,0,0,0,22.12,38a0.08,0.08,0,0,1,0-.06A4.66,4.66,0,0,0,22,37.2,0.43,0.43,0,0,0,22,36.87a0.09,0.09,0,0,1,0-.06c0-.32-0.09-0.63-0.06-0.95a0.23,0.23,0,0,0,0-.19,0.13,0.13,0,0,1,0-.08,3.49,3.49,0,0,0-.06-0.73,1.55,1.55,0,0,0-.07-0.51,0.59,0.59,0,0,1,0-.24,0.51,0.51,0,0,0-.06-0.35,0.06,0.06,0,0,1,0,0,6.43,6.43,0,0,0-.06-0.79,3.17,3.17,0,0,0-.12-0.73c0-.14-0.05-0.28-0.08-0.42a3,3,0,0,0-.38-1,1.1,1.1,0,0,0-.73-0.49,0.7,0.7,0,0,0-.67.31,3,3,0,0,0-.35.84c-0.06.21-.1,0.42-0.15,0.63s-0.08.57-.14,0.84a3.27,3.27,0,0,1-.11.74,0.55,0.55,0,0,0,0,.19,0.57,0.57,0,0,1-.06.36,0.28,0.28,0,0,0,0,.15c0,0.16,0,.32,0,0.48a0.5,0.5,0,0,1-.06.33,0.28,0.28,0,0,0,0,.15,3.13,3.13,0,0,1,0,.59c-0.09.45,0,.92-0.07,1.36s0,0.87-.07,1.29,0,0.76-.07,1.12,0,0.62-.07.92a2.3,2.3,0,0,1-.1.5,3.43,3.43,0,0,0-.09.43,1.4,1.4,0,0,1-.52.82,0.57,0.57,0,0,1-.71-0.07,2.53,2.53,0,0,1-.55-0.86,4.17,4.17,0,0,1-.27-0.82c0-.21-0.12-0.42-0.17-0.64s-0.13-.51-0.21-0.75-0.06-.3-0.12-0.45-0.09-.47-0.19-0.69a1.72,1.72,0,0,1-.07-0.31c-0.06-.28-0.16-0.54-0.21-0.82S15,36.47,15,36.25s-0.13-.62-0.21-0.93-0.16-.57-0.21-0.86a0.83,0.83,0,0,0-.11-0.39,0.17,0.17,0,0,1,0-.08c0-.22-0.09-0.43-0.12-0.64a2.19,2.19,0,0,1-.09-0.52,0.52,0.52,0,0,0-.07-0.26,2.16,2.16,0,0,1-.1-0.5c0-.17-0.07-0.35-0.11-0.52A2.94,2.94,0,0,0,13.84,31a0.1,0.1,0,0,1,0,0c0-.26-0.11-0.5-0.12-0.75a3.56,3.56,0,0,0-.1-0.57A1.67,1.67,0,0,0,13.5,29a0.28,0.28,0,0,1,0-.13,0.52,0.52,0,0,0-.06-0.35,0.06,0.06,0,0,1,0,0c0-.24-0.09-0.47-0.07-0.71a0.19,0.19,0,0,0,0-.16,0.12,0.12,0,0,1,0-.1c0-.33-0.1-0.66-0.07-1a0.3,0.3,0,0,0-.05-0.25,0.29,0.29,0,0,1,0-.15,1.89,1.89,0,0,0-.07-0.75,0.38,0.38,0,0,1,0-.15c0-.36,0-0.73,0-1.09a1,1,0,0,1,.06-0.45,1,1,0,0,0,0-.34A0.47,0.47,0,0,1,13.2,23a0.14,0.14,0,0,0,0-.08,2.74,2.74,0,0,1,.12-0.69c0.05-.23.12-0.45,0.16-0.68a1.68,1.68,0,0,1,.15-0.46c0.17-.34.26-0.71,0.45-1a1.79,1.79,0,0,0,.19-0.29c0-.07,0-0.1,0-0.12a2.45,2.45,0,0,1-.7-0.76c-0.14-.17-0.22-0.38-0.35-0.56a3.36,3.36,0,0,1-.32-0.79c-0.07-.18-0.13-0.37-0.19-0.56a0.1,0.1,0,0,1,0,0,1.57,1.57,0,0,0-.09-0.55,7.2,7.2,0,0,0-.07-0.75,3.08,3.08,0,0,1-.06-0.72,0.36,0.36,0,0,1,.06-0.31,0.13,0.13,0,0,0,0-.08,3.29,3.29,0,0,1,.07-0.9c0.06-.23.11-0.47,0.17-0.7A5.74,5.74,0,0,1,13,12.18a4.76,4.76,0,0,1,.4-0.78,5.07,5.07,0,0,1,.36-0.55,4.49,4.49,0,0,1,.32-0.41l0.4-.4a6,6,0,0,1,1-.84,8.79,8.79,0,0,1,1-.61A10.54,10.54,0,0,1,17.82,8c0.3-.1.6-0.17,0.9-0.25s0.33,0,.48-0.09A6.94,6.94,0,0,0,20,7.57c0.53,0,1.06,0,1.59,0a2.24,2.24,0,0,1,.44.05c0.2,0.05.41,0.06,0.61,0.11s0.41,0.09.62,0.16a5.6,5.6,0,0,1,1.18.5,7,7,0,0,1,.58.4,14.55,14.55,0,0,1,1.09,1c0.09,0.24.35,0.36,0.46,0.59s0.16,0.17.22,0.29a1.58,1.58,0,0,1,.19.76,1.68,1.68,0,0,1-.13.75,0.48,0.48,0,0,1-.44.29,1.53,1.53,0,0,1-.56-0.05,1.44,1.44,0,0,1-.24-0.14A1.76,1.76,0,0,1,25.2,12c-0.23-.23-0.5-0.4-0.74-0.62a3,3,0,0,0-.8-0.5,4.14,4.14,0,0,0-.86-0.31c-0.27-.05-0.54-0.08-0.8-0.14a11.34,11.34,0,0,0-1.66-.06,1.48,1.48,0,0,0-.39.09,3.1,3.1,0,0,0-.95.37c-0.2.12-.4,0.24-0.6,0.38a5.93,5.93,0,0,0-.62.57,4.06,4.06,0,0,0-.91,1.29,2.84,2.84,0,0,0-.25.59,3.05,3.05,0,0,0-.16.88,5.4,5.4,0,0,1,0,.61,4,4,0,0,0,.12.88,2.82,2.82,0,0,0,.39.82c0.1,0.19.18,0.19,0.33,0a2.83,2.83,0,0,1,.57-0.41,6.9,6.9,0,0,1,.63-0.36,9.12,9.12,0,0,1,.92-0.34c0.27-.1.56-0.1,0.83-0.21a0.44,0.44,0,0,1,.15,0c0.35,0,.7,0,1,0a4.93,4.93,0,0,1,1,.08,6.76,6.76,0,0,1,.74.17c0.32,0.08.63,0.21,1,.29,0.12,0,.21.11,0.33,0.15a0.11,0.11,0,0,1,.06.17,4.32,4.32,0,0,0-.21.78,2.05,2.05,0,0,1-.11.41,1.22,1.22,0,0,0-.07.39,2.9,2.9,0,0,0-.08.6,0.1,0.1,0,0,1,0,.06,1.28,1.28,0,0,0-.07.57,8.64,8.64,0,0,0-.06,1.47,8.05,8.05,0,0,1,.06,1,1.51,1.51,0,0,1,.12.58c0.05,0.21.1,0.43,0.15,0.64a6.58,6.58,0,0,0,.29.84,3,3,0,0,0,.26.58c0.16,0.24.31,0.49,0.47,0.73a6.58,6.58,0,0,1,.46.57,0.63,0.63,0,0,0,.33.3,0.3,0.3,0,0,1,.1.08,5.29,5.29,0,0,0,.82.62,7.91,7.91,0,0,0,1.08.57,5,5,0,0,0,1,.36,8.38,8.38,0,0,0,1,.23c0.15,0,.31.06,0.46,0.06a0.23,0.23,0,0,1,.14.05A0.11,0.11,0,0,0,30.83,27.85Z" transform="translate(-2.14 -2.14)"/></svg>