<svg id="Layer_1" data-name="Layer 1" xmlns="http://www.w3.org/2000/svg" viewBox="0 0 13.97 13.97"><defs><style>.cls-1{fill:gray;}.cls-2{fill:#fefefe;}</style></defs><title>זכויות יוצרים</title><path d="M3,10.22V9.78a0.81,0.81,0,0,0,0-.17,5.13,5.13,0,0,1,.13-1.11A7.06,7.06,0,0,1,5.09,5,7.1,7.1,0,0,1,6.3,4.06,6.95,6.95,0,0,1,9.14,3L9.62,3a0.85,0.85,0,0,0,.17,0h0.43a0.81,0.81,0,0,0,.17,0,5.11,5.11,0,0,1,1.11.13,6.85,6.85,0,0,1,1.21.38A7.11,7.11,0,0,1,15,5.08a7.1,7.1,0,0,1,1,1.25,6.94,6.94,0,0,1,1,2.82c0,0.16,0,.31,0,0.47a0.85,0.85,0,0,0,0,.17v0.43a0.81,0.81,0,0,0,0,.17,5.13,5.13,0,0,1-.13,1.11A7.06,7.06,0,0,1,14.91,15a7.1,7.1,0,0,1-1.21.95,6.95,6.95,0,0,1-2.85,1l-0.47,0a0.85,0.85,0,0,0-.17,0H9.78a0.81,0.81,0,0,0-.17,0,5.11,5.11,0,0,1-1.11-.13,6.85,6.85,0,0,1-1.21-.38A7.11,7.11,0,0,1,5,14.92a7.1,7.1,0,0,1-1-1.25,6.94,6.94,0,0,1-1-2.82c0-.16,0-0.31,0-0.47A0.85,0.85,0,0,0,3,10.22Z" transform="translate(-3.02 -3.02)"/><path class="cls-1" d="M9.61,3H9.78A0.42,0.42,0,0,1,9.61,3Z" transform="translate(-3.02 -3.02)"/><path class="cls-1" d="M10.39,3h0a0.42,0.42,0,0,1-.18,0h0.18Z" transform="translate(-3.02 -3.02)"/><path class="cls-1" d="M3,9.61H3a0.42,0.42,0,0,1,0,.18V9.61Z" transform="translate(-3.02 -3.02)"/><path class="cls-1" d="M17,9.61h0V9.78A0.42,0.42,0,0,1,17,9.61Z" transform="translate(-3.02 -3.02)"/><path class="cls-1" d="M3,10.39H3V10.22A0.42,0.42,0,0,1,3,10.39Z" transform="translate(-3.02 -3.02)"/><path class="cls-1" d="M17,10.39h0a0.42,0.42,0,0,1,0-.18v0.18Z" transform="translate(-3.02 -3.02)"/><path class="cls-1" d="M9.61,17h0a0.42,0.42,0,0,1,.18,0H9.61Z" transform="translate(-3.02 -3.02)"/><path class="cls-1" d="M10.39,17H10.22A0.42,0.42,0,0,1,10.39,17Z" transform="translate(-3.02 -3.02)"/><circle class="cls-2" cx="6.99" cy="6.99" r="5.56"/><path d="M12.87,9.07H12A0.09,0.09,0,0,1,11.9,9a2.09,2.09,0,0,0-1.62-1.14,2.14,2.14,0,1,0,1.66,3A0.07,0.07,0,0,1,12,10.85h1.74c0.07,0,.07,0,0.05.07a3.88,3.88,0,0,1-1,1.78,3.76,3.76,0,0,1-2.06,1.13,3.83,3.83,0,0,1-3.48-1,3.68,3.68,0,0,1-1.13-2.06,3.83,3.83,0,0,1,1-3.48A3.65,3.65,0,0,1,9.4,6.13a3.84,3.84,0,0,1,3.8,1.6A3.71,3.71,0,0,1,13.8,9c0,0.05,0,.07-0.05.07H12.87Z" transform="translate(-3.02 -3.02)"/></svg>