<svg id="Layer_1" data-name="Layer 1" xmlns="http://www.w3.org/2000/svg" viewBox="0 0 45.39 45.39"><defs><style>.cls-1{fill:#fff;}.cls-2{fill:#fcaf17;}</style></defs><title>כלב</title><path class="cls-1" d="M7.61,18.41a77.73,77.73,0,0,0,.73,10.87,40.7,40.7,0,0,1,.3,5.29c0,1.27-.17,2.54-0.12,3.81,0.06,0.23.13,0.45,0.21,0.68s0.35,0.71.55,1.05L10,40.61c0.7,0.48,1.34,1,2,1.55l0.49,0.3L13,42.59c1.09,0.07,2.18,0,3.26,0,1.79,0,3.58,0,5.38,0a83.14,83.14,0,0,0,9.76-.4c1-.16,2-0.36,3-0.58s2-.4,3-0.66L38,40.67a5.91,5.91,0,0,1,.65-0.35,10,10,0,0,1,2-.78q0.13-.58.31-1.15c0.21-.68.5-1.34,0.71-2s0.35-1.34.49-2c0.29-1.4.51-2.82,0.85-4.22a15.93,15.93,0,0,1,.62-2,19.79,19.79,0,0,1,1.51-3.26l0.07-.11-0.14-.32c-0.89-3.4-.81-6.92-1.17-10.39a13.9,13.9,0,0,1-3.15-2.56,28.39,28.39,0,0,1-2-2.76L38.18,8,37.81,7.6q-0.46-.3-1-0.55a15.56,15.56,0,0,0-2.26-.58c-3.29-.3-6.59.06-9.89,0.06a6.31,6.31,0,0,1-3-.77c-0.1.12-.21,0.23-0.33,0.34A6.67,6.67,0,0,1,16.77,8c-0.5,0-1,0-1.51,0a17.1,17.1,0,0,0-2.6.7,12.85,12.85,0,0,0-1.27.72q-0.37.35-.71,0.73c-1,1.42-1.74,3-2.63,4.43a6.78,6.78,0,0,1-1,1.27A4.9,4.9,0,0,1,7.61,18.41Z" transform="translate(-2.31 -2.34)"/><path class="cls-2" d="M25,47.73A22.69,22.69,0,1,1,47.69,25.1,22.69,22.69,0,0,1,25,47.73Z" transform="translate(-2.31 -2.34)"/><path class="cls-1" d="M31.82,31.45l-0.63,3c-0.14.64-.28,1.28-0.41,1.92a1.77,1.77,0,0,0,0,.75,1.48,1.48,0,0,0,.81,1,0.9,0.9,0,0,1,.37.36,0.86,0.86,0,0,1-.21,1.09,1.32,1.32,0,0,1-.92.37,5.49,5.49,0,0,1-1.27-.09,1.65,1.65,0,0,1-1-.57,1.73,1.73,0,0,1-.31-1,3.86,3.86,0,0,1,.08-1,11.26,11.26,0,0,0,.17-1.48c0.05-.75.13-1.49,0.22-2.23S28.88,31.84,29,31a1.16,1.16,0,0,0-.1-0.65,5,5,0,0,1-.2-0.52,0.26,0.26,0,0,0-.21-0.18q-1.29-.32-2.56-0.69a25.07,25.07,0,0,1-4.51-1.73l-0.06,0a1,1,0,0,0-.82-0.15c-0.42.08-.84,0.12-1.26,0.18a0.67,0.67,0,0,0-.6.57,1.92,1.92,0,0,0,0,.39,8.17,8.17,0,0,1-.14,1.37c0,0.1,0,.2,0,0.3a6.64,6.64,0,0,1-.55,1.81c-0.33.87-.66,1.74-1,2.6a2.24,2.24,0,0,0-.09,1.19,2.66,2.66,0,0,0,.3.85c0.25,0.47.48,1,.72,1.43a3.91,3.91,0,0,1,.32.71,2.77,2.77,0,0,1,.11,1.17,0.74,0.74,0,0,1-1.06.67c-0.21-.07-0.4-0.16-0.6-0.24s-0.43-.19-0.66-0.27a1.3,1.3,0,0,1-.62-0.49,4.66,4.66,0,0,1-.54-1A13.84,13.84,0,0,1,14,35.41a6,6,0,0,1,0-1c0-.05,0-0.1,0-0.15q0-.63,0-1.25c0-.06,0-0.13,0-0.15a0.16,0.16,0,0,0-.15.07,0.83,0.83,0,0,0-.18.29,4.76,4.76,0,0,0-.29,1.11,14.25,14.25,0,0,0-.17,2.84,4.27,4.27,0,0,0,.27,1.2L14,40a0.82,0.82,0,0,1,.07.42,0.69,0.69,0,0,1-.44.52,1.93,1.93,0,0,1-2.32-.56,4,4,0,0,1-.71-1.45,14.62,14.62,0,0,1-.48-2.21,7,7,0,0,1,0-1.68,6.18,6.18,0,0,1,.51-1.91L11,32.3a2.9,2.9,0,0,0,.22-2A4.43,4.43,0,0,0,11,29.56a10.82,10.82,0,0,1-.51-1.85,12.67,12.67,0,0,1-.29-1.85,6,6,0,0,1,1.19-4.27c0.06-.08.11-0.14,0-0.24a4.38,4.38,0,0,1-1-2,22.65,22.65,0,0,1-.55-2.73,7.31,7.31,0,0,1-.06-1.47,1.54,1.54,0,0,1,.08-0.42,0.33,0.33,0,0,1,.37-0.26h0.48a0.46,0.46,0,0,1,.36.16,1.66,1.66,0,0,1,.36.64,10.91,10.91,0,0,1,.38,1.51,14.81,14.81,0,0,0,.49,2,1.73,1.73,0,0,0,.45.75,0.55,0.55,0,0,0,.39.16c0.58,0,1.17,0,1.75,0,0.84,0,1.69,0,2.53,0,1.15,0,2.31,0,3.46,0s2.16,0,3.24,0l0.32,0a2.46,2.46,0,0,0,.85-0.1c0.54-.16,1.08-0.3,1.62-0.44a6.4,6.4,0,0,0,1.68-.83l1.69-1.05a0.16,0.16,0,0,1,.24,0,14.24,14.24,0,0,0,1.31,1.19A11.69,11.69,0,0,0,35,20.43l0.46,0.18a0.19,0.19,0,0,1,.15.18c0,0.37.08,0.74,0.12,1.12a19,19,0,0,1,.09,2,11.34,11.34,0,0,1-.33,2.69q-0.51,2.08-.9,4.18a18.52,18.52,0,0,0-.3,2.42c0,0.46-.05.92-0.06,1.38,0,0.67,0,1.34.07,2,0,0.19,0,.37,0,0.56a0.86,0.86,0,0,0,.58.87,4.67,4.67,0,0,0,.51.17A0.86,0.86,0,0,1,36,39a0.85,0.85,0,0,1-.37.86,0.69,0.69,0,0,1-.35.16,8.49,8.49,0,0,1-1.16.08A3.45,3.45,0,0,1,33.26,40a1.49,1.49,0,0,1-1.08-1.18,4,4,0,0,1-.1-0.88c0-.45,0-0.91,0-1.36a6.09,6.09,0,0,0,0-.73c0-.48,0-1-0.06-1.45,0-.73-0.08-1.45-0.11-2.18,0-.18,0-0.36,0-0.54A0.24,0.24,0,0,0,31.82,31.45Z" transform="translate(-2.31 -2.34)"/><path class="cls-1" d="M31.41,16.2l0.7-.88c0.76-1,1.53-1.91,2.28-2.88,0.36-.47.69-1,1-1.45a4.33,4.33,0,0,0,.33-0.75A2.44,2.44,0,0,1,36.87,9a0.54,0.54,0,0,1,.74.12,1.85,1.85,0,0,1,.51,1.18,1.48,1.48,0,0,1-.06.62,4.38,4.38,0,0,0-.16.91,0.18,0.18,0,0,0,.09.18,10.57,10.57,0,0,1,.87.74c0.35,0.32.67,0.65,1,1s0.63,0.69,1,1a1.48,1.48,0,0,0,.71.39,9,9,0,0,0,1,.16c0.17,0,.34.06,0.51,0.07a0.58,0.58,0,0,1,.39.25,0.94,0.94,0,0,1,.19.8,4,4,0,0,1-.85,2,2.5,2.5,0,0,1-1.62.83,4.15,4.15,0,0,1-2.67-.59l-0.32-.18a0.41,0.41,0,0,0-.44,0,8.08,8.08,0,0,0-1,.78c-0.3.25-.3,0.25-0.65,0.09a16.57,16.57,0,0,1-2.94-1.68A10.83,10.83,0,0,1,31.41,16.2Z" transform="translate(-2.31 -2.34)"/></svg>