<svg id="Layer_1" data-name="Layer 1" xmlns="http://www.w3.org/2000/svg" viewBox="0 0 37.53 25.89"><defs><style>.cls-1{fill:#fefefe;}</style></defs><title>מעטפה</title><path d="M39.19,33.56H1.77V7.67H39.19a0.13,0.13,0,0,1,0,.09s0,0.1,0,.15q0,12.59,0,25.18a0.34,0.34,0,0,0,.07.25v0A0.31,0.31,0,0,0,39.19,33.56Z" transform="translate(-1.77 -7.67)"/><path class="cls-1" d="M20.48,24.35L3.32,8.43H37.63Z" transform="translate(-1.77 -7.67)"/><path class="cls-1" d="M3.43,32.78L16.57,21.52l0.34,0.31L19.24,24l1.18,1.1c0.06,0.05,0,.06.11,0l3-2.79,0.88-.82,0,0s0,0,.06,0l0.22,0.19,5.62,4.82,5.73,4.91,1.59,1.37,0,0s0,0,0,0H3.46A0,0,0,0,1,3.43,32.78Z" transform="translate(-1.77 -7.67)"/><path class="cls-1" d="M2.37,32.92V8.37h0l0,0,13.7,12.72Z" transform="translate(-1.77 -7.67)"/><path class="cls-1" d="M24.91,21L38.61,8.32V32.76C38.55,32.75,25,21.12,24.91,21Z" transform="translate(-1.77 -7.67)"/></svg>