<svg id="Layer_1" data-name="Layer 1" xmlns="http://www.w3.org/2000/svg" viewBox="0 0 325.21 325.21"><defs><style>.cls-1{fill:#fefefe;}.cls-2{fill:#3b5997;}</style></defs><title>פייסבוק</title><path class="cls-1" d="M163.44,326q-79.25,0-158.5.11c-3.56,0-4-.88-4-4.17q0.16-158.5,0-317c0-3.55.88-4,4.17-4q158.5,0.16,317,0c3.55,0,4,.88,4,4.17q-0.16,158.5,0,317c0,3.56-.88,4-4.17,4Q242.69,325.9,163.44,326Z" transform="translate(-0.9 -0.9)"/><path class="cls-2" d="M10,163.33q0-49.5,0-99c0-31.38,24-56,55.35-56.1q98.49-.3,197,0C294,8.31,318,32.84,318,64.53q0,99,0,198c0,31.67-24,56-55.69,56.29-11.83.12-23.67-.08-35.5,0.09-3.31,0-4.66-.65-4.64-4.34q0.19-56,0-112c0-3.79,1.47-4.35,4.7-4.3,10.5,0.15,21-.07,31.5.13,3.41,0.07,5-.64,5.37-4.42,1.43-13.08,3.14-26.13,5-39.14,0.55-3.76-1.6-3.2-3.73-3.2-12.67,0-25.33-.12-38,0.07-3.58.06-5-.71-4.87-4.65,0.31-9-.06-18,0.19-27,0.4-14.58,6.86-20.86,21.44-21.07,7.83-.11,15.67-0.18,23.5,0,3.14,0.09,3.93-.89,3.89-3.93-0.17-11.66-.07-23.33-0.07-35,0-1.83.32-3.78-2.48-3.91-16.62-.79-33.3-3.12-49.81.36-25.47,5.36-41.15,23.56-43.69,50.42-1.25,13.29-.46,26.65-0.42,40,0,3.75-1,4.84-4.75,4.76-10.83-.25-21.67,0-32.49-0.16-3.28-.06-4.28.92-4.23,4.23,0.18,12.83.2,25.67,0,38.49-0.06,3.49,1.22,4.15,4.33,4.1,10.83-.15,21.67,0,32.5-0.12,3.3-.05,4.66.64,4.64,4.34q-0.2,56,0,112c0,3.07-.62,4.34-4.13,4.32-35.33-.15-70.66.19-106-0.19C33.93,318.4,10,293.78,10,263.32Q10,213.32,10,163.33Z" transform="translate(-0.9 -0.9)"/></svg>