<svg id="Layer_1" data-name="Layer 1" xmlns="http://www.w3.org/2000/svg" viewBox="0 0 37.55 37.61"><defs><style>.cls-1{fill:#3b5997;}.cls-2{fill:#fefefe;}</style></defs><title>פייסבוק</title><path class="cls-1" d="M1.22,37.07V2.81a0.72,0.72,0,0,0,.09-0.38A1.12,1.12,0,0,1,2.45,1.28a0.72,0.72,0,0,0,.38-0.09H37.1c1.31,0.26,1.66.34,1.66,2.12q0,16.61,0,33.22a4.93,4.93,0,0,1-.13,1.08,1.24,1.24,0,0,1-1,1,5,5,0,0,1-1.14.13H27.69c-0.82,0-.89-0.06-0.89-0.88,0-3.67,0-7.34,0-11,0-.73,0-1.46,0-2.19a0.64,0.64,0,0,1,.77-0.77c1.06,0,2.11,0,3.17,0a0.87,0.87,0,0,0,1.09-1c0.13-1,.3-2.09.4-3.15,0.08-.82-0.06-1-0.9-1-1.17,0-2.35,0-3.52,0-0.88,0-1-.13-1-1,0-1.06,0-2.12,0-3.17a2.53,2.53,0,0,1,2.72-2.71c0.75,0,1.5,0,2.25,0a0.74,0.74,0,0,0,.9-0.91c0-1,0-1.92,0-2.88A0.69,0.69,0,0,0,32,7.27a20.85,20.85,0,0,0-4.83,0,6.2,6.2,0,0,0-5.5,5.65,40,40,0,0,0-.11,4.55c0,1.28-.06,1.33-1.34,1.34-0.9,0-1.81,0-2.71,0a0.74,0.74,0,0,0-.91.89c0,1.11,0,2.23,0,3.34a0.7,0.7,0,0,0,.84.84c1.06,0,2.11,0,3.17,0,0.78,0,.92.15,0.93,0.92q0,6.57,0,13.15c0,0.72-.1.8-0.8,0.8H3.35a4.45,4.45,0,0,1-.74-0.06,1.25,1.25,0,0,1-1.29-1.22A0.89,0.89,0,0,0,1.22,37.07Z" transform="translate(-1.22 -1.19)"/><path class="cls-2" d="M27.13,38.59a0.51,0.51,0,0,1-.08-0.33q0-6.83,0-13.67a0.36,0.36,0,0,1,.45-0.45c1.35,0,2.69,0,4,0A0.38,0.38,0,0,0,32,23.76c0.18-1.6.38-3.2,0.61-4.8,0.06-.41,0-0.48-0.41-0.47-1.56,0-3.11,0-4.67,0-0.42,0-.51-0.12-0.5-0.52,0-1.06,0-2.11,0-3.17,0-1.87.8-2.65,2.68-2.66,0.88,0,1.77,0,2.65,0,0.4,0,.57-0.06.56-0.52,0-1.36,0-2.73,0-4.09A0.47,0.47,0,0,0,32.41,7C30.95,6.9,29.49,6.8,28,6.85a6.56,6.56,0,0,0-6.63,6A45.69,45.69,0,0,0,21.31,18c0,0.42-.08.56-0.53,0.55-1.31,0-2.61,0-3.92,0-0.37,0-.54.05-0.53,0.49,0,1.58,0,3.15,0,4.73,0,0.35.08,0.46,0.44,0.45,1.33,0,2.65,0,4,0,0.48,0,.56.15,0.55,0.58q0,6.69,0,13.38a0.82,0.82,0,0,1-.08.43l0,0.28H27.1C27.11,38.73,27.12,38.66,27.13,38.59Z" transform="translate(-1.22 -1.19)"/></svg>