<svg id="Layer_1" data-name="Layer 1" xmlns="http://www.w3.org/2000/svg" viewBox="0 0 503.26 503.18"><defs><style>.cls-1{fill:#fff;}.cls-2{fill:#fcaf17;}</style></defs><title>בית לכלב</title><path class="cls-1" d="M1046.15,455.75c-1.45-3.22-2.9-6.44-4.3-9.69-4.07-9.47-9.16-19.92-13-30.49-2.09-.69-4.18-1.41-6.25-2.16-14-5.07-27.8-10.89-41.26-17.27a124.9,124.9,0,0,1-17.13-9.72,266.08,266.08,0,0,1-32.15-25.27c-4.69,0-9.39.09-14.07,0.2a102.68,102.68,0,0,1-48.22-11.94,77.9,77.9,0,0,1-14.15,11.75,77.84,77.84,0,0,1-35.15,18.5c-14.81,3.83-30.33,5.33-45.48,6.86-6.12.62-12.27,0.86-18.41,1-3.54.08-7.09,0.14-10.63,0.21-4.4,3.38-9,6.62-13.18,9.75-0.91.68-1.78,1.35-2.75,1.94-2.34,1.41-4.78,2.77-7.27,4.06-2.07,30.53.9,61.19,4.78,91.55,3.63,26.06,7.44,52.13,9.73,78.34,1.63,18.65,2.62,37.3,4.57,55.9,4,24.33,9.65,48.54,17.89,71.78,5.6,10.39,12.51,20,19.57,29.5l7.9,0.83c16.46,1.69,33,4,49.49,4.7,17.19,0.76,34.4.83,51.61,0.59,17-.24,34-0.84,51-1.25,10.1-.24,20.22-0.44,30.3-1.1,12.62-2.91,24.6-7.35,37-11.91s25.14-9,37.62-13.73a184,184,0,0,0,17.52-9.75c0.18-.32.36-0.64,0.55-1,0.32-.52.71-1,1.06-1.5,3.66-5.34,12.23-17,16.73-21.58a57.94,57.94,0,0,1,5.91-4.95c0.71-8,1.54-16.06,2.55-24.07,2.21-17.46,4.12-35.2,7.5-52.52,1.69-8.65,4.41-17.09,6-25.76,0.81-4.39,1.74-8.76,2.7-13.12-9.68-12.49-19.22-25.07-28.15-38.14A230.46,230.46,0,0,1,1062,492.6C1055.85,480.71,1051,468.21,1046.15,455.75Z" transform="translate(-639.83 -291.3)"/><path class="cls-2" d="M1143.09,542.93c-0.51,140.3-113.59,252-252.56,251.55C752.42,794,639.67,682.65,639.83,542.63,640,401.93,753.89,291.22,891.55,291.3S1142.58,402.24,1143.09,542.93Z" transform="translate(-639.83 -291.3)"/><path class="cls-1" d="M895.08,691.81H814.7a11.27,11.27,0,0,1-11.21-9,36,36,0,0,1-.53-4.76c-0.72-9.4-1.39-18.81-2.12-28.21-0.86-11-1.78-22-2.64-33-0.75-9.56-1.42-19.13-2.16-28.69q-1.15-14.94-2.34-29.88c-0.14-1.72-.15-1.76-2.07-1.76-6.72,0-13.44,0-20.16,0a10.93,10.93,0,0,1-10.95-8,11.21,11.21,0,0,1,2.55-11.37L779.57,519l98.3-107.73c2.86-3.13,5.79-6.19,8.57-9.39a11.81,11.81,0,0,1,17.74.06q28.43,31.37,57.06,62.56,32.82,36,65.66,71.92c3.28,3.58,4.4,7.56,3,12.13a11,11,0,0,1-10.57,7.91c-6.88.07-13.76,0-20.63,0-2.59,0-2.47-.59-2.76,2.59-0.44,4.77-.71,9.57-1.05,14.35q-1.54,21.64-3.08,43.29-1.15,16-2.35,32c-0.79,10.76-1.55,21.52-2.38,32.28a11.34,11.34,0,0,1-11.63,10.73H895.08Z" transform="translate(-639.83 -291.3)"/><path class="cls-1" d="M773.12,412.36a23.55,23.55,0,0,1,5.51-9.73c5.3-5.3,11.65-7.21,18.87-5.32s11.39,6.95,13.42,14a30.71,30.71,0,0,1-3.2,24.92c-1.81,3.11-3.67,6.18-5.65,9.19-4.3,6.54-8.58,13.1-12.64,19.8-0.95,1.56-1,1.58-2.49.79-8-4.17-16.24-7.87-24.37-11.79-4.9-2.36-9.82-4.74-13.8-8.54a28.92,28.92,0,0,1-9.38-21.32c-0.08-8,5.87-15.72,15.15-17.64,5.56-1.15,10.6.24,15.27,3.26C770.89,410.67,771.89,411.46,773.12,412.36Z" transform="translate(-639.83 -291.3)"/><path class="cls-1" d="M1001.86,696.66a5.09,5.09,0,0,1-4.27-3.13,5.81,5.81,0,0,1,.57-6.12c0.71-1,2.44-1.64,2.27-2.88-0.13-1-1.49-1.76-2.23-2.69a5.89,5.89,0,0,1-.3-6.74,5.77,5.77,0,0,1,10.51,2.35c0.35,2,.35,2,2.31,2q10.18,0,20.37,0c1.85,0,1.85,0,2.12-1.91a5.76,5.76,0,0,1,10.72-2.18,5.76,5.76,0,0,1-.52,6.52,16.59,16.59,0,0,1-1.84,1.89,0.92,0.92,0,0,0,0,1.58,17.27,17.27,0,0,1,1.81,1.91,5.69,5.69,0,0,1,.41,6.71,5.76,5.76,0,0,1-10.59-2.39c-0.27-1.86-.27-1.89-2.13-1.89q-10.18,0-20.37,0c-2,0-2,0-2.3,2C1007.94,694.74,1005.61,696.7,1001.86,696.66Z" transform="translate(-639.83 -291.3)"/><path class="cls-1" d="M831.64,417.22a9.52,9.52,0,0,1,4.41-1.55,5.93,5.93,0,0,1,6.24,6.58,9.2,9.2,0,0,1-4.51,7.27c-3.42,2.09-7.2,3.44-10.75,5.27a0.9,0.9,0,0,1-1.37-.44c-1.91-3.42-4.31-6.55-6-10.06a9.63,9.63,0,0,1-.35-7.69,5.76,5.76,0,0,1,4.82-4.15,6.15,6.15,0,0,1,6.38,2.9A5.75,5.75,0,0,0,831.64,417.22Z" transform="translate(-639.83 -291.3)"/><path class="cls-2" d="M895.12,672.7H846.18c-0.8,0-1.6,0-2.4,0a4.69,4.69,0,0,1-4.59-4.62c0-.64,0-1.28,0-1.92,0-24.31-.13-48.63,0-72.94,0.15-22.81,10.48-39.78,30.41-50.72,10.09-5.54,21.05-7.13,32.49-5.82a56.21,56.21,0,0,1,47.8,43.4,58,58,0,0,1,1.36,12.85c0,24.63-.05,49.27.05,73.9,0,3.45-1.92,6.16-6.06,5.94-3.51-.19-7,0-10.55,0H895.12Z" transform="translate(-639.83 -291.3)"/></svg>