<svg id="Layer_1" data-name="Layer 1" xmlns="http://www.w3.org/2000/svg" viewBox="0 0 239.97 300.06"><title>פח</title><path d="M1061.24,470.91c-0.47,5.46-.91,10.62-1.38,15.78q-1.1,12.18-2.24,24.36-1.35,14.69-2.7,29.38c-0.71,7.8-1.39,15.61-2.1,23.41q-1.34,14.69-2.69,29.38c-0.71,7.8-1.39,15.61-2.1,23.41q-1.34,14.69-2.69,29.38-1.06,11.58-2.09,23.17c-0.62,6.77-1.28,13.53-1.84,20.3-0.1,1.16-.49,1.57-1.6,1.44a12.46,12.46,0,0,0-1.44,0H884.31c-3.11,0-3,0-3.33-3.23-0.87-9.79-1.8-19.58-2.69-29.38-0.7-7.72-1.38-15.45-2.09-23.17q-1.35-14.81-2.71-29.61c-0.7-7.72-1.38-15.45-2.08-23.17q-1.35-14.81-2.71-29.61c-0.71-7.8-1.39-15.61-2.1-23.41q-1.34-14.69-2.7-29.38-1.06-11.58-2.09-23.17c-0.13-1.43-.24-2.87-0.43-4.3-0.14-1.07,0-1.73,1.33-1.57a11.67,11.67,0,0,0,1.44,0h197.1Z" transform="translate(-841.27 -390.87)"/><path d="M961.18,450.9H844.1c-3,0-3,0-2.71-3q1.93-20.21,19-31.1a36.84,36.84,0,0,1,20-5.87q19.19-.06,38.39,0a5.24,5.24,0,0,0,4.19-1.69c5.58-5.73,11.3-11.31,16.91-17a4.22,4.22,0,0,1,3.34-1.37q18.11,0.07,36.23,0a4,4,0,0,1,3.15,1.28c5.61,5.7,11.33,11.29,16.91,17a5.53,5.53,0,0,0,4.41,1.77c12.24-.06,24.47,0,36.71,0a40.13,40.13,0,0,1,40.56,37.41c0,0.4,0,.8,0,1.2,0.1,1-.17,1.54-1.28,1.41a14.65,14.65,0,0,0-1.68,0H961.18Z" transform="translate(-841.27 -390.87)"/></svg>