<svg id="Layer_1" data-name="Layer 1" xmlns="http://www.w3.org/2000/svg" viewBox="0 0 45.71 45.71"><defs><style>.cls-1{fill:#fff;}.cls-2{fill:#fcaf17;}</style></defs><title>כובע</title><path class="cls-1" d="M6.82,25.58c0.16,2.27.08,4.56,0.29,6.83a12.52,12.52,0,0,0,.36,1.47L7.53,34l0.52,0.56a26.07,26.07,0,0,1,2,2.47,9.64,9.64,0,0,1,1.29,2.69,5.24,5.24,0,0,1,.17.68,21.91,21.91,0,0,1,2.72.49c2.64,0.65,5.22,1.53,7.9,2,1.21,0.1,2.42.1,3.64,0.12s2.24,0,3.35-.07c0.85-.19,1.67-0.46,2.53-0.66a13.61,13.61,0,0,1,3.13-.4,17.67,17.67,0,0,1,1.76.16l0.81,0.09,0.32-.24a22.85,22.85,0,0,0,2.82-2.8q0.27-.38.51-0.77a7,7,0,0,1,2.77-2.56c0.14-1.54.35-3.07,0.44-4.61a59.89,59.89,0,0,0-.29-10.78l0.12,0.86c-0.12-.95-0.23-1.9-0.31-2.85a7.19,7.19,0,0,1-.73-1A35.86,35.86,0,0,1,40.52,12,19.07,19.07,0,0,0,39,9.17a18.35,18.35,0,0,0-1.76-1.74l-0.33-.21-0.3-.07c-1.3-.09-2.61,0-3.92-0.06-1.57,0-3.15,0-4.72,0-2.87.06-5.73,0.24-8.58,0.58-1.3.2-2.59,0.43-3.88,0.62a44.32,44.32,0,0,1-4.69.52l-0.15,0c-0.1.38-.19,0.76-0.29,1.15A10.56,10.56,0,0,1,10,11.24a15.27,15.27,0,0,1-1.18,2.61,5,5,0,0,1-1.69,1.84,3.4,3.4,0,0,1-.33.29,5.32,5.32,0,0,1,0,.56A61.14,61.14,0,0,0,6.82,25.58Z" transform="translate(-2.14 -2.14)"/><path class="cls-2" d="M25,47.86A22.86,22.86,0,1,1,47.86,25.07,22.85,22.85,0,0,1,25,47.86Z" transform="translate(-2.14 -2.14)"/><path class="cls-1" d="M8.44,20.57l0.38-.15,2-.74,1.83-.7,1.3-.49,2.72-1,2.69-1,1.93-.74,2.69-1,1-.39a0.4,0.4,0,0,1,.31,0l2.09,0.8,1.88,0.74,1.85,0.7,2.66,1,1.89,0.72,1.17,0.46,1.89,0.72,1.9,0.74c0.31,0.12.62,0.23,0.93,0.37a0.16,0.16,0,0,1-.13.08l-3.1,1-2,.66-2.66.88L31,24.09l-2.35.77L26,25.73,25.28,26A0.41,0.41,0,0,1,25,26c-0.63-.21-1.26-0.43-1.9-0.62s-1.42-.46-2.13-0.68l-1.57-.51-2.07-.67-2.42-.8-2-.64-2.56-.84-1.78-.58A0.14,0.14,0,0,1,8.44,20.57Z" transform="translate(-2.14 -2.14)"/><path class="cls-1" d="M34.93,25.65q0,1.06,0,2.11c0,0.22,0,.22-0.22.22a13.24,13.24,0,0,0-2.21.21,16.84,16.84,0,0,0-2.37.56c-0.57.18-1.12,0.38-1.68,0.6a20.18,20.18,0,0,0-2.35,1.13L25.2,31a0.26,0.26,0,0,1-.32,0,14.46,14.46,0,0,0-1.69-.94c-0.56-.27-1.12-0.54-1.71-0.75s-0.92-.36-1.39-0.51a18.39,18.39,0,0,0-2.33-.6A14.93,14.93,0,0,0,15.34,28c-0.17,0-.18,0-0.18-0.19,0-.64,0-1.28,0-1.92s0-1.48,0-2.22c0-.05,0-0.1,0-0.15s0-.14.15-0.1l0.62,0.2,3.23,1.1,1.73,0.58,1.75,0.59,1.77,0.6,0.08,0a1.39,1.39,0,0,0,1.24-.08l2.83-.95,2.6-.87,3.57-1.19,0.1,0a0.06,0.06,0,0,1,.08.07c0,0.06,0,.12,0,0.17Q34.93,24.62,34.93,25.65Z" transform="translate(-2.14 -2.14)"/><path class="cls-1" d="M37.21,26.09c0,1.1,0,2.19,0,3.29a0.36,0.36,0,0,0,.15.33,0.93,0.93,0,0,1,.09,1.44c-0.06.06-.08,0.11,0,0.16a1,1,0,0,1,.32.91c0,0.4,0,.8,0,1.2s0,1,0,1.53c0,1.16,0,2.32,0,3.49,0,0,0,.06,0,0.09s0,0.16-.17.16H36c-0.15,0-.16,0-0.17-0.16s0-.06,0-0.09q0-3.16,0-6.32a1,1,0,0,1,.14-0.6,0.7,0.7,0,0,1,.16-0.18c0.07-.05.07-0.11,0-0.18a0.94,0.94,0,0,1,.12-1.47,0.25,0.25,0,0,0,.11-0.24c0-.6,0-1.21,0-1.81q0-2.29,0-4.58c0-.05,0-0.1,0-0.15a0.16,0.16,0,0,1,.13-0.17l0.58-.17a0.08,0.08,0,0,1,.11.08c0,0.06,0,.12,0,0.17Q37.21,24.45,37.21,26.09Z" transform="translate(-2.14 -2.14)"/></svg>