<svg id="Layer_1" data-name="Layer 1" xmlns="http://www.w3.org/2000/svg" viewBox="0 0 15.22 13.94"><defs><style>.cls-1{fill:#fcfcfc;}.cls-2{fill:#fbfbfb;}</style></defs><title>לב לבן</title><path class="cls-1" d="M17.27,6.12a1.57,1.57,0,0,0-.08-0.27,1.29,1.29,0,0,1-.09-0.38,0.29,0.29,0,0,1,0-.12l-0.06-.07a5.34,5.34,0,0,0-.53-0.9l0,0a1,1,0,0,1-.11-0.18l-0.08-.18-0.07-.14-0.17-.16a1.73,1.73,0,0,1-.19-0.2,0.35,0.35,0,0,1-.21-0.1l-0.22-.2-0.16-.1A2.5,2.5,0,0,1,15,3l-0.24-.15-0.23-.06-0.3-.07a0.34,0.34,0,0,1-.13-0.07,14.56,14.56,0,0,0-1.74.05,0.39,0.39,0,0,1-.22.09,0.38,0.38,0,0,1-.25.1h0l-0.11,0a2.73,2.73,0,0,0-.35.21L11,3.36l-0.14.14a0.86,0.86,0,0,1-.35.2h0l0,0-0.12.09v0a0.38,0.38,0,0,1-.11.27l-0.08.06a0.37,0.37,0,0,1-.11.26,0.38,0.38,0,0,1-.53,0,0.28,0.28,0,0,1-.08-0.12,0.28,0.28,0,0,1,0-.14L9.27,4.13A0.33,0.33,0,0,1,9.18,4,0.81,0.81,0,0,1,9,3.85a0.82,0.82,0,0,1-.26-0.28L8.58,3.43C8.45,3.34,8.31,3.27,8.17,3.19L7.74,3,7.29,2.83a4,4,0,0,0-.47-0.12l-0.36,0H6.42l-0.11,0a5.07,5.07,0,0,1-.58.06l-0.45,0L5,2.82a1.11,1.11,0,0,1-.32,0l-0.11.09a1,1,0,0,1-.13.1l-0.21.09-0.09.06-0.18.11a3,3,0,0,1-.37.2l0,0-0.07.09a0.82,0.82,0,0,1-.25.25A0.38,0.38,0,0,1,3,4.08l0,0,0,0a1.49,1.49,0,0,0-.13.24c-0.08.19-.14,0.38-0.21,0.57l0,0C2.61,5,2.54,5.15,2.48,5.28a0.76,0.76,0,0,0,0,.11c0,0.11,0,.22,0,0.33s0,0.18-.06.27,0,0.19,0,.29a2.54,2.54,0,0,1,0,.42,0.32,0.32,0,0,1-.09.16,0.3,0.3,0,0,1,0,.14,1.09,1.09,0,0,0,0,.22c0,0.15.06,0.31,0.07,0.46s0,0.26,0,.39,0.06,0.3.09,0.44S2.5,8.85,2.54,9l0,0.16a0.28,0.28,0,0,1,.09.1C2.8,9.56,3,9.83,3.07,10.12l0.06,0a2.4,2.4,0,0,1,.49.58c0.11,0.18.21,0.37,0.34,0.54s0.39,0.35.57,0.53l0.28,0.31a2.62,2.62,0,0,0,.28.26,2.38,2.38,0,0,1,.28.24l0,0h0a0.38,0.38,0,0,1,.22.17v0l0,0C5.8,13,5.93,13,6.05,13.09a1.54,1.54,0,0,1,.27.24l0.2,0.26,0.13,0.15a2.06,2.06,0,0,0,.2.17l-0.08-.06L7.2,14.16a6.26,6.26,0,0,1,.78.65c0.22,0.23.47,0.42,0.67,0.67l0,0a0.4,0.4,0,0,1,.16,0A0.38,0.38,0,0,1,9,15.8v0.07L9.14,16l0.28,0.2a1.92,1.92,0,0,0,.31.2l0.11,0a0.39,0.39,0,0,1,.08-0.12,0.38,0.38,0,0,1,.18-0.1l0,0,0.12-.1,0.22-.16,0.06-.05a1.86,1.86,0,0,1,.17-0.24,1.12,1.12,0,0,1,.24-0.16h0a0.38,0.38,0,0,1,.11-0.1h0l0-.06a1.74,1.74,0,0,1,.33-0.3l0.16-.12,0.07-.1a4.45,4.45,0,0,1,.71-0.62L12.45,14a3,3,0,0,1,.34-0.34l0.39-.33,0.26-.2,0.13-.09L13.65,13a0.93,0.93,0,0,1,.13-0.17,0.35,0.35,0,0,1,.15-0.09,0.43,0.43,0,0,1,.14-0.14l0.11,0h0a0.4,0.4,0,0,1,.17-0.22l0.08-.06A3.14,3.14,0,0,0,14.7,12c0.17-.18.34-0.37,0.53-0.53A4.77,4.77,0,0,0,15.75,11,3.73,3.73,0,0,0,16,10.51a0.38,0.38,0,0,1,.22-0.17h0v0a3.46,3.46,0,0,1,.57-1v0A0.38,0.38,0,0,1,17,9l0,0c0-.11,0-0.22.07-0.33s0.06-.33.1-0.5a0.45,0.45,0,0,1,0-.07,2.7,2.7,0,0,1,0-.5c0-.11,0-0.22,0-0.33s0-.25,0-0.38,0-.26,0-0.39S17.28,6.22,17.27,6.12Z" transform="translate(-2.13 -2.55)"/><path d="M17.34,6.36a2.1,2.1,0,0,1,0,.31c0,0.18,0,.36,0,0.54s0,0.42-.06.62A6.43,6.43,0,0,1,17,9.09a5.21,5.21,0,0,1-.34.75,6.61,6.61,0,0,1-.7,1l-0.31.35c-0.2.22-.41,0.43-0.62,0.64l-0.54.51-0.35.32-0.44.38-0.41.36-0.4.35-0.41.36L12,14.5l-0.32.29-0.43.38L11,15.43l-0.47.43-0.26.24-0.34.32a0.24,0.24,0,0,1-.34,0L9.23,16.1l-0.56-.52-0.44-.4-0.5-.44-0.45-.4L6.8,13.92l-0.4-.35-0.34-.29L5.72,13l-0.39-.34-0.26-.24-0.52-.48L4.13,11.5C4,11.35,3.82,11.18,3.68,11a7.35,7.35,0,0,1-.61-0.81,5.43,5.43,0,0,1-.45-0.85,5.78,5.78,0,0,1-.32-1c0-.18-0.07-0.37-0.1-0.56s0-.27,0-0.4,0-.34,0-0.51,0-.24,0-0.36a4.32,4.32,0,0,1,.06-0.63,4.65,4.65,0,0,1,.18-0.69,3.8,3.8,0,0,1,.39-0.8A4.07,4.07,0,0,1,3.2,3.82a3.92,3.92,0,0,1,1.2-.88A3.73,3.73,0,0,1,5,2.71l0.5-.11,0.32,0,0.39,0A4,4,0,0,1,7,2.63a4.18,4.18,0,0,1,.73.22,4.25,4.25,0,0,1,1,.6,4.77,4.77,0,0,1,.39.34,5.06,5.06,0,0,1,.59.69s0,0,.06,0A5.67,5.67,0,0,1,10.18,4a4.53,4.53,0,0,1,1.08-.87,4,4,0,0,1,1.25-.47A4.22,4.22,0,0,1,13,2.56a3.9,3.9,0,0,1,.47,0,4.44,4.44,0,0,1,1,.16A3.94,3.94,0,0,1,16,3.5a3.78,3.78,0,0,1,.66.72,4.08,4.08,0,0,1,.29.47,4,4,0,0,1,.34,1,3.79,3.79,0,0,1,.08.51C17.33,6.23,17.34,6.3,17.34,6.36Z" transform="translate(-2.13 -2.55)"/><path class="cls-2" d="M9.74,4.93a5.35,5.35,0,0,1,.4-0.57l0.22-.25,0.22-.22A4.72,4.72,0,0,1,11,3.5a4.22,4.22,0,0,1,.55-0.33,3.81,3.81,0,0,1,.87-0.31l0.36-.06,0.31,0h0.27l0.41,0a4.28,4.28,0,0,1,.51.09,3.75,3.75,0,0,1,.54.18l0.32,0.15a3.39,3.39,0,0,1,.49.31,3.56,3.56,0,0,1,.4.35,3.9,3.9,0,0,1,.41.5A3.75,3.75,0,0,1,17,5.67c0,0.13.05,0.26,0.07,0.39s0,0.14,0,.21a4.1,4.1,0,0,1,0,.5c0,0.09,0,.18,0,0.27s0,0.19,0,.28,0,0.25,0,.37S17,7.91,17,8s-0.05.27-.08,0.41a5.17,5.17,0,0,1-.17.58c0,0.14-.1.27-0.16,0.4s-0.14.29-.22,0.44-0.22.35-.33,0.52l-0.29.37L15.52,11c-0.22.26-.47,0.49-0.71,0.73L14.52,12l-0.27.24-0.41.36-0.23.21-0.29.25-0.21.18-0.29.25-0.14.12-0.3.26-0.23.2-0.3.25-0.16.14-0.35.31L11.17,15l-0.39.36-0.27.24-0.37.34-0.23.21-0.16.15s0,0,0,0l-0.21-.2L9.13,15.7l-0.2-.19-0.38-.35L8.3,14.94l-0.41-.36-0.25-.23-0.3-.26L7.19,14l-0.36-.31-0.21-.19-0.28-.24L6.13,13l-0.3-.26-0.16-.15-0.34-.3-0.17-.15-0.28-.26c-0.24-.21-0.46-0.44-0.69-0.67S4,11,3.87,10.9a7.26,7.26,0,0,1-.47-0.6C3.29,10.14,3.19,10,3.09,9.81S3,9.56,2.89,9.42a5.05,5.05,0,0,1-.26-0.7,4.92,4.92,0,0,1-.13-0.55c0-.1,0-0.21-0.06-0.31s0-.15,0-0.23,0-.2,0-0.3,0-.09,0-0.13,0-.17,0-0.26,0-.28,0-0.42,0-.26,0-0.39a4,4,0,0,1,.2-0.86,3.89,3.89,0,0,1,.3-0.64,3.7,3.7,0,0,1,.27-0.41L3.34,4l0.14-.15A4.4,4.4,0,0,1,4,3.45a3.72,3.72,0,0,1,.58-0.33,3.57,3.57,0,0,1,.59-0.21l0.4-.09,0.23,0a3.3,3.3,0,0,1,.54,0l0.42,0L7.17,2.9a3.65,3.65,0,0,1,.48.16L7.91,3.18a4,4,0,0,1,.64.4L8.87,3.86a3.82,3.82,0,0,1,.31.31,4.56,4.56,0,0,1,.39.5Z" transform="translate(-2.13 -2.55)"/></svg>