<svg id="Layer_1" data-name="Layer 1" xmlns="http://www.w3.org/2000/svg" viewBox="0 0 325.19 325.19"><defs><style>.cls-1{fill:#fefefe;}.cls-2{fill:#5c6cb2;}.cls-3{fill:#656aaf;}.cls-4{fill:#7e61a6;}.cls-5{fill:#c73481;}.cls-6{fill:#fac065;}.cls-7{fill:#f4aa56;}.cls-8{fill:#b24390;}.cls-9{fill:#8f599e;}.cls-10{fill:#fcca6d;}.cls-11{fill:#d14073;}.cls-12{fill:#c53283;}.cls-13{fill:#a15097;}.cls-14{fill:#dd4c5f;}.cls-15{fill:#ef5b40;}.cls-16{fill:#d03f74;}.cls-17{fill:#f2924c;}.cls-18{fill:#f17943;}.cls-19{fill:#d84867;}.cls-20{fill:#92599e;}.cls-21{fill:#9a549a;}.cls-22{fill:#835fa4;}.cls-23{fill:#d7466a;}.cls-24{fill:#7465aa;}.cls-25{fill:#a84a93;}.cls-26{fill:#e04f5a;}.cls-27{fill:#e65450;}.cls-28{fill:#b4408e;}.cls-29{fill:#4255a6;}.cls-30{fill:#704494;}.cls-31{fill:#f4aa57;}.cls-32{fill:#f7b85f;}.cls-33{fill:#ef5c40;}.cls-34{fill:#f17d45;}.cls-35{fill:#e53c31;}.cls-36{fill:#e8564c;}.cls-37{fill:#b1428f;}.cls-38{fill:#c13287;}.cls-39{fill:#f28347;}.cls-40{fill:#da4a64;}.cls-41{fill:#f17442;}.cls-42{fill:#d13f74;}.cls-43{fill:#e55352;}.cls-44{fill:#a54c94;}.cls-45{fill:#f3994f;}.cls-46{fill:#90589d;}.cls-47{fill:#ef5d40;}.cls-48{fill:#9d5198;}.cls-49{fill:#9c2f84;}.cls-50{fill:#c11b6c;}.cls-51{fill:#c01e75;}.cls-52{fill:#c43185;}.cls-53{fill:#a05097;}.cls-54{fill:#c9377e;}.cls-55{fill:#ef5d3f;}.cls-56{fill:#e6402f;}.cls-57{fill:#ce2656;}.cls-58{fill:#da4965;}.cls-59{fill:#d14072;}.cls-60{fill:#e35156;}.cls-61{fill:#d34270;}.cls-62{fill:#dd4c60;}.cls-63{fill:#c9367e;}.cls-64{fill:#e9574b;}</style></defs><title>3</title><path class="cls-1" d="M163,326q-79,0-158,.1c-3.43,0-4.1-.67-4.1-4.1Q1.08,163.5.9,5C0.9,1.58,1.58.9,5,.9q158.5,0.18,317,0c3.42,0,4.1.67,4.1,4.1q-0.18,158.5,0,317c0,3.42-.67,4.11-4.1,4.1Q242.5,325.89,163,326Z" transform="translate(-0.9 -0.9)"/><path class="cls-2" d="M54,13c5-2.57,10.68-2.67,16-4,3.46,1.23,6.9-.15,10.36-0.14q83.58,0.13,167.17,0c3.47,0,6.9,1.32,10.38.18,29.87,3.76,52.06,24.37,58.37,53.6,2.89,13.4,1.17,26.84,1.5,40.27-3.27,1.93-4.91-.83-6.71-2.53C295.81,86.08,279.78,72.61,262,61.31a305.74,305.74,0,0,0-120.69-45C122.81,13.54,104.24,13,85.6,13.42c-8.8.2-17.5,2.12-26.34,1.87C57.33,15.24,54.76,16.07,54,13Z" transform="translate(-0.9 -0.9)"/><path class="cls-3" d="M54,13c4.11,2,8.61,1.38,12.68.77,14.05-2.09,28.16-2.06,42.26-1.75,25.63,0.56,50.7,5,75.29,12.16a296.47,296.47,0,0,1,58.38,24.1,280.07,280.07,0,0,1,51.28,35c6.63,5.78,13.41,11.39,19.59,17.66,1.22,1.24,2.48,2.22,4.34,2q0,6,0,12c-3.71,1.5-5.48-1.51-7.41-3.49a308.09,308.09,0,0,0-32.08-28.94c-3.55-2.74-7.15-5.38-10.9-7.83a7.52,7.52,0,0,0-6.08-1.42c-3.57-1.52-4.77-5.38-7.65-7.66C242,56.36,229.12,50,213.9,49.2a4.94,4.94,0,0,1-2.81-.86,1.63,1.63,0,0,1-.34-1.31A1.55,1.55,0,0,1,212,46.6c0.07,0,0-.22-0.49-0.08a6.58,6.58,0,0,1-5.5-.24c-9.92-4.91-20.54-7.79-31.11-10.75a281.94,281.94,0,0,0-89-9.94,274.71,274.71,0,0,0-50.4,7c-2.59.61-5.81,2.29-7.58-1.65A58.82,58.82,0,0,1,54,13Z" transform="translate(-0.9 -0.9)"/><path class="cls-4" d="M27.94,30.91c1.85,1.85,4,1.08,6,.6a312.4,312.4,0,0,1,44-6.72,292.6,292.6,0,0,1,29.81-.69,272.63,272.63,0,0,1,70.3,10.78A254,254,0,0,1,202.59,43c1.69,0.67,3.53,1.08,4.37,3-1.1,1.25-2.61,1.38-4.1,1.37-19.71-.07-39.42.41-59.13-0.23-5.73-2.63-12-2.81-18-3.39a271,271,0,0,0-99,8.75c-2.57.71-5.1,1.61-7.72,2.08-1.6.29-3.73,1.13-4.11-1.74A52.69,52.69,0,0,1,27.94,30.91Z" transform="translate(-0.9 -0.9)"/><path class="cls-5" d="M317.06,260.14c-2.37,15.71-9.1,29.16-20.83,40-3.25-.26-2.55-3.05-2.8-4.86a233.84,233.84,0,0,0-7.73-35.9c-2.23-7.3-5.09-14.36-8-21.38-0.58-1.39-.54-3.62-3.6-1.61-2.12,1.39-2-1.85-2.32-3.4,4.14-16.12,2.33-32.57,2.72-48.89,0.08-3.29-.37-6.62.54-9.86,1.38-2.61,3-1.33,3.48.29,2,7.29,7.43,12.49,11.24,18.65a244.14,244.14,0,0,1,27.12,59.67A12.21,12.21,0,0,1,317.06,260.14Z" transform="translate(-0.9 -0.9)"/><path class="cls-6" d="M71,318c-7.33-1-14.6-2.13-21.13-5.92-2-2.18-2.17-4.66-1.38-7.4C52.75,290,61,278.56,74.65,271.24c3.58-1.92,7.1-.77,10.66-0.84,6.57,2.72,13.46,4.63,19.83,7.83,0.72,2.26,2.71,1.32,4.08,1.39,20.2,0.93,29.55,17.33,31.82,30.94,0.4,2.39.83,5-1.32,7-3.51,1-7.18-.13-10.7.78-7.27.29-14.53,0.13-22.33,0.06,1.17-2.65,3-2.63,4.74-2.73,3.16-.18,6.33-0.13,9.49-0.07,3.55,0.06,4.2-1.63,3.47-4.76-2.64-11.38-16.08-21-27.64-19.12-10,1.63-17.53,7-21.32,16.76-2.09,5.39-1,7,4.71,7.13,3.48,0.1,7-.46,10.42.6,0.59,0.18,1.23.51,1.35,2.22C84.93,318.31,78,319,71,318Z" transform="translate(-0.9 -0.9)"/><path class="cls-7" d="M85,271.12c-21.58,1.52-29.14,17.29-35.5,34.54-0.95,2.56,1.17,4.25.43,6.4-11.29-4.53-20.07-12.12-27-22a67.8,67.8,0,0,1,13.42-24.3c5.59-6.38,11.58-12.41,18.74-17.17,2.8-1.86,5-2.14,7.59,0A209.49,209.49,0,0,0,85,271.12Z" transform="translate(-0.9 -0.9)"/><path class="cls-8" d="M317.06,260.14c-0.59-9.23-4.78-17.39-8-25.77-7.46-19.37-17.11-37.61-30.12-53.91-1.81-2.27.55-6-2.91-7.44a5,5,0,0,1-1.47-4.07c0-6.77-.52-13.54.31-20.29,0.81-2.38,2.18-2.35,3.55-.59,12.82,16.39,26.1,32.47,35.59,51.18a40.17,40.17,0,0,1,3.81,9.72q0.06,23.18.1,46.35C317.92,256.94,318.07,258.66,317.06,260.14Z" transform="translate(-0.9 -0.9)"/><path class="cls-9" d="M14.9,52.82c1,1.53,2.17.94,3.5,0.54A291.93,291.93,0,0,1,81.68,41.75,274.94,274.94,0,0,1,138.61,44a6.47,6.47,0,0,1,4.4,2c-8.6,1.2-17.25.05-24.46,0.54,28,0,57.5,0,87,0,1.8,0,3.66-.43,5.41.43q0,0.35.06,0.71c-2.16,2.59-5.18,1.84-7.9,1.85-27.29.07-54.58,0.2-81.86,0-10.51-.1-20.53,1.43-30.11,5.77a12.66,12.66,0,0,1-4.28,1.28c-9.19-2.48-18.17.24-27.16,1.4-14.08,1.83-27.75,5.54-41.26,9.9-2.44.79-5,2.29-7.54,0.14C11.76,62.8,12.34,57.55,14.9,52.82Z" transform="translate(-0.9 -0.9)"/><path class="cls-10" d="M71,318H90.91v-1c-4.74,0-9.49-.12-14.23,0-2.86.1-3.66-1.05-3.76-3.81-0.17-4.53,2-8.26,4.39-11.46,5.48-7.44,13.17-12,22.57-11.61,9.73,0.45,17.93,4.66,23,13.56a30.56,30.56,0,0,1,3.61,9.73c0.53,2.93-.18,3.59-2.8,3.56a80.76,80.76,0,0,0-15.42.91h20.9c9.26-.62,18.49-1.71,27.79-1.34,8,0,15.93,0,23.9,0,5,0,10.09.09,15.13-.08,4.73,0.19,9.46.06,14.2,0.08,13.58,0,27.16,0,40.74,0,2.13,0,4.33-.3,6.32.83l0.65,0.72c-1.81,1.23-3.88.75-5.82,0.75q-88.11,0-176.23-.1C74.2,318.81,72.45,319.29,71,318Z" transform="translate(-0.9 -0.9)"/><path class="cls-11" d="M272.94,233.85l0.16,2c1.83-.3.94-3.37,2.75-3s2.35,2.58,3.06,4.25a214.09,214.09,0,0,1,16.17,61,6.31,6.31,0,0,0,1.15,2.06,48.92,48.92,0,0,1-18,12c-2.72-.11-1.74-2.36-1.83-3.62a187.82,187.82,0,0,0-7-40c-1.47-5-1.93-10.55-6.47-14.18a0.87,0.87,0,0,1-.21-0.43A70.63,70.63,0,0,1,272.94,233.85Z" transform="translate(-0.9 -0.9)"/><path class="cls-12" d="M10.18,136V112c0.82-4.64,4.89-5.51,8.31-6.92A204.49,204.49,0,0,1,46.87,96a16.05,16.05,0,0,0,3.82-1.09c3.36-1.81,4.54-.46,4.44,2.93-1.55,9.1-1.2,18.36-2.33,27.49a1.48,1.48,0,0,1-1,1c-11.31-1.2-20.64,4.66-30.51,8.54-2.15.85-4.25,1.86-6.45,2.57C13,138,11.19,138.29,10.18,136Z" transform="translate(-0.9 -0.9)"/><path class="cls-13" d="M317.82,209c-5.81-10.62-11.54-21.28-18.36-31.34-6-8.8-12.79-16.91-19.58-25-1.49-1.79-1.39-4.57-3.85-5.58-2.94-6-1.29-12.22-1.15-18.38,1.09-3,2.6-1.75,4-.31,11.11,11.5,22,23.17,31.08,36.43,2.9,4.24,6.47,8.09,7.86,13.22Q317.82,193.47,317.82,209Z" transform="translate(-0.9 -0.9)"/><path class="cls-14" d="M264,316.82l-6.18,1.34-0.19-.38c-4.52-.81-9.12.17-13.65-0.54-2.19-3-2-6.64-2.23-10a135,135,0,0,0-4.06-25.47,15.18,15.18,0,0,1-.48-7.36,4.85,4.85,0,0,1,2.78-3.23,61.91,61.91,0,0,0,12.78-9.11c1.05-1,2.27-2,3.95-1.28,3.44,17,8.59,33.64,8.66,51.17C265.43,313.67,266.21,315.69,264,316.82Z" transform="translate(-0.9 -0.9)"/><path class="cls-15" d="M10.17,247V225a13.26,13.26,0,0,1,5-7.72,152.69,152.69,0,0,1,27-17.69c2.82-1.43,5.61-2.76,7.49-5.54,0.93-1.37,2.37-2,3.32.25,1.07,7.73.34,15.48,0.47,23.21-0.24,1.91.09,4-1.93,5.71-2.6-3.17-5.14-1.85-8.16-.17-10.45,5.85-18.53,14.4-26.92,22.66C14.87,247.22,13.12,250.75,10.17,247Z" transform="translate(-0.9 -0.9)"/><path class="cls-16" d="M10.18,136c3.61,2.27,6.44-.62,9.14-1.88,7.5-3.51,15.34-6,23.07-8.87C45.84,124,49,123.48,52,126c2.85,6.2,1.42,12.61,1,19-0.67,1.81-2.34,2.2-3.92,2.65-11.19,3.17-21.72,7.93-32,13.29-2.08,1.08-4.22,3-6.86,1.1V136Z" transform="translate(-0.9 -0.9)"/><path class="cls-17" d="M62,248.88c-6.68-2.24-9.93,3.43-13.78,6.6a78.15,78.15,0,0,0-23,30.84c-0.56,1.35-1,2.84-2.37,3.72a56.84,56.84,0,0,1-8.71-17.12A15,15,0,0,1,16,268.32c7.72-12.25,17.1-22.94,29.14-31.14a49.47,49.47,0,0,1,4.68-2.87c2.79-1.48,4.72-.94,5.87,2.15,0.45,1.2.7,2.62,2.1,3.26C60.22,242.29,62.15,245.11,62,248.88Z" transform="translate(-0.9 -0.9)"/><path class="cls-18" d="M57.2,239.65c-1.87-1-2.07-1-2.28-1.88-1-4.3-3.35-3.51-6-1.72-9.47,6.47-18.39,13.54-25,23.09-3.21,4.62-6.48,9.2-9.72,13.79-2.85-8.4-4.9-16.93-4-25.91,2.42,1.8,3.58-.31,4.94-1.63,7.63-7.39,14.49-15.63,23.9-21,2.16-1.23,4.21-2.65,6.31-4,2.64-1.68,5-2.27,6.28,2.81l0.54-4.47a1,1,0,0,1,.46.14C54.86,225.64,57.36,232.35,57.2,239.65Z" transform="translate(-0.9 -0.9)"/><path class="cls-19" d="M10.18,162c2.13,0.19,3.8-1,5.55-1.89,9.7-5,19.5-9.8,30-12.91,2-.61,4-1.51,6.28-1.2,2.8,5.44,1.31,11.14,1.05,16.77-1,2.77-3.25,4.09-5.82,5a150.24,150.24,0,0,0-32.5,15.92c-1.38.87-2.73,2-4.57,1.33V162Z" transform="translate(-0.9 -0.9)"/><path class="cls-20" d="M317.82,178c-6.5-9-12.46-18.33-19.72-26.73-4.33-5-8.78-9.94-13.23-14.85C282,133.21,279,130.13,276,127c-2.77-4.68-1.35-9.68-1.11-14.59,1.73-3.6,3.69-1.5,5.5-.13a114,114,0,0,1,15,13.95c7.87,8.58,15.7,17.22,22.43,26.76v25Z" transform="translate(-0.9 -0.9)"/><path class="cls-21" d="M10.88,68c8.18-.75,15.61-4.33,23.45-6.36,14.14-3.66,28.51-5.77,43-7.46,2.83-.33,6.41-1.65,8.72,1.78-2.56,3.66-6.15,6-10.12,7.87-5,5.34-11.91,4.78-18.26,5.94A273.94,273.94,0,0,0,15.9,80.88c-1.83.64-3.62,1.79-5.72,1.09C10.08,77.29,9.48,72.58,10.88,68Z" transform="translate(-0.9 -0.9)"/><path class="cls-22" d="M317.82,153c-5.23-3.13-7.9-8.61-11.73-13-8.8-10.11-17.81-20-28.24-28.43A5.34,5.34,0,0,0,276,111c-2.92-5-3-10.65-3.8-16.15,1.53-3.4,3.84-3.07,6.4-1.29a108.67,108.67,0,0,1,10.26,8.6,289,289,0,0,1,29,29.81Q317.82,142.48,317.82,153Z" transform="translate(-0.9 -0.9)"/><path class="cls-23" d="M264,316.82a148,148,0,0,0-7.62-48.37c-0.9-2.78.7-5.1-.49-7.48,0.61-3.87,3.32-5.78,6.62-7.15,2.41-.74,3.7.34,4.45,2.57,5.11,15.18,9.17,30.58,10,46.68,0.16,3,.76,6,1.16,9C273.83,314.75,268.95,315.84,264,316.82Z" transform="translate(-0.9 -0.9)"/><path class="cls-24" d="M317.82,132c-4.34-1.6-6.2-5.79-9.18-8.8-9.77-9.87-19.45-19.84-30.36-28.5-1.87-1.48-3.34-1.89-5.29-.66-2.58-1.18-2.86-3.91-3.77-6.06-2.15-5.07-6-9.29-7.25-14.81,0.8-3.7,2.84-1.19,4-.57,6.59,3.5,12.22,8.4,18.06,13,9.92,7.77,18.86,16.59,27.62,25.61,1.75,1.8,3.54,3.51,6.19,3.85v17Z" transform="translate(-0.9 -0.9)"/><path class="cls-25" d="M10.18,82c14.15-6.15,29-10,44.08-12.86,4.42-.85,8.79-2.68,13.56-1.51,1.74,0.43,2.53-1.87,3.88-2.74s1.84-3.53,4.29-2.08c-2.91,5.6-8.12,9.42-11.45,14.73-1.18,1.88-2.05,4.24-4.5,5.09C43.94,84,28.77,88.89,13.94,95c-1.21.5-2.31,1.41-3.75,1V82Z" transform="translate(-0.9 -0.9)"/><path class="cls-26" d="M10.18,185c12-7.67,24.36-14.58,38-18.94A23.89,23.89,0,0,0,52,164c2.56,4.07,1.27,8.47,1.1,12.77a12.1,12.1,0,0,1-7.88,8.18,123.69,123.69,0,0,0-32.06,18.57c-0.88.69-1.66,1.68-3,1.45V185Z" transform="translate(-0.9 -0.9)"/><path class="cls-27" d="M10.18,205c1.61-2.62,4.24-4.14,6.64-5.82C26.21,192.57,36,186.64,46.94,183c2.87-.95,2.7-4.1,5.08-5a16.69,16.69,0,0,1,0,15c-4,7.23-12.28,8.29-18.33,12.59C25.39,211.5,16,216.1,10.18,225Q10.18,215,10.18,205Z" transform="translate(-0.9 -0.9)"/><path class="cls-28" d="M10.18,96C18,90.66,27,88.61,35.85,86.05c7.52-2.17,15-4.69,23-4.43a3.65,3.65,0,0,1,1.23.56,24.13,24.13,0,0,1-6,15.07,8.62,8.62,0,0,0-.28-1.95c-0.27-.71-0.69-0.15-1.11,0C42,99.37,30.54,101.12,20,105.84c-3.58,1.6-7.52,2.53-9.83,6.13Q10.18,104,10.18,96Z" transform="translate(-0.9 -0.9)"/><path class="cls-29" d="M257.95,9.12c-1.55,1.49-3.48.85-5.24,0.85Q164,10,75.26,10c-1.75,0-3.7.65-5.22-.89,3.3-.25,6.61-0.7,9.91-0.71q84.05-.07,168.1,0C251.37,8.35,254.7,8.26,257.95,9.12Z" transform="translate(-0.9 -0.9)"/><path class="cls-1" d="M54.12,97.25l6-15.07A90.93,90.93,0,0,1,76,62.76l10-6.83c11.94-6.24,24.64-8.32,38.08-8.14,27,0.37,53.94.12,80.92,0.1,2,0,4-.14,6-0.22,20.73,1,37.88,9.17,51,25.46A84,84,0,0,1,273,94l3,17,0,16v46c-0.07,11.26-.32,22.53-0.14,33.78a99.68,99.68,0,0,1-2.95,27,90.22,90.22,0,0,1-10.4,20L255.92,261c-5.29,5.34-11.55,9.33-18.08,12.94-4.33,4.42-10.4,4.44-15.77,6.25-8,2-16.14,1.15-24.23,1.28-5.61.37-11.21-.18-16.81,0-5,.43-10.1-0.31-15.15.09-11.21.28-22.42-.21-33.63,0-7.89.57-15.7-.51-23.54-1a5.85,5.85,0,0,1-3.49-1.59A108.93,108.93,0,0,1,85,271.12c-9.78-5.2-16.37-13.7-22.93-22.24l-4.85-9.23a120.32,120.32,0,0,1-5.05-20.92Q52.08,205.87,52,193q0-7.5,0-15,0-7,0-14,0-9,0-18,0-10,0-20c0.46-8-.11-16.09,1.17-24.1C53.44,100.33,53.88,98.81,54.12,97.25Z" transform="translate(-0.9 -0.9)"/><path class="cls-30" d="M210.91,47H113.28V46H214.12C213.17,47.55,211.91,46.7,210.91,47Z" transform="translate(-0.9 -0.9)"/><path class="cls-31" d="M132,280.08h34c7,0.36,9,5.29,10.75,11a106.15,106.15,0,0,1,4.13,21.46c0.32,3.51-.44,5.17-4.48,5.09-6.43-.12-12.9-0.63-19.33.33h-28c3.48-2,7.27-.42,10.87-0.93,3.13-2.31,6.74-1.24,10.13-1.3s4.79-1.64,4.36-5a56.36,56.36,0,0,0-7.61-22.44c-2.29-3.75-5.86-4.49-9.76-5C135,283.09,132.17,283.57,132,280.08Z" transform="translate(-0.9 -0.9)"/><path class="cls-32" d="M132,280.08c1.11,2.33,3.24,1.94,5.19,1.91,5.43-.06,9.35,2,11.88,7.11A63.13,63.13,0,0,1,156,312.15c0.3,3.55-.69,5.24-4.61,4.91S143.81,317,140,317c0.4-10.46-3.66-19-10.27-27-7.19-8.71-17.52-7.75-26.84-10.26,0.63-1.06,1.59-.59,2.32-0.82,6.09,1.58,12.31.76,18.47,1C126.46,280,129.24,280,132,280.08Z" transform="translate(-0.9 -0.9)"/><path class="cls-33" d="M198,280.07c8.23-.31,16.49,0,24.67-1.17,0.95-.38,2.06-0.76,2.83,0,1.14,1.05-.11,1.76-0.78,2.28-2.24,1.71-1.52,3.88-1,5.93,1.84,6.77,2.6,13.73,3.37,20.66,0.36,3.2,1.16,6.64-1.24,9.57-5.27.73-10.62-.52-15.87,0.66H196c1.11-3.29,4-2.15,6.2-2.33,4.94-.39,5.76-1.09,5.15-6.07-0.71-5.74-1.19-11.52-2.75-17.12-1.13-4.05-1.23-8.68-6.42-10.25C197.47,282,197.39,280.85,198,280.07Z" transform="translate(-0.9 -0.9)"/><path class="cls-34" d="M198,280.07a4,4,0,0,0,.52,1.32c6.12-.16,5.85,4.76,7,8.63,2,6.83,2.49,13.9,3.5,20.88,0.67,4.63-.85,6.7-5.83,6.2-2.32-.23-5-1-7.15.85l-15,0c0.87-3.34,3.73-2.24,5.71-2.21,3.79,0.05,5.32-1,5-5.15a106.9,106.9,0,0,0-4.22-22c-0.8-2.71-2-4.83-5-5.61-1.26-.33-2.59-1.1-1.5-2.88h17Z" transform="translate(-0.9 -0.9)"/><path class="cls-17" d="M181,280.07c0.31,0.55.66,1.58,0.94,1.56,5.5-.39,6,3.77,7.26,7.54,2.66,8.2,3.42,16.71,4.46,25.19,0.33,2.72-1.28,2.45-3,2.65-3.21.37-6.59-.94-9.65,0.92l-24,0c5.95-2,12.07-.63,18.11-0.82,3.87-.13,4.87-0.66,4.2-5.12-0.95-6.35-1.62-12.72-3.52-18.88-1.71-5.52-2.84-11.5-9.85-13h15Z" transform="translate(-0.9 -0.9)"/><path class="cls-35" d="M210,318c5.22-2.08,10.66-.39,16-1a23.32,23.32,0,0,1,18,0c4.55,0.49,9.2-.91,13.68.8C241.79,318.45,225.91,318.1,210,318Z" transform="translate(-0.9 -0.9)"/><path class="cls-36" d="M244,317H226a113.22,113.22,0,0,0-4.22-31.68c-1-3.53-.58-5.38,3.26-6.14l-2.35-.24,15.13-5c0.74,8.28,4,16.09,4.48,24.45C242.65,304.58,243.41,310.78,244,317Z" transform="translate(-0.9 -0.9)"/><path class="cls-37" d="M80.21,83.07A35.8,35.8,0,0,1,93,72c16,1.84,32.13,1.58,48,4.56A250.94,250.94,0,0,1,202.06,96c3.09,1.46,6.09,2.62,9.53,1.68,1.6,0.77,1.53,2.41,1.93,3.79,3,10.37,10.26,13.86,20.09,9.62a8,8,0,0,1,1.87-.62c5.43,7.17,13.43,11.35,20,17.14,1.14,1,2.24,2,2.4,3.65,0.14,6.49.06,13,0,19.44a6.28,6.28,0,0,1-.22,1.53c-2.26,2.32-3.53-.11-4.82-1.21-7.83-6.66-15.58-13.42-24.12-19.21-4.94-3.35-9.65-7-15.34-9.13-2.09-.76-3.45-2.55-5-4s-2.71-3-4.92-3.1c-5.06-3.1-10.9-4.92-15.18-9.31-5.7-3.47-12.32-3.72-18.53-5.36-16.56-4.39-33.18-8.39-50.32-9.93-10.8-1-21.6-.25-32.39-0.55-1.33,0-2.66,0-4,0-5.74-.25-6.21-1.1-3.29-5.91A2.87,2.87,0,0,0,80.21,83.07Z" transform="translate(-0.9 -0.9)"/><path class="cls-38" d="M80.21,83.07C82,85.41,78,86.21,79,88.65c0.78,0.92,2.21.35,3.41,0.31,25.23-.75,50.26.52,74.8,7.07,10.21,2.72,20.45,5.34,30.66,8.11,0.51,0.14,3.73.14,0.79,2-1.92,1.32-3.8.3-5.65-.18-4.92-1.28-10-1.67-14.91-3a18.63,18.63,0,0,0-10-.1c-9.41,1.61-18.48,4.17-26.57,9.5-1.24.82-2.63,1.49-4.22,0.83,0.29-3-1.11-3.88-4-4.28a188,188,0,0,0-46.51-.13c-1.81.2-3.6,0.65-5.37-.16-1.88-4,.79-7.37,1.4-11,0.26-1.56,1.64-2.85,1.2-4.61A28,28,0,0,1,80.21,83.07Z" transform="translate(-0.9 -0.9)"/><path class="cls-39" d="M75.78,238.12A28.28,28.28,0,0,1,71,226c0.11-7.31.63-8.17,7.89-9.44,40.29-7.06,73.83,4.73,100.27,36.15a22.78,22.78,0,0,1,1.82,2.38c1.07,1.68,2.48,3.42,1.38,5.5s-3.21,1.3-5,1.39c-2.32.12-4.66-.21-6.94,0.48-3.89,0-7.77,0-11.65,0-2.1-2.85,1-2.08,1.92-2.58,1.35-.69,3.79.67,4.2-1.48,0.32-1.67-1.6-2.77-2.78-3.89-15-14.26-32.58-23-53.4-25.44-9.61-1.12-18.83.06-28.15,1.66-2.79.48-4.88,1.19-3.23,4.77C77.81,236.57,78,238.29,75.78,238.12Z" transform="translate(-0.9 -0.9)"/><path class="cls-40" d="M254.14,234.32a40,40,0,0,1-14.06,17.89c-2.49,1.48-4.31.88-5.63-1.7A191.83,191.83,0,0,0,207.86,212a5.38,5.38,0,0,1-1.67-4c1.46-5.28,6.21-8.33,8.76-12.92,1.29-2.32,1.91-5.36,4.88-6.51,5.2,1.78,7.57,6.72,11,10.33,8.91,9.37,15.83,20.29,22.67,31.23A6,6,0,0,1,254.14,234.32Z" transform="translate(-0.9 -0.9)"/><path class="cls-41" d="M171,261.94c2.37-1.86,5.13-.75,7.7-0.9,3.13-.18,4-1,2-3.88a91.39,91.39,0,0,0-19.93-20.65c-21.06-16.33-45.16-22.18-71.4-20.47-2.46.16-4.89,0.75-7.34,1.1-5.45.77-10.75,1.71-11.12,8.86-1.75-2.81-1.74-6.1-1.75-9.13-0.12-24.91,0-49.83,0-74.74a1.27,1.27,0,0,1,1.5.76c1.36,7.94.27,15.95,0.64,23.91-0.42,15.32.94,30.69-1,46,0.26-1.51,0-3.05.26-4.56,2-2.3,4.93-1.64,7.44-2.21,12.13-2.72,24.36-2.79,36.69-1.46,3.85,0.41,5.87,3.66,9.24,4.57,4.16,1.79,7.34,5.09,11.35,7.19,8.87,4.64,18.09,7.57,28.19,7.38a6.57,6.57,0,0,1,4.3,1c-0.89,4.1-4,.49-5.24,1.72a12.62,12.62,0,0,1,7.49,2.54c9.74,7.25,17.25,16.49,23.75,26.59,3.11,4.84,2.17,6.39-3.54,6.45a29.83,29.83,0,0,0-6.43.51C179.59,262.22,175.27,263.07,171,261.94Z" transform="translate(-0.9 -0.9)"/><path class="cls-42" d="M254.14,234.32a180.91,180.91,0,0,0-13.95-22,182,182,0,0,0-20.56-23.43,2.81,2.81,0,0,1-.43-2.37c3.22-8.94,4.36-18.25,5-27.65,2-2.45,2.74-.12,2.69,1.09-0.12,3,1.76,3.71,3.89,4.89,5.48,3,9.54,7.82,13.57,12.41,4.47,5.09,9.66,9.52,13.59,15.1,0.25,9.56-.07,19.1.15,28.65A27.36,27.36,0,0,1,254.14,234.32Z" transform="translate(-0.9 -0.9)"/><path class="cls-31" d="M171,261.94l14,0c9-.78,18-2.14,27-1.53,1.8,0.12,3.68.09,4.95,1.75-2.19,1.12-4.56.78-6.86,0.78-30.76,0-61.52.12-92.28-.19-16-.16-29.26-6.61-38.85-19.81,0.75-2.75,3.13-3.32,5.4-3.77,23.85-4.66,45.18,1.15,64.39,15.64a8.61,8.61,0,0,1,2.66,2.95c1.14,2.29,1,3.74-2.17,3.71-8.75-.08-17.5,0-26.26,0,8.65,0,17.31-.1,26,0.07,3,0.06,6.17-2.35,9.07.37H171Z" transform="translate(-0.9 -0.9)"/><path class="cls-43" d="M206.82,207.51c1.89,5.7,6.61,9.39,10.22,13.75,7.13,8.6,12.6,18.17,17.89,27.87,1.29,2.36,2.56,3.5,5.15,3.08-5.56,4.65-11.7,8.09-19,9-4.54.39-7.09-2.07-9-5.88-5.55-10.86-13.1-20.32-21.3-29.24-1.89-2.05-1.85-4.18-2-6.51,2.79-3.92,7.84-4.57,11.17-7.75C201.87,209.93,203.64,207.51,206.82,207.51Z" transform="translate(-0.9 -0.9)"/><path class="cls-44" d="M212.14,98c-2.1,2.34-4.42,2.37-7.13,1-19.34-9.8-39.83-16.25-61-20.46-10.51-2.09-21.15-3.76-31.93-3.52-5.33.12-10.49-1.69-15.82-1.06-1.6.19-2.2-1.3-3.26-2,6.45-4.58,13.81-6.59,21.54-7,6.48-.33,13,0,19.48,0,5.21,1.43,10.7-.42,16.55,1.14-2.3,2.5-4.49,1.81-6.64,1.51a242.72,242.72,0,0,1,65,21.34c2.14,1.07,4.71-.23,6.5,1.7C214.9,93.42,215.11,96.43,212.14,98Z" transform="translate(-0.9 -0.9)"/><path class="cls-45" d="M158.08,261.95H120.21v-0.81H151c0.37-2.67-1.12-3.76-2.57-4.88-15.41-11.86-32.81-17.93-52.27-17.12-5.81.24-12,.22-17.16,3.85a13.88,13.88,0,0,1-3.26-4.86,1.54,1.54,0,0,0,.49-2.51c-2.6-3.82-1.19-5,3-5.93,29.13-6.32,55.05,0,78,19a92.06,92.06,0,0,1,8.48,7.65c1,1.07,2.28,2.37,1.63,3.88s-2.37.61-3.62,0.81C161.87,261.3,159.74,260.26,158.08,261.95Z" transform="translate(-0.9 -0.9)"/><path class="cls-46" d="M174,65c15.42,0.07,30.95-1.67,46.23,1,19.94,3.45,37,22.36,37.87,41-0.7.67-.29,1.95-1.33,2.43-5.06.29-7.58-4.21-11.47-6.16a17,17,0,0,1-4.89-4.15c-2.18-4.84-4.4-9.64-10.12-11.34-2.72-.81-5.59-0.19-8.31-1-12.66-5.52-25-11.67-38-16.51-2-.75-3.92-1.75-6-2.35C176.36,67.51,174.12,67.59,174,65Z" transform="translate(-0.9 -0.9)"/><path class="cls-47" d="M188.89,220c4.36,9.48,13.2,15.64,18.21,24.64,1.21,2.16,2.7,4.17,3.85,6.36,2.35,4.44,4.45,9.06,10.09,10.22a6,6,0,0,1-4,1L185,262c2.19-1.88,4.8-.79,7.2-0.93,2.56-.15,2.93-1.22,1.71-3.12-7.43-11.5-15.79-22.15-27.34-29.92-1.46-1-3.11-.87-5.06-1.29,2.3-1.46,4.76.18,6.47-1.56A66.11,66.11,0,0,1,188.89,220Z" transform="translate(-0.9 -0.9)"/><path class="cls-48" d="M174,65c9.1,3.64,18.29,7.08,27.27,11,7.06,3.09,13.87,6.78,20.78,10.2a10.76,10.76,0,0,1-7,5c-6.15,1.1-10.52-3.21-15.52-5.34A287.26,287.26,0,0,0,145.06,69a4.29,4.29,0,0,1-3.28-1.78l8.42-.55C144,65,138.78,67.43,134,65h40Z" transform="translate(-0.9 -0.9)"/><path class="cls-49" d="M257,109a2.07,2.07,0,0,1,1.1-2,17.5,17.5,0,0,1,.67,3.4q0,37.72,0,75.44c-2.65-.79-2.08-3.1-2.07-4.91,0-9.65-.41-19.31.34-28.95l0-22C254.65,123,254.36,116,257,109Z" transform="translate(-0.9 -0.9)"/><path class="cls-50" d="M257,152c1.67,1.66.86,3.77,1,5.68,0.51,9.39-.81,18.82.77,28.18,0,11.73,1.07,23.47-.68,35.17-1.71-1.43-1-3.39-1-5.13C257,207.59,257,199.3,257,191a7.43,7.43,0,0,1-1.55-5.11c-0.08-9.27-.1-18.54,0-27.81,0-1.81,0-3.68,1.55-5.06v-1Z" transform="translate(-0.9 -0.9)"/><path class="cls-51" d="M70,142.08H69.63l-0.36.05c0-12.13-1-24.28.66-36.38A32.74,32.74,0,0,1,74.08,93c2.1,3.35-1.64,5.66-1.59,8.74,0,2.07-.93,4.15-1.45,6.23,2.8,5.44,1.28,11.16,1.09,16.8-1.24,3.68-.53,7.49-0.74,11.24C71.26,138.13,71.77,140.37,70,142.08Z" transform="translate(-0.9 -0.9)"/><path class="cls-1" d="M188.89,220a82,82,0,0,1-20.89,5.2c-16.6.63-31.24-4.52-44.07-15-5.9-3.32-9.88-8.48-13.21-14.17a83,83,0,0,1-5-10.21c-2.06-5.24-2.93-10.76-3.92-16.26a63.86,63.86,0,0,1,2-22.63,84.07,84.07,0,0,1,7-16.14,72.65,72.65,0,0,1,11.5-14.22,12.57,12.57,0,0,1,5.88-3.47A66,66,0,0,1,158,101.84a30,30,0,0,1,9.92,0l20.72,4.3A118.93,118.93,0,0,1,204,114.89c8.2,4.8,13.32,12.16,17.13,20.61A67.3,67.3,0,0,1,226,154.3a4.19,4.19,0,0,1-.84,3.76,76.21,76.21,0,0,1-5.56,30.83,85.1,85.1,0,0,1-12.82,18.63A87.19,87.19,0,0,1,188.89,220Z" transform="translate(-0.9 -0.9)"/><path class="cls-52" d="M225.19,158.05c-1.48-17.12-7.64-31.94-21.16-43.16a1.26,1.26,0,0,1,2.11-.17c9.24,9.43,22.19,13.51,31.93,22.26,6.15,5.52,12.61,10.7,18.93,16q0,19,0,38c-4-1-6.06-4.54-8.58-7.25-6.61-7.12-12.25-15.19-21.5-19.47C224.58,163.21,227.08,159.81,225.19,158.05Z" transform="translate(-0.9 -0.9)"/><path class="cls-1" d="M215.08,91.24c2.23-1.8,4.1-4.11,7-5,11-1.14,16,2.18,18.95,12.78,1.66,4.9,0,9-5,12-12.16,7.55-23.2,1.55-23.92-13C213.46,95.92,213,93,215.08,91.24Z" transform="translate(-0.9 -0.9)"/><path class="cls-53" d="M236.06,111a18.06,18.06,0,0,0,5-12c5.67,2.79,9.82,8,16,10q0,10.48,0,21c-6.13-4.63-12.18-9.37-18.45-13.81A5.71,5.71,0,0,1,236.06,111Z" transform="translate(-0.9 -0.9)"/><path class="cls-54" d="M128.14,113.07A76.29,76.29,0,0,0,111.88,131a2.75,2.75,0,0,1-.47-0.05c-0.29-5.64-4.58-5.22-8.33-5.4-8.1-.4-16.1,1-24.15,1.48-2.62.17-5.24,0.84-7.74-.55A1,1,0,0,1,71,125q0-8.5,0-17c11.82-1.14,23.63-2.7,35.52-1.92,7.83,0.52,15.75.73,23.34,2.7C130.55,110.92,126.43,110.69,128.14,113.07Z" transform="translate(-0.9 -0.9)"/><path class="cls-37" d="M168,101.86l-9.92,0A12.39,12.39,0,0,1,168,101.86Z" transform="translate(-0.9 -0.9)"/><path class="cls-55" d="M107,186a72,72,0,0,0,17,24.16,1.15,1.15,0,0,1-1.72.35c-9-8-19.83-5-30.1-5C85,205.47,78.18,208.17,71,208c-1.11-4.48-.25-9-0.46-13.54,1.05-2.31,3.29-2.59,5.37-3a83.46,83.46,0,0,1,19.67-1.91C99.82,189.75,104,190,107,186Z" transform="translate(-0.9 -0.9)"/><path class="cls-56" d="M71,194q0,7,0,14,0,4.41,0,8.82h-1V167.13a1,1,0,0,1,1.5.31c1.2,2.28.81,4.74,0.88,7.16,0.24,4.77.11,9.53,0.09,14.3A7.32,7.32,0,0,1,71,194Z" transform="translate(-0.9 -0.9)"/><path class="cls-57" d="M71,167a3.7,3.7,0,0,0-.92.14q0-12.52-.05-25c0.53-5.68-1.14-11.49,1-17.08l0,1c1.92,2.23,1.53,5,1.54,7.57,0,5.11.13,10.23-.1,15.34,0.25,4.32.13,8.64,0.06,13C72.5,163.72,72.48,165.59,71,167Z" transform="translate(-0.9 -0.9)"/><path class="cls-58" d="M123.91,162a31.89,31.89,0,0,1,4.78-18.1c1.83-1.34,3.77-.81,5.73-0.4a184.64,184.64,0,0,1,62.15,25.67c2.34,1.5,4.81,2.91,5.62,5.88-1,6-4.06,10.84-8.1,15.18-2.81,1.95-5.35,1.57-8.17-.35A154.42,154.42,0,0,0,129.87,166C127.32,165.46,125.15,164.43,123.91,162Z" transform="translate(-0.9 -0.9)"/><path class="cls-59" d="M202.2,175c-13.07-10.25-27.79-17.44-43.27-23.16a147.61,147.61,0,0,0-30.23-8c3.27-7.07,8.57-12.23,15.17-16.17,6.16-1.63,11.3,1.94,16.71,3.56,13.77,4.13,26.43,10.9,39.14,17.52a5.08,5.08,0,0,1,2.77,3.28c0.27,0.94.16-.7,0.66-0.39C205,159.56,205.2,167.36,202.2,175Z" transform="translate(-0.9 -0.9)"/><path class="cls-60" d="M123.91,162c5.27,3.92,11.85,3.87,17.8,5.61a165.63,165.63,0,0,1,43.07,19.91c2.91,1.87,5.48,4.3,9.32,2.72A32.9,32.9,0,0,1,177,202a21,21,0,0,1-7.18-2.81c-11.7-6.52-23.49-12.93-37-15a5.36,5.36,0,0,1-4.2-3c-0.92-1.64-.94-3.78-2.72-4.94C123.54,171.74,123.57,166.88,123.91,162Z" transform="translate(-0.9 -0.9)"/><path class="cls-61" d="M71,149q0-11.48,0-23c7.59-.56,15.18-1,22.75-1.87a61.61,61.61,0,0,1,19.29,1.22c1.38,2.18-3.17,3.2-1.17,5.59l-6.72,15.1a7.48,7.48,0,0,1-5.76,2.37,183.27,183.27,0,0,0-25.11,1.29A4.09,4.09,0,0,1,71,149Z" transform="translate(-0.9 -0.9)"/><path class="cls-62" d="M71,149a97.42,97.42,0,0,1,24.41-2,30.45,30.45,0,0,0,9.74-.95A91.86,91.86,0,0,0,103,170c-1.29,2.59-3.8,3.21-6.25,3.26a151.61,151.61,0,0,0-21.14,1.92A5.38,5.38,0,0,1,71,174q0-3.52,0-7Q71,158,71,149Z" transform="translate(-0.9 -0.9)"/><path class="cls-36" d="M71,174c10.61-1.9,21.59-.77,32-4L107,186c0.12,5.6-3.77,5.16-7.5,5A98.54,98.54,0,0,0,71,194Q71,184,71,174Z" transform="translate(-0.9 -0.9)"/><path class="cls-63" d="M203.14,151.68l-0.35,3.39c0-3.82-2.79-4.63-5.55-6.09-11.3-6-22.71-11.72-34.87-15.79-6.1-2-12.15-4.29-18.51-5.48,14.43-8.35,37.19-5.92,49.26,5.22C198.65,138,201.3,144.64,203.14,151.68Z" transform="translate(-0.9 -0.9)"/><path class="cls-64" d="M125.88,176.27c0.33-.43.85-2.18,1.06-0.93,1.18,7.23,6.74,7.58,12.18,8.9,12.31,3,23.33,9.05,34.11,15.53,1.25,0.75,2.51,1.47,3.77,2.2a40.42,40.42,0,0,1-50.81-23.27A9.63,9.63,0,0,1,125.88,176.27Z" transform="translate(-0.9 -0.9)"/></svg>