<svg id="Layer_1" data-name="Layer 1" xmlns="http://www.w3.org/2000/svg" viewBox="0 0 16.96 16.96"><defs><style>.cls-1{fill:#fefefe;}.cls-2{fill:#868686;}</style></defs><title>חץ שמאלה</title><path class="cls-1" d="M13.87,15.68c0.33-.91.73-1.8,1-2.71a18.5,18.5,0,0,0,.73-6.55,4.31,4.31,0,0,1,.09-0.93h0c-3-2.2-6.36-1.81-9.47-.19l-0.34.18c0,0.09-.08.19-0.11,0.28A17.93,17.93,0,0,0,5.08,9a15,15,0,0,0,0,3.27,13.36,13.36,0,0,1,.25,1.9L5.8,14.29A23.23,23.23,0,0,1,8.62,15a10.56,10.56,0,0,1,1.37.64,20.49,20.49,0,0,1,3.67.54C13.73,16,13.81,15.85,13.87,15.68Z" transform="translate(-1.52 -1.52)"/><path class="cls-2" d="M18.48,10A8.48,8.48,0,1,1,10,1.52,8.5,8.5,0,0,1,18.48,10Z" transform="translate(-1.52 -1.52)"/><path class="cls-1" d="M11.64,15.64a1.12,1.12,0,0,0-.09-0.12l-3.8-3.8L6.09,10.07C6,10,6,10,6.09,9.88L11.5,4.47c0.09-.09.13-0.08,0.21,0Q12.35,5.12,13,5.75c0.09,0.09.08,0.13,0,.21L9.08,9.86C9,10,9,10,9.08,10.11L13,14c0.1,0.1.1,0.16,0,.25l-1.26,1.25Z" transform="translate(-1.52 -1.52)"/></svg>