<svg id="Layer_1" data-name="Layer 1" xmlns="http://www.w3.org/2000/svg" viewBox="0 0 45.71 45.71"><defs><style>.cls-1{fill:#fff;}.cls-2{fill:#fcaf17;}</style></defs><title>סימן קריאה</title><path class="cls-1" d="M16.71,8.05a48.08,48.08,0,0,1-2.55,6.22c-0.25.68-.48,1.37-0.68,2.07s-0.22,1.19-.31,1.78a87.25,87.25,0,0,0-.64,9,77.76,77.76,0,0,0,.29,9.1,16.48,16.48,0,0,0,.51,2.06,17.08,17.08,0,0,0,1.09,1.78l1.12,1.33c0.3,0.36.61,0.72,0.94,1.06l1.11,0.23,1.91,0.37a43.53,43.53,0,0,0,7.94,0c2-.18,4-0.36,6-0.6a21.79,21.79,0,0,0,3.3-.77l0.52-.3,0.15-.15c0.91-1.52,1.48-3.21,2.31-4.78l0.14-.26a6.61,6.61,0,0,1-.69-1.48,6.67,6.67,0,0,1-.76-3.41c-0.19-4,.24-8-0.1-12a22.5,22.5,0,0,0-.92-3.43,22.7,22.7,0,0,0-1.75-3A41.52,41.52,0,0,0,32,9.25a25.59,25.59,0,0,1-2-2L29.4,6.55C29,6.46,28.65,6.38,28.27,6.31a32.88,32.88,0,0,0-7.42.15A8.87,8.87,0,0,1,18.12,6a6.49,6.49,0,0,1-1.1.28A6.92,6.92,0,0,1,16.71,8.05Z" transform="translate(-2.14 -2.14)"/><path class="cls-2" d="M25,47.86A22.86,22.86,0,1,1,47.86,25.1,22.85,22.85,0,0,1,25,47.86Z" transform="translate(-2.14 -2.14)"/><path class="cls-1" d="M23.43,12.37a11.65,11.65,0,0,1,4.18.66,10.81,10.81,0,0,1,1.27.57,0.2,0.2,0,0,1,.12.24c-0.12.86-.23,1.71-0.34,2.57s-0.25,1.88-.37,2.83C28.19,20,28.1,20.68,28,21.4l-0.29,2.18-0.28,2.14-0.29,2.2c0,0.25-.08.5-0.1,0.76a0.18,0.18,0,0,1-.17.19,4.48,4.48,0,0,1-.84.13,6.77,6.77,0,0,1-2.35-.21c-0.3-.09-0.3-0.09-0.32-0.41-0.06-.83-0.13-1.65-0.2-2.47,0-.44-0.07-0.88-0.1-1.32-0.07-.84-0.14-1.68-0.2-2.52-0.05-.64-0.1-1.29-0.15-1.93-0.07-.82-0.13-1.64-0.2-2.45,0-.46-0.07-0.93-0.11-1.39-0.07-.82-0.13-1.64-0.2-2.45,0-.41-0.06-0.83-0.1-1.24a0.12,0.12,0,0,1,.14-0.16C22.69,12.37,23.12,12.38,23.43,12.37Z" transform="translate(-2.14 -2.14)"/><path class="cls-1" d="M25,37.9a13,13,0,0,1-2.38-.22c-0.18,0-.18,0-0.17-0.22l0.26-3.23c0-.56.09-1.11,0.13-1.67A0.2,0.2,0,0,1,23,32.34,8.41,8.41,0,0,1,25.77,32a7.23,7.23,0,0,1,1.88.33c0.17,0.05.17,0.05,0.18,0.24,0,0.78.06,1.55,0.1,2.33S28,36.41,28,37.18c0,0,0,.06,0,0.09,0,0.19,0,.19-0.17.24a9.57,9.57,0,0,1-1.17.26A10.52,10.52,0,0,1,25,37.9Z" transform="translate(-2.14 -2.14)"/></svg>