<svg id="Layer_1" data-name="Layer 1" xmlns="http://www.w3.org/2000/svg" viewBox="0 0 17.82 17.14"><defs><style>.cls-1{fill:#fdfdfd;}.cls-2{fill:#fefefe;}</style></defs><title>כף רגל</title><path class="cls-1" d="M5,5.79a0.4,0.4,0,0,1,.14.28s0,0,0,0l0,0.1,0,0s0.07,0.11,0,0h0l0,0a0.44,0.44,0,0,1,.08.46L5.36,6.79a2,2,0,0,1,.35.77h0a0.28,0.28,0,0,1,.19.14A1.93,1.93,0,0,0,8.63,8a3.64,3.64,0,0,0,.78-2.55A0.28,0.28,0,0,1,9.5,5.24,0.28,0.28,0,0,1,9.4,5c0-.48,0-1,0-1.45a0.27,0.27,0,0,1-.15-0.19A1.85,1.85,0,0,0,7.71,2.08a3.05,3.05,0,0,0-1.85.39,4.6,4.6,0,0,1-.64,1.15,0.9,0.9,0,0,1-.07.53,0.58,0.58,0,0,1,0,.16l0,0.12V4.48c0,0.09,0,.31,0,0.45a0.7,0.7,0,0,1,0,.21c0,0.07,0,.14,0,0.22A0.87,0.87,0,0,1,5,5.79Z" transform="translate(-0.84 -1.43)"/><path class="cls-1" d="M14.88,11.32a3.25,3.25,0,0,0,.74.34,2,2,0,0,0,1-.11,0.3,0.3,0,0,1,.12-0.14c1.13-.75,1.33-2,1.71-3.2a0.31,0.31,0,0,1,0-.09,0.31,0.31,0,0,1,0-.09c0-1,0-2.27-1.14-2.64a1.84,1.84,0,0,0-2.32.7,0.29,0.29,0,0,1-.34.13,2.28,2.28,0,0,1-.2.45l-0.06.07a0.33,0.33,0,0,1,0,.06,2.23,2.23,0,0,1-.31.76,0.27,0.27,0,0,1,0,.24C13.83,8.9,13.76,10.65,14.88,11.32Z" transform="translate(-0.84 -1.43)"/><path class="cls-1" d="M5.45,8.48a0.26,0.26,0,0,1,0-.16,2.15,2.15,0,0,1-.17-0.24,6,6,0,0,0-.38-0.88A0.29,0.29,0,0,1,4.86,7a0.34,0.34,0,0,1-.23-0.12,1.4,1.4,0,0,1-.25-0.5,0.45,0.45,0,0,1,0-.1,0.75,0.75,0,0,1-.6-0.37,0.6,0.6,0,0,1-.56-0.22C3.34,5.83,3.1,5.75,3,5.76l-0.25,0a2.93,2.93,0,0,0-.92.34A2.14,2.14,0,0,0,1,7.87,0.79,0.79,0,0,1,.94,8C1,8.27,1,8.56,1,8.86L1.16,9.07a1,1,0,0,1,.09.76,2.85,2.85,0,0,0,.47.95,0.32,0.32,0,0,1,0,.09,3.75,3.75,0,0,0,1.31,1.18,1.84,1.84,0,0,0,2.22-.81l0.08-.08a0.86,0.86,0,0,1,0-.28,4.15,4.15,0,0,0,.21-1.22C5.63,9.27,5.47,8.89,5.45,8.48Z" transform="translate(-0.84 -1.43)"/><path class="cls-1" d="M4,16.71a2.29,2.29,0,0,1,.17.4h0a7.46,7.46,0,0,0,3.78,1.25,27,27,0,0,0,3.86,0A0.28,0.28,0,0,1,12,18.3a8.43,8.43,0,0,0,1.83-.41c0.24-.06.6-0.09,0.92-0.17a0.3,0.3,0,0,1,.12-0.17,1.38,1.38,0,0,1,.68-0.33,0.3,0.3,0,0,1,.29-0.28A1.84,1.84,0,0,0,16.42,16a7.39,7.39,0,0,0,.2-1.19,0.29,0.29,0,0,1-.16-0.18A8.22,8.22,0,0,0,16,13.17a4.47,4.47,0,0,0-.91-0.91,0.26,0.26,0,0,1-.1-0.2l-0.25-.12a2.39,2.39,0,0,1-.86-0.72,0.27,0.27,0,0,1-.3-0.14,1.82,1.82,0,0,0-.5-0.4,4,4,0,0,1-.44-0.4c-0.14-.15-0.24-0.33-0.37-0.48a1.56,1.56,0,0,0-.59-0.33,0.3,0.3,0,0,1-.2-0.24,5.64,5.64,0,0,0-1.34-.34A9.1,9.1,0,0,0,8.8,9H8.75a0.3,0.3,0,0,1-.1.09c-0.29.16-.52,0.39-0.79,0.58a3.33,3.33,0,0,0-.69.73c-0.25.3-.52,0.55-0.75,0.87a1,1,0,0,1-.5.48h0a0.29,0.29,0,0,1-.13.22c-0.19.13-.32,0.32-0.5,0.47s-0.32.21-.46,0.34a6.62,6.62,0,0,1-.48.45l-0.08.06a0.3,0.3,0,0,1-.13.25,0.3,0.3,0,0,1,0,.09,1.06,1.06,0,0,1-.18.22,0.33,0.33,0,0,1,0,.07,4.43,4.43,0,0,0,0,2.66A0.27,0.27,0,0,1,4,16.71Z" transform="translate(-0.84 -1.43)"/><path class="cls-1" d="M11.94,1.62l-0.68.23L11,1.92a2.23,2.23,0,0,0-.44.32,0.3,0.3,0,0,1-.13.07,2.16,2.16,0,0,1-.14.3,1.86,1.86,0,0,0-.22.33,3.45,3.45,0,0,0-.07.38,0.31,0.31,0,0,1,0,.08v0C10,4,10,4.49,10,5a0.28,0.28,0,0,1-.08.21,0.27,0.27,0,0,1,.09.22c0,0.16,0,.33,0,0.49a0.27,0.27,0,0,1,.13.18,2.48,2.48,0,0,0,1.69,1.76,1.59,1.59,0,0,0,2-1.25,0.27,0.27,0,0,1,.08-0.15,0.3,0.3,0,0,1,0-.12,4.6,4.6,0,0,0-.28-3.84A1.79,1.79,0,0,0,11.94,1.62Z" transform="translate(-0.84 -1.43)"/><path d="M10.09,18.57c-0.45,0-.9,0-1.35-0.05s-0.77,0-1.15-.07a9.5,9.5,0,0,1-1.22-.17A6.48,6.48,0,0,1,5.45,18a2.89,2.89,0,0,1-1.74-1.46,3,3,0,0,1-.26-1,3.4,3.4,0,0,1,.1-1.23,2.74,2.74,0,0,1,.55-1,11.67,11.67,0,0,1,1.5-1.37,4.82,4.82,0,0,0,.61-0.63c0.14-.17.25-0.35,0.39-0.52A7.29,7.29,0,0,1,8.05,9.36a3.14,3.14,0,0,1,2.17-.65A3.31,3.31,0,0,1,11.31,9a5.31,5.31,0,0,1,1.25.84,9.51,9.51,0,0,1,.9.88,5.78,5.78,0,0,0,.91.78c0.37,0.28.75,0.53,1.1,0.83a3.18,3.18,0,0,1,1.15,2,3.6,3.6,0,0,1-.11,1.72,2.7,2.7,0,0,1-.63,1,3.87,3.87,0,0,1-1.44.86,5.9,5.9,0,0,1-1.1.3c-0.44.09-.88,0.15-1.32,0.21s-1.07.08-1.6,0.15A2.45,2.45,0,0,1,10.09,18.57Z" transform="translate(-0.84 -1.43)"/><path d="M13.81,9a5.41,5.41,0,0,1,.45-2.14A3.63,3.63,0,0,1,15,5.78a2.12,2.12,0,0,1,1-.58,2.24,2.24,0,0,1,1.82.33,2,2,0,0,1,.69,1,3.82,3.82,0,0,1,.13,1.61A6.05,6.05,0,0,1,18.08,10a4.39,4.39,0,0,1-.83,1.17,2.07,2.07,0,0,1-1,.58,1.7,1.7,0,0,1-1.12-.14A2.12,2.12,0,0,1,14,10.26,3.86,3.86,0,0,1,13.81,9Z" transform="translate(-0.84 -1.43)"/><path d="M0.85,8.1a2.44,2.44,0,0,1,.15-1A2.12,2.12,0,0,1,2.36,5.73a1.87,1.87,0,0,1,1.44.07,2.58,2.58,0,0,1,1,.81,5.14,5.14,0,0,1,.92,2.2A4.59,4.59,0,0,1,5.77,10a3.31,3.31,0,0,1-.33,1.34,1.76,1.76,0,0,1-1.07.9A1.89,1.89,0,0,1,2.77,12a3.34,3.34,0,0,1-1.06-1A5.42,5.42,0,0,1,.86,8.57,4.51,4.51,0,0,1,.85,8.1Z" transform="translate(-0.84 -1.43)"/><path d="M7.25,1.84a1.9,1.9,0,0,1,1.45.61A3.42,3.42,0,0,1,9.51,4a4.87,4.87,0,0,1,.16,1.23,6,6,0,0,1-.07.92,4.52,4.52,0,0,1-.32,1.07,2.57,2.57,0,0,1-.59.81,1.8,1.8,0,0,1-1.19.5,1.8,1.8,0,0,1-1-.23,3,3,0,0,1-1.35-2A5.1,5.1,0,0,1,5,4.84a4.92,4.92,0,0,1,.3-1.53,2.37,2.37,0,0,1,.65-1,1.75,1.75,0,0,1,.87-0.44A2.44,2.44,0,0,1,7.25,1.84Z" transform="translate(-0.84 -1.43)"/><path d="M14.46,4.91a4.87,4.87,0,0,1-.28,1.65A2.49,2.49,0,0,1,13.3,7.8a1.82,1.82,0,0,1-1.45.31,2.28,2.28,0,0,1-1.61-1.36,4.76,4.76,0,0,1-.48-1.89,5.13,5.13,0,0,1,.13-1.5A2.86,2.86,0,0,1,10.6,2a1.8,1.8,0,0,1,.89-0.5,2.2,2.2,0,0,1,.75-0.09,1.86,1.86,0,0,1,.72.2,2.8,2.8,0,0,1,1.32,1.86A5.18,5.18,0,0,1,14.46,4.91Z" transform="translate(-0.84 -1.43)"/><path class="cls-2" d="M16.37,15a2.4,2.4,0,0,1-.76,1.87,3.39,3.39,0,0,1-1.15.69,11.51,11.51,0,0,1-2.87.58c-0.46,0-.92.1-1.38,0.11s-0.74,0-1.1,0c-0.59,0-1.17,0-1.76-.11a6.82,6.82,0,0,1-2.11-.49A2.3,2.3,0,0,1,3.82,16a2.82,2.82,0,0,1,.29-2.16A3.92,3.92,0,0,1,5,12.89C5.31,12.59,5.68,12.3,6,12a4.52,4.52,0,0,0,.52-0.59A7.8,7.8,0,0,1,8.16,9.67,2.9,2.9,0,0,1,10,9a3,3,0,0,1,1.36.41A6.39,6.39,0,0,1,13,10.75a10.39,10.39,0,0,0,1.68,1.4,5.17,5.17,0,0,1,1,.93,2.88,2.88,0,0,1,.6,1.66C16.37,14.83,16.37,14.91,16.37,15Z" transform="translate(-0.84 -1.43)"/><path class="cls-2" d="M18.36,7.64a5.38,5.38,0,0,1-.55,2.25A3.78,3.78,0,0,1,17.05,11a1.55,1.55,0,0,1-1.76.43,1.73,1.73,0,0,1-1-1.1,4,4,0,0,1-.16-1.79,4.52,4.52,0,0,1,.66-1.94,2.18,2.18,0,0,1,1.29-1,1.68,1.68,0,0,1,2.13,1.18,3,3,0,0,1,.1.49C18.34,7.34,18.35,7.5,18.36,7.64Z" transform="translate(-0.84 -1.43)"/><path class="cls-2" d="M5.46,9.77a3.12,3.12,0,0,1-.26,1.32A1.48,1.48,0,0,1,3.61,12a2.08,2.08,0,0,1-1.3-.75A4.55,4.55,0,0,1,1.22,8.92a3.6,3.6,0,0,1,0-1.51A1.86,1.86,0,0,1,2.82,5.95a1.6,1.6,0,0,1,1.3.42,3.66,3.66,0,0,1,1,1.55A5.35,5.35,0,0,1,5.46,9.77Z" transform="translate(-0.84 -1.43)"/><path class="cls-2" d="M9.35,5.31a4,4,0,0,1-.42,1.93,1.69,1.69,0,0,1-2.18.88,1.9,1.9,0,0,1-.93-0.86,4.05,4.05,0,0,1-.51-1.59A4.92,4.92,0,0,1,5.38,4,3,3,0,0,1,5.84,2.9a1.74,1.74,0,0,1,1.35-.74A1.63,1.63,0,0,1,8.76,3a4.16,4.16,0,0,1,.59,2.08C9.36,5.18,9.35,5.25,9.35,5.31Z" transform="translate(-0.84 -1.43)"/><path class="cls-2" d="M14.16,5a4.25,4.25,0,0,1-.37,1.72,1.84,1.84,0,0,1-1,1,1.67,1.67,0,0,1-1.79-.49,3.73,3.73,0,0,1-.83-1.93,4.64,4.64,0,0,1,.09-2,2.5,2.5,0,0,1,.55-1.06,1.77,1.77,0,0,1,.95-0.51,1.58,1.58,0,0,1,1.48.36,2.5,2.5,0,0,1,.64,1A4.82,4.82,0,0,1,14.16,5Z" transform="translate(-0.84 -1.43)"/></svg>