<svg id="Layer_1" data-name="Layer 1" xmlns="http://www.w3.org/2000/svg" viewBox="0 0 16.96 16.96"><defs><style>.cls-1{fill:#fefefe;}.cls-2{fill:#868686;}</style></defs><title>חץ ימינה</title><path class="cls-1" d="M6.13,4.32c-0.33.91-.73,1.8-1,2.71a18.5,18.5,0,0,0-.73,6.55,4.31,4.31,0,0,1-.09.93h0c3,2.2,6.36,1.81,9.47.19l0.34-.18c0-.09.08-0.19,0.11-0.28a17.93,17.93,0,0,0,.75-3.2,15,15,0,0,0,0-3.27,13.36,13.36,0,0,1-.25-1.9L14.2,5.71A23.23,23.23,0,0,1,11.38,5,10.56,10.56,0,0,1,10,4.36a20.49,20.49,0,0,1-3.67-.54C6.27,4,6.19,4.15,6.13,4.32Z" transform="translate(-1.52 -1.52)"/><path class="cls-2" d="M1.52,10A8.48,8.48,0,1,1,10,18.48,8.5,8.5,0,0,1,1.52,10Z" transform="translate(-1.52 -1.52)"/><path class="cls-1" d="M8.36,4.36a1.12,1.12,0,0,0,.09.12l3.8,3.8,1.66,1.66C14,10,14,10,13.91,10.12L8.5,15.53c-0.09.09-.13,0.08-0.21,0Q7.65,14.88,7,14.25C6.92,14.16,6.93,14.12,7,14l3.91-3.9c0.1-.1.1-0.15,0-0.25L7,6c-0.1-.1-0.1-0.16,0-0.25L8.25,4.46Z" transform="translate(-1.52 -1.52)"/></svg>