<svg id="Layer_1" data-name="Layer 1" xmlns="http://www.w3.org/2000/svg" viewBox="0 0 398.12 394.37"><defs><style>.cls-1{fill:#376ad1;}.cls-2{fill:#fefefe;}</style></defs><title>שתף</title><path class="cls-1" d="M761.88,664q0.06-45.68.12-91.36,0-76.38,0-152.77c0-2-.1-4-0.15-6,3.49-41.16,31.54-68.83,73.09-72.1,1.16,0.06,2.32.16,3.48,0.16h244.15c1.16,0,2.32-.1,3.49-0.15,33.86,2.42,57.42,19,69.74,50.9a66.15,66.15,0,0,1,4.13,24q0,122,0,244a75.42,75.42,0,0,1-75.6,75.48q-122.75,0-245.5,0C796.9,736.2,764.6,705.92,761.88,664Z" transform="translate(-761.85 -341.84)"/><path class="cls-2" d="M1036.3,508.18a39,39,0,0,1-25.06-8.39c-2.35-1.84-4.29-2.15-7.17-.71Q969.45,516.28,934.61,533c-3.17,1.52-3.57,3.42-4,6.47-0.79,6,1.42,8.9,6.93,11.52,21.78,10.36,43.3,21.3,64.81,32.22,3.31,1.68,5.48,1.36,8.45-.85,14.64-10.91,30.5-12.14,46.31-3.35,15.37,8.55,22.31,22.25,20.71,40-1.48,16.42-16.25,31.52-33.2,34.82-24.93,4.85-49.84-14.08-49.82-38.79,0-2.39-1.09-3.54-3.11-4.5Q954.25,592.86,916.89,575c-2.69-1.29-4.51-.61-6.86.65-24.43,13.2-53.78,1.5-61.29-24.28-7.86-27,15.43-54.26,45.21-50.89a37.16,37.16,0,0,1,17.24,6.11,6.14,6.14,0,0,0,6.92.48q36.74-18,73.58-35.72c2.3-1.11,3-2.57,3.16-5,1.21-21.27,17-37.38,38.2-39.12a42.32,42.32,0,0,1,44.62,33.39C1082.62,484.8,1062.09,508.42,1036.3,508.18Z" transform="translate(-761.85 -341.84)"/></svg>