<svg id="Layer_1" data-name="Layer 1" xmlns="http://www.w3.org/2000/svg" viewBox="0 0 44.47 44.47"><defs><style>.cls-1{fill:#fff;}.cls-2{fill:#fcaf17;}</style></defs><title>מדרגות</title><path class="cls-1" d="M42.84,14a7,7,0,0,1-1.13-1.65c-0.66-.77-1.27-1.59-1.89-2.4l-0.18-.23a28.78,28.78,0,0,1-2.9-.42l-3.67-.75C31,8.1,29,7.72,26.9,7.4a49.43,49.43,0,0,0-10.5-.19c-0.26,0-.53,0-0.79,0a35.57,35.57,0,0,1-1,3.45c-0.34,1-.7,2-1,3.05-0.17.69-.31,1.38-0.42,2.08s-0.16,1.59-.24,2.38c-0.18,2-.47,4-0.76,6a56.06,56.06,0,0,1-1.55,7.33,9.32,9.32,0,0,1-2.4,4.12l-0.78.6,0.1,0.14a7,7,0,0,1,1.48,2.5,7.1,7.1,0,0,1,1.32,1,17.08,17.08,0,0,0,1.84,1c1.06,0.43,2.12.86,3.18,1.31l-2.23-.94a23.77,23.77,0,0,0,5.31,1.46c2,0.24,3.91.47,5.86,0.7a36,36,0,0,0,6.29.29,16.94,16.94,0,0,0,1.83-.52q0.55-.28,1.08-0.62,0.35-.33.68-0.69a45,45,0,0,0,2.52-4.6c0.51-1,1-2,1.57-3,0.38-.68.77-1.35,1.12-2,0.35-1,.66-2,1-2.95,0.47-1.46,1-2.89,1.47-4.35a57.54,57.54,0,0,0,1.94-7.75c0-.38,0-0.77.05-1.16,0-.24,0-0.47,0-0.7A7,7,0,0,1,42.84,14Z" transform="translate(-2.77 -2.77)"/><path class="cls-2" d="M25,47.23A22.23,22.23,0,1,1,47.23,25.07,22.23,22.23,0,0,1,25,47.23Z" transform="translate(-2.77 -2.77)"/><path class="cls-1" d="M14.81,37.21H11c-0.16,0-.16,0-0.16-0.17q0-1.19,0-2.38c0-.2,0-0.2.22-0.2h4.84c0.35,0,.31,0,0.31-0.3q0-2.42,0-4.84s0-.1,0-0.15,0-.16.17-0.16H21.4a0.07,0.07,0,0,0,.08-0.08q0-.1,0-0.19,0-2.44,0-4.88s0-.08,0-0.13c0-.2,0-0.21.21-0.21h5c0.22,0,.22,0,0.22-0.23q0-1.08,0-2.16,0-1.37,0-2.74s0-.1,0-0.15A0.09,0.09,0,0,1,27,18.15h5.13A0.09,0.09,0,0,0,32.26,18c0-.06,0-0.11,0-0.17q0-2.41,0-4.81c0-.27,0-0.25.25-0.25H40c0.23,0,.23,0,0.23.23q0,1.12,0,2.25c0,0.26,0,.24-0.24.24H35.19c-0.31,0-.27,0-0.27.27q0,2.43,0,4.86c0,0.24,0,.23-0.23.23H29.8c-0.28,0-.25,0-0.25.25q0,2.46,0,4.92c0,0.06,0,.11,0,0.17a0.09,0.09,0,0,1-.11.11H24.3a0.09,0.09,0,0,0-.11.11c0,0.06,0,.11,0,0.17q0,2.4,0,4.79s0,0.08,0,.13c0,0.21,0,.21-0.21.21H19.06c-0.29,0-.26,0-0.26.26q0,2.48,0,5c0,0.26,0,.24-0.24.24H14.81Z" transform="translate(-2.77 -2.77)"/></svg>