<svg id="Layer_1" data-name="Layer 1" xmlns="http://www.w3.org/2000/svg" viewBox="0 0 299.65 148.31"><defs><style>.cls-1{fill:#fff;}.cls-2{fill:#0283dd;}.cls-3{fill:#0383dd;}.cls-4{fill:#0384dd;}.cls-5{fill:#feffff;}</style></defs><title>300X149 לוגו למחשב</title><path class="cls-1" d="M0.35,148.78V0.47H300V148.78H0.35Z" transform="translate(-0.35 -0.47)"/><path class="cls-2" d="M71.91,138.72c-1.05,0-2.11,0-3.16-.07-1.35-.06-2.69-0.18-4-0.33s-3-.39-4.43-0.66a62.55,62.55,0,0,1-31.7-16.15A61.61,61.61,0,0,1,11.13,91.38,56.35,56.35,0,0,1,9.92,84.8c-0.17-1.36-.3-2.72-0.39-4.08a59,59,0,0,1,0-6.76,60.46,60.46,0,0,1,2.91-15.85A61.65,61.65,0,0,1,28.56,32.52,62.64,62.64,0,0,1,58.81,16.63a62.77,62.77,0,0,1,6.48-1c1.13-.12,2.26-0.19,3.4-0.26,1.89-.12,3.79-0.11,5.68,0a61.89,61.89,0,0,1,8.47.91,62.84,62.84,0,0,1,23.4,9.22,62,62,0,0,1,19.39,20.11,61.15,61.15,0,0,1,7,17.18,59.3,59.3,0,0,1,1.24,6.89c0.2,1.67.32,3.35,0.4,5q0.09,2,0,4c-0.06,1.89-.19,3.78-0.42,5.66a61.69,61.69,0,0,1-26.29,43.34,63,63,0,0,1-24.52,10.09c-1.72.31-3.45,0.54-5.19,0.71C75.91,138.63,73.91,138.73,71.91,138.72Z" transform="translate(-0.35 -0.47)"/><path class="cls-2" d="M271.54,120.17l0.23,4.16a3.17,3.17,0,0,1-.1,1.13,1.32,1.32,0,0,1-.94.94,2.74,2.74,0,0,1-.62.11l-4,.15h-0.25a0.28,0.28,0,0,1-.29-0.2c-0.09-.26-0.2-0.51-0.27-0.77a7.17,7.17,0,0,1-.2-2.25c0-.27.09-0.34,0.36-0.3l2.19,0.32,0.37,0.05a0.48,0.48,0,0,0,.63-0.45,3.36,3.36,0,0,0,.07-0.44c0.1-1.11.2-2.22,0.3-3.33,0-.38.08-0.75,0.11-1.13a3.07,3.07,0,0,0,0-.38,1.1,1.1,0,0,0-1.17-1.21c-1.22,0-2.44,0-3.66,0a0.61,0.61,0,0,0-.68.53,1.79,1.79,0,0,0-.05.37c-0.09,1.58-.18,3.15-0.27,4.73q-0.11,1.92-.23,3.85a0.33,0.33,0,0,1-.32.39,4.94,4.94,0,0,1-2.8-.14,0.26,0.26,0,0,1-.22-0.37q0.23-1.34.47-2.67c0.31-1.7.62-3.39,0.93-5.09a0.85,0.85,0,0,0-.72-1.22l-1.32-.45a0.32,0.32,0,0,1-.24-0.32,6.45,6.45,0,0,1,.78-3.65c0.09-.17.16-0.19,0.36-0.09,0.43,0.21.88,0.42,1.3,0.65a3.68,3.68,0,0,0,2,.41l4.23-.21,1.13-.07a3.18,3.18,0,0,1,.94.1,2,2,0,0,1,1.49,1.32,2.88,2.88,0,0,1,.18.86c0,0.74.08,1.47,0.11,2.21l0.13,2.52h0Z" transform="translate(-0.35 -0.47)"/><path class="cls-2" d="M219.5,119.35q0-1.33.07-2.65c0-.15,0-0.3,0-0.44s-0.06-.22-0.24-0.21l-0.69,0-0.94.07c-0.31,0-.34,0-0.4-0.35a7.13,7.13,0,0,1,.18-3.07c0.09-.34.15-0.37,0.48-0.36l2.27,0.13,2.84,0.18,3.53,0.19a8.57,8.57,0,0,1,1,.1,2.19,2.19,0,0,1,1.84,1.62,7.24,7.24,0,0,1,.22,1.62c0.12,1.55.2,3.11,0.31,4.66s0.2,2.86.33,4.28a0.77,0.77,0,0,1-.37.79,5.08,5.08,0,0,1-2,.79c-0.29,0-.58.07-0.88,0.1a0.2,0.2,0,0,1-.23-0.23c0-.4,0-0.8.05-1.2,0.06-.95.14-1.89,0.2-2.84q0.18-2.58.35-5.17c0-.23,0-0.46,0-0.69a1.65,1.65,0,0,0-.17-0.73,0.63,0.63,0,0,0-.59-0.4h-0.32l-4.1.19c-0.37,0-.41,0-0.39.4q0.08,1.32.19,2.65c0.06,0.71.13,1.43,0.18,2.14,0.07,0.88.13,1.76,0.19,2.65,0,0.29,0,.59,0,0.88a2.1,2.1,0,0,1-.18.73,1.69,1.69,0,0,1-1.42,1.12c-1.17.15-2.34,0.28-3.51,0.41a1.14,1.14,0,0,1-.25,0,0.2,0.2,0,0,1-.17-0.16,1.13,1.13,0,0,1,0-.19,10.06,10.06,0,0,1,.13-2.64c0-.1.05-0.2,0.08-0.3a0.19,0.19,0,0,1,.23-0.16l0.5,0.08c0.23,0,.45.1,0.68,0.13a0.71,0.71,0,0,0,.87-0.54,2.62,2.62,0,0,0,.12-0.81c0-.95,0-1.9,0-2.84h0Z" transform="translate(-0.35 -0.47)"/><path class="cls-2" d="M236.15,119.31q0-1.26.09-2.52c0-.17,0-0.34,0-0.51A0.19,0.19,0,0,0,236,116l-0.69,0-1,.08c-0.25,0-.29,0-0.34-0.26a6.31,6.31,0,0,1-.05-2.07,8.51,8.51,0,0,1,.22-1.11,0.33,0.33,0,0,1,.45-0.32l2.27,0.13,2.9,0.19,3.53,0.19a9.11,9.11,0,0,1,.94.1,2.16,2.16,0,0,1,1.85,1.59,4.17,4.17,0,0,1,.17.86c0.09,1,.16,2.1.23,3.15,0.15,2.23.29,4.45,0.46,6.68a0.64,0.64,0,0,1-.28.64,4.9,4.9,0,0,1-2.09.85c-0.29.05-.58,0.08-0.88,0.1a0.22,0.22,0,0,1-.27-0.26c0-.53,0-1.05.07-1.58,0.06-.84.13-1.68,0.19-2.52,0.12-1.83.24-3.65,0.36-5.48a2.34,2.34,0,0,0-.11-0.87,0.7,0.7,0,0,0-.74-0.56H243l-4,.19-0.25,0a0.22,0.22,0,0,0-.2.26c0,0.48.07,1,.11,1.45,0.06,0.71.13,1.42,0.19,2.14q0.15,1.92.29,3.84c0,0.27,0,.55,0,0.82a2.37,2.37,0,0,1-.16.8,1.75,1.75,0,0,1-1.52,1.25c-0.81.1-1.63,0.19-2.45,0.28l-1.19.13a0.21,0.21,0,0,1-.25-0.21,9.67,9.67,0,0,1,.17-3c0.05-.21.11-0.27,0.37-0.21l1,0.18a0.74,0.74,0,0,0,1-.69,5.72,5.72,0,0,0,.08-0.88c0-.88,0-1.77.06-2.65h0Z" transform="translate(-0.35 -0.47)"/><path class="cls-2" d="M277.08,112.59a5.52,5.52,0,0,1,1.13.09,0.35,0.35,0,0,1,.31.34c0.16,1.15.33,2.29,0.49,3.44l0.72,5q0.09,0.62.17,1.25a2.31,2.31,0,0,0,.21.72,0.74,0.74,0,0,0,1.11.35,2.16,2.16,0,0,0,.93-1,3,3,0,0,0,.28-1.09q0.2-2.64.4-5.29c0.07-.9.15-1.8,0.22-2.71a0.4,0.4,0,0,1,.27-0.38,5.73,5.73,0,0,1,1.14-.35,5.92,5.92,0,0,1,2.26-.09c0.34,0.07.37,0.1,0.28,0.46q-0.52,2.05-1,4.1c-0.49,1.92-1,3.83-1.48,5.75a5.37,5.37,0,0,1-3.66,3.93c-1.51.53-3,1-4.57,1.47l-0.6.2a0.27,0.27,0,0,1-.4-0.18,6.36,6.36,0,0,1-.64-1.84,6.53,6.53,0,0,1-.14-1.51,0.26,0.26,0,0,1,.3-0.31c0.84-.06,1.68-0.12,2.52-0.16,0.61,0,.92-0.15.66-1-0.32-1-.67-2-1-3.06l-2.33-7c0-.12-0.08-0.24-0.12-0.36a0.23,0.23,0,0,1,.17-0.34A6.43,6.43,0,0,1,277.08,112.59Z" transform="translate(-0.35 -0.47)"/><path class="cls-2" d="M202.67,121.9c0-1.71.07-3.15,0.1-4.58,0-.19,0-0.38,0-0.57a0.68,0.68,0,0,0-.59-0.7,2,2,0,0,0-.38,0l-5-.1h-0.25a0.18,0.18,0,0,0-.2.19c0,0.06,0,.13,0,0.19,0,0.8.09,1.6,0.14,2.4,0.06,1.05.13,2.1,0.19,3.15s0.1,2.23.18,3.34a0.72,0.72,0,0,1-.43.76,4.94,4.94,0,0,1-1.93.55,10.15,10.15,0,0,1-1.14,0,0.18,0.18,0,0,1-.19-0.2c0-.13,0-0.25,0-0.38q0.17-1.76.34-3.52,0.23-2.29.45-4.59c0.06-.57.11-1.13,0.15-1.7,0-.22,0-0.26-0.23-0.29h-0.06c-0.68,0-.57-0.09-0.64-0.6a4,4,0,0,1,.31-2A0.44,0.44,0,0,1,194,113l3.46-.27,4-.33a5.69,5.69,0,0,1,1.7.06,2,2,0,0,1,1.63,1.71c0.11,0.66.17,1.34,0.24,2,0.19,1.82.37,3.64,0.56,5.47,0.13,1.24.25,2.47,0.39,3.71a0.56,0.56,0,0,1-.25.59,4.14,4.14,0,0,1-1.5.63,5.69,5.69,0,0,1-1.37.2,0.22,0.22,0,0,1-.25-0.23c0-.17,0-0.34,0-0.51C202.62,124.57,202.65,123.09,202.67,121.9Z" transform="translate(-0.35 -0.47)"/><path class="cls-2" d="M177.12,126.75a0.57,0.57,0,0,1,0-.44,9.67,9.67,0,0,1,1.79-3.1,0.64,0.64,0,0,1,.61-0.23l2.65,0.2,3,0.21c0.26,0,.29,0,0.32-0.27s0-.42.06-0.63c0.06-1.09.12-2.19,0.18-3.28,0-.55.07-1.09,0.1-1.64a3.71,3.71,0,0,0,0-.51,1.5,1.5,0,0,0-1.37-1.42,5.93,5.93,0,0,0-1.32,0l-3.2.35-0.81.1a0.42,0.42,0,0,1-.5-0.26,4.94,4.94,0,0,1-.37-3.2,0.24,0.24,0,0,1,.32-0.22l1.26,0.08,3.9,0.33,3.21,0.27a3.79,3.79,0,0,1,1.33.36,1.86,1.86,0,0,1,1.13,1.75,4.11,4.11,0,0,1-.11,1.06c-0.51,2-1,4.08-1.51,6.13-0.22.91-.37,0.85,0.65,0.78l1.32-.11c0.42,0,.47,0,0.51.44a4.35,4.35,0,0,1-.09,1.51,7.71,7.71,0,0,1-.37,1.07,0.47,0.47,0,0,1-.49.31l-2.91.09-8.46.26A2.18,2.18,0,0,1,177.12,126.75Z" transform="translate(-0.35 -0.47)"/><path class="cls-2" d="M143.77,112.47c0-1.12.07-2.23,0.08-3.35a0.51,0.51,0,0,1,.41-0.54,6,6,0,0,1,1.78-.38,8.94,8.94,0,0,1,1.64,0,0.21,0.21,0,0,1,.19.31c-0.05.14-.11,0.27-0.17,0.41l-1.39,3.18c-0.06.13-.12,0.27-0.16,0.41a0.12,0.12,0,0,0,.11.18h0.5l5.05-.09a5.71,5.71,0,0,1,1.19.1,2.27,2.27,0,0,1,1.08.5,1.33,1.33,0,0,1,.5,1,2.14,2.14,0,0,1-.06.56,6.3,6.3,0,0,1-.31.89q-2.32,5.19-4.66,10.37c-0.26.58-.15,0.58-0.89,0.51a8,8,0,0,1-2-.42,3,3,0,0,1-1-.58c-0.21-.18-0.22-0.26-0.08-0.48l0.24-.37,5.42-8.15c0.12-.18.24-0.35,0.34-0.53a0.41,0.41,0,0,0-.15-0.55,0.81,0.81,0,0,0-.55-0.1l-5.59.56-1.32.12a0.23,0.23,0,0,1-.29-0.24c0-.13,0-0.25,0-0.38q0-1.52.07-3h0Z" transform="translate(-0.35 -0.47)"/><path class="cls-2" d="M174.56,121c0,0.27,0,.55,0,0.82,0.05,1.37.11,2.73,0.16,4.1,0,0.5.08,0.53-.5,0.69a6,6,0,0,1-2.75.1,0.2,0.2,0,0,1-.19-0.21,3.13,3.13,0,0,1,0-.31q0.15-1.79.3-3.58c0.05-.63.12-1.26,0.18-1.88q0.13-1.41.24-2.83A2,2,0,0,0,172,117a0.88,0.88,0,0,0-.7-0.65,4.39,4.39,0,0,0-.44-0.07l-4.84-.43-1.13-.11a0.3,0.3,0,0,1-.33-0.3,6.65,6.65,0,0,1,0-2.38,0.29,0.29,0,0,1,.31-0.25l0.69-.06,3.72-.18,1.64-.08a3.64,3.64,0,0,1,1.12.15,3,3,0,0,1,2.06,1.89,4.29,4.29,0,0,1,.26,1.42c0.05,1.45.11,2.9,0.17,4.35,0,0.21,0,.42,0,0.63h0Z" transform="translate(-0.35 -0.47)"/><path class="cls-2" d="M255,120q0,2.53,0,5.05a1.41,1.41,0,0,0,0,.25,0.61,0.61,0,0,1-.46.71,7.7,7.7,0,0,1-1.93.59l-0.75.1a0.24,0.24,0,0,1-.28-0.31c0.09-.71.19-1.42,0.28-2.13l0.58-4.38c0.07-.52.14-1,0.21-1.56a2.89,2.89,0,0,0,0-.82,0.57,0.57,0,0,0-.48-0.52c-0.23,0-.46-0.07-0.69-0.1l-1.38-.15c-0.26,0-.3-0.06-0.35-0.28a7.27,7.27,0,0,1,.22-3.74c0.1-.3.14-0.33,0.46-0.26l2.46,0.55c0.25,0.06.49,0.13,0.74,0.17a1.39,1.39,0,0,1,1.21,1.51c0,1.77,0,3.54.08,5.3h0Z" transform="translate(-0.35 -0.47)"/><path class="cls-2" d="M141.09,117c0,0.95,0,1.89,0,2.84a0.43,0.43,0,0,1-.32.46,7.18,7.18,0,0,1-3,.41,0.23,0.23,0,0,1-.25-0.28c0-.21,0-0.42,0-0.63q0.12-1.45.24-2.89a2.48,2.48,0,0,0,0-.25,0.54,0.54,0,0,0-.31-0.51c-0.17-.08-0.34-0.16-0.52-0.23l-1.36-.5a0.42,0.42,0,0,1-.3-0.36,3.66,3.66,0,0,1,.14-1.86,0.3,0.3,0,0,1,.27-0.22l0.56-.07,2.26-.23a6.78,6.78,0,0,1,.88,0,1.81,1.81,0,0,1,1.14.47,1.4,1.4,0,0,1,.47,1.13c0,0.93,0,1.85,0,2.78h0Z" transform="translate(-0.35 -0.47)"/><path class="cls-2" d="M195.26,132.51a1.39,1.39,0,0,0-.64,0H194a0.18,0.18,0,0,1-.18-0.26,3.17,3.17,0,0,1,.83-1.4,0.5,0.5,0,0,1,.39-0.16h0.32l3.92,0.06a3,3,0,0,1,.87.12,1.09,1.09,0,0,1,.74.72,2.35,2.35,0,0,1,.11.87q-0.06,1.86-.12,3.73c0,0.06,0,.13,0,0.19a0.83,0.83,0,0,1-.75.81c-0.46.08-.92,0.12-1.38,0.18l-2.95.34a3,3,0,0,1-.69,0,0.87,0.87,0,0,1-.81-0.89,2.4,2.4,0,0,1,.1-0.75q0.39-1.43.75-2.87A1.93,1.93,0,0,0,195.26,132.51Z" transform="translate(-0.35 -0.47)"/><path class="cls-2" d="M155.47,132.51a2.23,2.23,0,0,0-.8,0h-0.5a0.13,0.13,0,0,1-.11-0.13,0.77,0.77,0,0,1,0-.25,3.09,3.09,0,0,1,.8-1.27,0.51,0.51,0,0,1,.4-0.16h0.63l3.6,0.05a3.67,3.67,0,0,1,.75.09,1.12,1.12,0,0,1,.9.94,2.12,2.12,0,0,1,0,.5c0,1.3-.07,2.61-0.11,3.91a2.16,2.16,0,0,1,0,.25,0.79,0.79,0,0,1-.73.75c-0.46.08-.92,0.12-1.38,0.18l-2.94.34a3.12,3.12,0,0,1-.63,0,0.92,0.92,0,0,1-.9-1.07,4.55,4.55,0,0,1,.15-0.74q0.37-1.43.75-2.87A1,1,0,0,0,155.47,132.51Z" transform="translate(-0.35 -0.47)"/><path class="cls-2" d="M138.42,137.7h-0.95a0.35,0.35,0,0,1-.39-0.25,3.21,3.21,0,0,1-.18-1.37,0.21,0.21,0,0,1,.26-0.2l0.56,0.07c0.23,0,.46.06,0.69,0.07a0.23,0.23,0,0,0,.26-0.22c0-.17.05-0.33,0.07-0.5,0.05-.54.1-1.09,0.15-1.63a2.83,2.83,0,0,0,0-.57,0.45,0.45,0,0,0-.4-0.42l-0.25,0c-0.53,0-1.05,0-1.58,0a0.35,0.35,0,0,0-.43.41c0,0.38-.06.75-0.08,1.13-0.06,1-.11,2-0.16,3,0,0.35-.07.4-0.39,0.46a2.4,2.4,0,0,1-1.24-.11,0.19,0.19,0,0,1-.13-0.19,4.77,4.77,0,0,1,.07-0.5l0.57-3.1c0-.14.06-0.29,0.07-0.44a0.34,0.34,0,0,0-.24-0.4c-0.21-.09-0.43-0.16-0.65-0.23a0.35,0.35,0,0,1-.29-0.36,3.38,3.38,0,0,1,.4-1.7,0.18,0.18,0,0,1,.27-0.08c0.17,0.09.35,0.15,0.51,0.25a2,2,0,0,0,1.15.25l2.39-.13a2.24,2.24,0,0,1,.63,0,1.09,1.09,0,0,1,1,1c0,0.33.06,0.67,0.08,1q0.08,1.64.15,3.28c0,0.19,0,.38,0,0.57a0.79,0.79,0,0,1-.82.85c-0.36,0-.71,0-1.07,0v0.06Z" transform="translate(-0.35 -0.47)"/><path class="cls-2" d="M143.34,134.06c0-.44,0-0.88,0-1.33,0-.26,0-0.3-0.28-0.3h-0.19c-0.64,0-.67.09-0.68-0.62a5.2,5.2,0,0,1,.07-0.94c0.06-.38.14-0.42,0.5-0.4l2.14,0.12,2,0.12c0.17,0,.33,0,0.5.06a1.14,1.14,0,0,1,1,1,6.07,6.07,0,0,1,.09.75q0.14,2,.28,4c0,0.11,0,.21,0,0.32a0.46,0.46,0,0,1-.23.48,2.57,2.57,0,0,1-1.37.42,0.2,0.2,0,0,1-.24-0.22c0-.21,0-0.42,0-0.63q0.12-1.73.23-3.47a3.79,3.79,0,0,0,0-.94,0.35,0.35,0,0,0-.39-0.33c-0.67,0-1.35,0-2,.08-0.19,0-.25.09-0.24,0.29,0,0.36,0,.72.06,1.07,0.06,0.73.13,1.47,0.19,2.2a4,4,0,0,1,0,.76,1,1,0,0,1-.92,1c-0.54.08-1.08,0.14-1.63,0.21-0.25,0-.32,0-0.33-0.26a4.23,4.23,0,0,1,.07-1.26c0.07-.26.09-0.28,0.34-0.26l0.38,0.05a0.38,0.38,0,0,0,.49-0.41c0-.38,0-0.76.06-1.14,0-.15,0-0.29,0-0.44h0Z" transform="translate(-0.35 -0.47)"/><path class="cls-2" d="M183.7,130.57l0.38,0a0.35,0.35,0,0,1,.38.4c0.16,1.1.32,2.21,0.48,3.31,0.06,0.4.1,0.79,0.16,1.19a2.47,2.47,0,0,0,.12.49,0.35,0.35,0,0,0,.56.17,1.23,1.23,0,0,0,.53-1c0-.54.09-1.09,0.13-1.64,0.06-.73.12-1.47,0.16-2.2a0.46,0.46,0,0,1,.34-0.46,3.33,3.33,0,0,1,1.56-.16,0.21,0.21,0,0,1,.2.26c0,0.14-.07.29-0.11,0.43-0.38,1.49-.77,3-1.14,4.46a2.78,2.78,0,0,1-1.94,2.07c-0.82.27-1.64,0.53-2.47,0.79a0.24,0.24,0,0,1-.35-0.15,3.88,3.88,0,0,1-.37-1.59,0.21,0.21,0,0,1,.23-0.23l1.32-.1a0.22,0.22,0,0,0,.21-0.3c0-.16-0.09-0.32-0.15-0.48l-1.53-4.62c-0.13-.38-0.1-0.42.28-0.53A2.78,2.78,0,0,1,183.7,130.57Z" transform="translate(-0.35 -0.47)"/><path class="cls-2" d="M225.43,135.13c0-.76,0-1.52,0-2.27a0.38,0.38,0,0,0-.45-0.47c-0.8,0-1.6,0-2.4,0-0.19,0-.24.07-0.24,0.29q0,0.92.08,1.83c0,0.82.1,1.64,0.15,2.46a0.4,0.4,0,0,1-.23.41,2.73,2.73,0,0,1-1.52.31,0.19,0.19,0,0,1-.18-0.22c0-.08,0-0.17,0-0.25q0.2-2.11.41-4.21c0-.15,0-0.29,0-0.44a0.18,0.18,0,0,0-.17-0.22,0.29,0.29,0,0,1-.27-0.29,1.8,1.8,0,0,1,0-.69c0.09-.46.13-0.51,0.61-0.56,0.69-.07,1.38-0.12,2.08-0.17l1.32-.11a3.25,3.25,0,0,1,.88,0,1.07,1.07,0,0,1,.94,1c0,0.29.08,0.58,0.11,0.88,0.16,1.51.3,3,.47,4.52a0.51,0.51,0,0,1-.32.6,2.53,2.53,0,0,1-.65.23c-0.86.2-.79,0.08-0.78-0.61s0-1.31,0-2h0.06Z" transform="translate(-0.35 -0.47)"/><path class="cls-2" d="M217.95,135.87h1a0.22,0.22,0,0,1,.26.21,2.13,2.13,0,0,1-.05.88c-0.24.74-.24,0.65-0.87,0.66l-5.18.15c-0.61,0-.64,0-0.41-0.58a5.18,5.18,0,0,1,.68-1.14,0.65,0.65,0,0,1,.66-0.26c0.71,0.08,1.43.13,2.14,0.18h0.32c0.21,0,.27,0,0.29-0.24,0.05-.88.09-1.77,0.15-2.65a0.77,0.77,0,0,0-.88-0.89c-0.65.06-1.3,0.12-1.95,0.2s-0.86,0-1-.75a2.3,2.3,0,0,1,0-.38c0-.91,0-0.77.76-0.73,1.18,0.08,2.35.18,3.52,0.28a2.94,2.94,0,0,1,.68.14,1,1,0,0,1,.75,1.11,3.81,3.81,0,0,1-.12.68c-0.22.9-.44,1.8-0.66,2.7C218,135.59,218,135.71,217.95,135.87Z" transform="translate(-0.35 -0.47)"/><path class="cls-2" d="M228.3,130.55c0-.53,0-1.05,0-1.58a0.39,0.39,0,0,1,.29-0.42,2.67,2.67,0,0,1,.86-0.16c1,0,1.09-.06.65,0.89-0.18.38-.34,0.77-0.5,1.16a0.15,0.15,0,0,0,.15.21l1.2,0,1.39,0a2.32,2.32,0,0,1,.75.1,0.85,0.85,0,0,1,.63,1.12,2.23,2.23,0,0,1-.13.36l-2.3,5.12c0,0.08-.07.15-0.11,0.23a0.27,0.27,0,0,1-.25.16,2.88,2.88,0,0,1-1.67-.48,0.21,0.21,0,0,1-.08-0.32l0.28-.42,2.51-3.78c0.1-.15.3-0.29,0.16-0.49a0.46,0.46,0,0,0-.47-0.07l-3,.29-0.25,0a0.22,0.22,0,0,1-.24-0.24c0-.42,0-0.84,0-1.26,0-.13,0-0.25,0-0.38h0Z" transform="translate(-0.35 -0.47)"/><path class="cls-2" d="M124,132.47l-2.08.14h-0.32c-0.24,0-.28-0.05-0.29-0.3a3.62,3.62,0,0,1,.32-1.47,0.32,0.32,0,0,1,.43-0.25c0.67,0.09,1.34.17,2,.28a6.33,6.33,0,0,0,2.81-.13l0.67-.17a0.21,0.21,0,0,1,.28.18,3.11,3.11,0,0,1,0,1.56,0.32,0.32,0,0,1-.31.26c-0.75.12-.9,0.28-0.87,1,0,1,.09,2,0.14,3,0,0.13,0,.25,0,0.38a0.34,0.34,0,0,1-.17.32,2.62,2.62,0,0,1-1.73.47,0.19,0.19,0,0,1-.2-0.25c0-.17,0-0.34,0-0.5,0.15-1.15.3-2.29,0.45-3.44a4,4,0,0,0,0-.57,0.52,0.52,0,0,0-.57-0.59H124v0Z" transform="translate(-0.35 -0.47)"/><path class="cls-3" d="M171.71,136c0,0.42,0,.84,0,1.26a0.3,0.3,0,0,1-.26.36,2.85,2.85,0,0,1-1.31.07,0.23,0.23,0,0,1-.22-0.26c0-.15,0-0.29,0-0.44,0.11-1.17.21-2.35,0.32-3.52a3.29,3.29,0,0,0,0-.5,0.41,0.41,0,0,0-.38-0.44,6.61,6.61,0,0,0-.69-0.09l-2-.17c-0.68-.06-0.7-0.09-0.72-0.75,0-.11,0-0.21,0-0.32,0-.57.09-0.56,0.59-0.57,0.74,0,1.47-.08,2.21-0.12a4.78,4.78,0,0,1,.76,0,1.54,1.54,0,0,1,1.38,1.13,2.46,2.46,0,0,1,.11.68c0,1.22.09,2.44,0.14,3.66h0Z" transform="translate(-0.35 -0.47)"/><path class="cls-3" d="M211.37,134.76q0.05,1.1.11,2.21c0,0.15,0,.29,0,0.44a0.25,0.25,0,0,1-.19.23,2.82,2.82,0,0,1-1.37.1,0.24,0.24,0,0,1-.23-0.31c0.07-.9.14-1.8,0.22-2.7,0-.5.09-1,0.13-1.51a1,1,0,0,0,0-.25,0.42,0.42,0,0,0-.36-0.38l-0.63-.08-2.07-.18c-0.67-.06-0.74-0.14-0.74-0.8a0.86,0.86,0,0,1,0-.13c0.11-.79,0-0.68.73-0.71l2-.11h0.57a1.61,1.61,0,0,1,1.73,1.62c0,0.69.07,1.39,0.1,2.08,0,0.17,0,.34,0,0.5h0Z" transform="translate(-0.35 -0.47)"/><path class="cls-3" d="M174.22,133.38c0-.15,0-0.34,0-0.53a0.27,0.27,0,0,0-.24-0.25l-0.62-.09a0.23,0.23,0,0,1-.2-0.27,2.91,2.91,0,0,1,.33-1.4,0.33,0.33,0,0,1,.41-0.2l0.13,0a5.32,5.32,0,0,0,2.13-.12c0.27-.07.33,0,0.43,0.22a3,3,0,0,1,.15,1.49,0.23,0.23,0,0,1-.2.22c-0.25.06-.49,0.11-0.74,0.18a0.39,0.39,0,0,0-.34.46c0,0.29,0,.59.06,0.88,0.1,1,.21,2,0.31,3,0.05,0.55,0,.62-0.56.65a2.51,2.51,0,0,1-.63,0c-0.87-.17-0.84-0.11-0.74-0.95C174,135.6,174.11,134.51,174.22,133.38Z" transform="translate(-0.35 -0.47)"/><path class="cls-2" d="M181,134.32c0,0.86,0,1.72,0,2.59a0.49,0.49,0,0,1-.34.53,4.8,4.8,0,0,1-1.16.3c-0.22,0-.32-0.05-0.29-0.27,0.07-.63.16-1.25,0.24-1.88s0.19-1.42.28-2.12a1.41,1.41,0,0,0,0-.25,0.32,0.32,0,0,0-.3-0.34l-0.81-.1c-0.3,0-.33-0.08-0.36-0.34a3.89,3.89,0,0,1,.12-1.69,0.23,0.23,0,0,1,.33-0.19c0.51,0.11,1,.21,1.54.34a0.71,0.71,0,0,1,.66.84c0,0.86,0,1.72,0,2.59h0Z" transform="translate(-0.35 -0.47)"/><path class="cls-4" d="M132.2,132.86c0,0.42,0,.84,0,1.26s0,0.33-.28.42a3.28,3.28,0,0,1-1.3.19,0.23,0.23,0,0,1-.27-0.27c0-.21,0-0.42,0-0.63s0.05-.71.08-1.07a0.36,0.36,0,0,0-.25-0.39c-0.23-.09-0.47-0.19-0.71-0.26a0.4,0.4,0,0,1-.3-0.43,2.47,2.47,0,0,1,0-.38c0.08-.54.15-0.53,0.58-0.58l1.26-.13a1.25,1.25,0,0,1,.5,0,0.83,0.83,0,0,1,.64.84c0,0.46,0,.93,0,1.39h0Z" transform="translate(-0.35 -0.47)"/><path class="cls-4" d="M165.45,132.84c0,0.44,0,.88,0,1.33a0.34,0.34,0,0,1-.26.37,3.53,3.53,0,0,1-1.37.19,0.22,0.22,0,0,1-.23-0.24c0-.21,0-0.42,0-0.63s0.05-.71.09-1.07a0.38,0.38,0,0,0-.29-0.43c-0.22-.08-0.43-0.17-0.65-0.24a0.43,0.43,0,0,1-.32-0.47,2.63,2.63,0,0,1,0-.32c0.08-.57.15-0.56,0.62-0.61l1.19-.12h0.25a0.88,0.88,0,0,1,.92.92c0,0.23,0,.46,0,0.69s0,0.42,0,.63h0Z" transform="translate(-0.35 -0.47)"/><path class="cls-3" d="M205.19,132.83c0,0.46,0,.92,0,1.39a0.31,0.31,0,0,1-.24.32,3.37,3.37,0,0,1-1.36.19,0.22,0.22,0,0,1-.23-0.24c0-.44.05-0.88,0.09-1.32,0-.13,0-0.25,0-0.38a0.37,0.37,0,0,0-.24-0.4c-0.25-.1-0.51-0.2-0.77-0.29a0.33,0.33,0,0,1-.25-0.32c0-.13,0-0.25,0-0.38,0-.56.09-0.62,0.67-0.68l1.06-.11a1.41,1.41,0,0,1,.62,0,0.78,0.78,0,0,1,.6.79c0,0.46,0,.92,0,1.39h0Z" transform="translate(-0.35 -0.47)"/><path class="cls-5" d="M38.81,118.26c-0.49-.55-1.05-1-1.5-1.62a30.93,30.93,0,0,0,3.31-1.79,39.8,39.8,0,0,1,4-2,43.51,43.51,0,0,1,5.66-2c0.82-.24,1.68-0.38,2.53-0.56a50.69,50.69,0,0,1,5.18-.8c1.23-.14,2.47-0.29,3.71-0.34a0.56,0.56,0,0,0,.58-0.37c0.14-.35.31-0.69,0.47-1a0.34,0.34,0,0,0-.37-0.48l-0.25,0c-1.21.14-2.41,0.41-3.61,0.6l-3.43.54a8.8,8.8,0,0,1-.88.06,2.17,2.17,0,0,0-.38,0,6.11,6.11,0,0,1-1.63,0,2.27,2.27,0,0,1-1.13-.36,1.26,1.26,0,0,1-.27-2,2.06,2.06,0,0,1,.83-0.55,8.74,8.74,0,0,1,2-.47l1.26-.13A3.39,3.39,0,0,0,55.3,105a0.21,0.21,0,0,0,.09-0.31c-0.12-.11-0.26-0.21-0.39-0.31a18.83,18.83,0,0,1-2.74-2.42,9.36,9.36,0,0,1-1.81-2.8A7.22,7.22,0,0,1,50,96a7.4,7.4,0,0,1,.46-2.28A3.56,3.56,0,0,1,53.2,91.4a8.44,8.44,0,0,1,1.31-.16,7.12,7.12,0,0,0,1-.13,1.67,1.67,0,0,0,1-.65c0.42-.55.87-1.08,1.29-1.64,1.35-1.75,2.72-3.49,4-5.32,0.66-1,1.31-2,1.87-3,0.25-.46.45-1,0.66-1.43a1.61,1.61,0,0,0,0-1.34,3.22,3.22,0,0,1-.21-1.36,1.69,1.69,0,0,1,.55-1.24c0.2-.19.4-0.37,0.59-0.57a2.23,2.23,0,0,0,.55-0.91,1.42,1.42,0,0,0-.14-1.1A0.51,0.51,0,0,0,65,72.28a2.84,2.84,0,0,0-.7.42c-0.38.3-.75,0.62-1.13,0.91a12.87,12.87,0,0,1-5,2.52,5.25,5.25,0,0,1-3.46-.3,4,4,0,0,1-.56-0.3,8.64,8.64,0,0,1-2.23-2.21,2.51,2.51,0,0,1-.28-1.77A1,1,0,0,1,51.92,71c0.23-.24.48-0.48,0.73-0.7a1.94,1.94,0,0,1,1.27-.51,2.65,2.65,0,0,0,1.66-.67,12.85,12.85,0,0,0,2.14-2.22,2.91,2.91,0,0,0,.2-0.32,0.4,0.4,0,0,0,0-.47l-0.31-.4A3.3,3.3,0,0,1,57,64.3a7.22,7.22,0,0,1-.13-1.51,4.77,4.77,0,0,1,1-2.74,5.53,5.53,0,0,1,.82-1c0.19-.16.34-0.18,0.44,0a0.3,0.3,0,0,1,0,.4l-0.71,1a5,5,0,0,0-.64,1.37,3.61,3.61,0,0,0,.73,3.54,3.25,3.25,0,0,1,.26.35,1.09,1.09,0,0,1,0,1.2,3.29,3.29,0,0,1-.24.37A14.14,14.14,0,0,1,55.89,70l-0.15.11a0.93,0.93,0,0,0-.36.77c0,0.25,0,.51,0,0.76a2.25,2.25,0,0,1-1.27,1.91c-0.5.27-.52,0.39-0.08,0.74a6.47,6.47,0,0,0,1.34.83,4,4,0,0,0,2.23.29A6.06,6.06,0,0,0,59.23,75c0.58-.25,1.16-0.5,1.72-0.8a1.56,1.56,0,0,0,.69-0.71,12.05,12.05,0,0,0,.94-2.41,6.2,6.2,0,0,0,.14-1.06,0.86,0.86,0,0,0-.48-0.94,1.08,1.08,0,0,1-.43-0.37,1.15,1.15,0,0,1-.15-0.34,0.27,0.27,0,0,1,.3-0.31,1.36,1.36,0,0,1,.24.07l1.18,0.44a0.67,0.67,0,0,1,.21.13,0.21,0.21,0,0,1,0,.28,0.61,0.61,0,0,1-.13.14,0.66,0.66,0,0,0-.23.67A4.84,4.84,0,0,1,63,72.2a4,4,0,0,0-.13.49,0.15,0.15,0,0,0,.18.13,0.81,0.81,0,0,0,.37-0.22,4.83,4.83,0,0,1,1-.71c0.11-.05.23-0.11,0.34-0.16a1,1,0,0,1,1.4.58c0,0.06,0,.12.07,0.18a0.33,0.33,0,0,0,.27.31,0.39,0.39,0,0,0,.31-0.28,12.73,12.73,0,0,0,1.74-3.7,3.72,3.72,0,0,1,.12-0.36,0.18,0.18,0,0,1,.21-0.1,0.17,0.17,0,0,1,.17.15,4.89,4.89,0,0,1-.18,1.87,6.53,6.53,0,0,1-2.09,3.24,4.56,4.56,0,0,0-.81.88,7.49,7.49,0,0,1-.66.76l-0.31.32a1.38,1.38,0,0,0-.32,1.35c0.08,0.28.16,0.57,0.25,0.85a2,2,0,0,1,0,1.06,5.86,5.86,0,0,1-.35,1.08,24.93,24.93,0,0,1-1.74,3.22c-1.67,2.69-3.57,5.21-5.47,7.73-0.1.13-.21,0.26-0.32,0.39a2,2,0,0,1-1.23.72,9.88,9.88,0,0,1-1.06.14,10.12,10.12,0,0,0-1.37.21,2.73,2.73,0,0,0-2.11,1.8,5.85,5.85,0,0,0-.23,3.65,7.76,7.76,0,0,0,1.24,2.54,14.57,14.57,0,0,0,2.75,2.77c0.62,0.51,1.29.94,2,1.39a2.07,2.07,0,0,1,.49.4,0.49,0.49,0,0,1-.11.76,1.26,1.26,0,0,1-.71.21c-0.32,0-.63,0-0.95,0a18.8,18.8,0,0,0-2.64.26,4.38,4.38,0,0,0-1.32.4,0.63,0.63,0,0,0-.46.55,0.65,0.65,0,0,0,.56.53,3.3,3.3,0,0,0,.8.17c0.65,0,1.31,0,2,0,2-.11,3.88-0.47,5.82-0.71a9,9,0,0,1,1.94-.11,0.85,0.85,0,0,0,.91-0.54l0.86-2c0.12-.29.24-0.58,0.37-0.87a0.56,0.56,0,0,1,.15-0.2,0.23,0.23,0,0,1,.17,0,0.16,0.16,0,0,1,.14.18,4.84,4.84,0,0,1-.14.55,45.92,45.92,0,0,1-1.61,4.59,2.43,2.43,0,0,0-.09.24,0.14,0.14,0,0,0,.16.2l1.14,0c0.59,0,1.18-.09,1.76-0.1a0.69,0.69,0,0,0,.68-0.43,8.05,8.05,0,0,0,.9-3.39,6.65,6.65,0,0,0,0-1.38,0.75,0.75,0,0,1,0-.24,0.16,0.16,0,0,1,.21-0.05,0.32,0.32,0,0,1,.13.27,7.3,7.3,0,0,1,.06,1.57c-0.08.48,0.08,1,0,1.45a0.44,0.44,0,0,0,.45.44h6.57a3.1,3.1,0,0,0,.44,0,0.22,0.22,0,0,0,.11-0.35,2,2,0,0,0-.24-0.2,12.43,12.43,0,0,1-4.84-7.47,14.27,14.27,0,0,1-.42-3.82,8.18,8.18,0,0,1,2.2-5.44c0.85-.94,1.82-1.75,2.75-2.61a7.52,7.52,0,0,0,1-1.13A1.9,1.9,0,0,0,76.71,85c0-.53,0-1.05,0-1.58a6.29,6.29,0,0,1,1.15-3.55L78,79.58c0.33-.45.35-0.51,0-0.94a8.05,8.05,0,0,1-1.24-2.19c-0.07-.18-0.13-0.2-0.34-0.14l-1.28.33a1.3,1.3,0,0,1-.68,0,0.22,0.22,0,0,1,.16-0.24,8.71,8.71,0,0,1,1.27-.57l0.47-.17a0.22,0.22,0,0,0,.15-0.24,0.47,0.47,0,0,0,0-.06c-0.16-.85.05-0.74-0.81-0.71a6.16,6.16,0,0,1-1.26,0,0.07,0.07,0,0,1-.07-0.09,0.16,0.16,0,0,1,0-.1c0.3-.1.6-0.19,0.91-0.27s0.54-.1.81-0.15,0.29-.07.28-0.33a3.33,3.33,0,0,1,.28-1.35,0.77,0.77,0,0,0-.19-0.91,9.78,9.78,0,0,1-1.39-1.95,4.3,4.3,0,0,1-.49-1.29,2.2,2.2,0,0,1,0-.94,0.9,0.9,0,0,0,0-.19,17.74,17.74,0,0,0-.25-4.28,8.35,8.35,0,0,0-.52-1.55A1.44,1.44,0,0,0,73.74,61a0.27,0.27,0,0,0-.43,0,2.07,2.07,0,0,0-.13.21,11.92,11.92,0,0,1-2.7,3.07,6,6,0,0,1-.74.48,1.9,1.9,0,0,1-1,.23,1.12,1.12,0,0,1-1.08-.72,1.63,1.63,0,0,1-.17-0.8,30.53,30.53,0,0,0-.06-3.6A19.7,19.7,0,0,0,67,56.22a6.76,6.76,0,0,0-.47-1.3A2.15,2.15,0,0,0,65,53.61l-0.12,0a0.15,0.15,0,0,1-.1-0.14,0.19,0.19,0,0,1,.13-0.2,1.38,1.38,0,0,1,.81.06A2.55,2.55,0,0,1,67,54.44a6.49,6.49,0,0,1,.72,1.68,19.54,19.54,0,0,1,.65,4.49,4.61,4.61,0,0,0,0,.57,4.49,4.49,0,0,1,0,1.26,2.48,2.48,0,0,0,.15,1.11,0.4,0.4,0,0,0,.61.25,3.31,3.31,0,0,0,.54-0.33,10.76,10.76,0,0,0,2.54-2.71,4.29,4.29,0,0,0,.6-1.45A9.49,9.49,0,0,0,73.09,56c0-.31,0-0.63-0.07-0.95a7.41,7.41,0,0,0-1.12-3.32,3.28,3.28,0,0,0-.91-1,1.87,1.87,0,0,0-1.8-.26l-1.66.61a3.06,3.06,0,0,1-1.74.12,10.18,10.18,0,0,1-1.15-.34l-0.36-.13a0.48,0.48,0,0,0-.64.23,2.13,2.13,0,0,0-.2.53,6.73,6.73,0,0,0-.18,1.38c0,1.3,0,2.61.06,3.91,0,0.73.12,1.47,0.18,2.2,0,0.25,0,.5,0,0.76a0.19,0.19,0,0,1-.13.1,0.19,0.19,0,0,1-.17,0,1.55,1.55,0,0,1-.16-0.41A33.32,33.32,0,0,1,62.57,56a10.5,10.5,0,0,1-.14-1.82,11.9,11.9,0,0,0,0-1.58,5.14,5.14,0,0,1,.11-1.38,3.39,3.39,0,0,1,.23-0.72A1.21,1.21,0,0,1,64,49.77a2.5,2.5,0,0,1,.74.16l1.06,0.4a2.34,2.34,0,0,0,1.55,0L68.71,50a4.57,4.57,0,0,1,.49-0.12,2.71,2.71,0,0,1,2.45.71,5.49,5.49,0,0,1,1.34,2,12.25,12.25,0,0,1,.94,4.61,10.47,10.47,0,0,1-.2,2.51,0.77,0.77,0,0,0,.2.76,5.89,5.89,0,0,1,1.39,3.2,13,13,0,0,1,.14,3.08c0,0.34,0,.67,0,1A3,3,0,0,0,75.77,69a11.51,11.51,0,0,0,1,1.84,2.65,2.65,0,0,0,.18.26,0.27,0.27,0,0,0,.39,0A1,1,0,0,0,77.5,71a9.77,9.77,0,0,1,1.2-1.3,1.54,1.54,0,0,0,.51-1.05c0.06-.8.13-1.59,0.19-2.39,0-.48.06-1,0.09-1.45a0.8,0.8,0,0,1,0-.25c0.14-.34.39-0.47,0.69-0.24a4.12,4.12,0,0,1,.38.34l1.79,1.79,0.31,0.31a0.65,0.65,0,0,0,.75.16,7,7,0,0,1,.72-0.22,4.18,4.18,0,0,1,1.5-.18,2.8,2.8,0,0,0,.51,0,3,3,0,0,1,.94.07,0.7,0.7,0,0,0,1-.46c0.31-.55.59-1.12,0.89-1.67A1.34,1.34,0,0,1,89.28,64a0.28,0.28,0,0,1,.44,0,0.79,0.79,0,0,1,.13.42c0.09,0.79.16,1.59,0.26,2.38a20.39,20.39,0,0,1,.08,3.4,1.1,1.1,0,0,0,.15.6q0.38,0.65.75,1.32a0.26,0.26,0,0,0,.36.15A8.57,8.57,0,0,1,92.92,72h0.25a0.06,0.06,0,0,1,0,0,0.17,0.17,0,0,1,0,.11,1.3,1.3,0,0,1-.48.3l-1.16.49a0.23,0.23,0,0,0-.16.29,4.11,4.11,0,0,1,.09,1.13c0,0.42,0,.43.39,0.49s0.83,0.16,1.24.26a1.58,1.58,0,0,1,.34.16,0.06,0.06,0,0,1,0,.05,0.17,0.17,0,0,1-.07.1,1.45,1.45,0,0,1-.31,0,8.34,8.34,0,0,1-1.51-.07,0.33,0.33,0,0,0-.4.22,8.86,8.86,0,0,1-1.33,2,34,34,0,0,0-2.38,3.34,1.6,1.6,0,0,0-.25,1.14c0.1,0.67.2,1.33,0.37,2a2.89,2.89,0,0,0,.65,1.28,6.09,6.09,0,0,1,1.08,1.77,32.56,32.56,0,0,1,2.14,7.25,13.89,13.89,0,0,1,.19,2.51c0,0.93,0,1.85-.14,2.77a14.31,14.31,0,0,1-.92,4,8.39,8.39,0,0,1-4,4.35,5.31,5.31,0,0,0-.5.27,0.33,0.33,0,0,0-.1.49L86.82,110a0.46,0.46,0,0,0,.36.23c2.25,0.34,4.44,1,6.64,1.54a6.82,6.82,0,0,1,.66.21c2.57,0.94,5.15,1.85,7.67,2.94,1.24,0.54,2.46,1.1,3.68,1.67a9.32,9.32,0,0,1,1,.63,0.43,0.43,0,0,1,.13.13,0.77,0.77,0,0,1,.06.17,0.37,0.37,0,0,1-.17,0c-0.16,0-.32-0.11-0.47-0.17L101,115.28c-2.12-.83-4.28-1.53-6.42-2.29-1.67-.59-3.39-1-5.09-1.49-0.63-.18-1.28-0.25-1.92-0.37a0.11,0.11,0,0,0-.14.15c0.1,0.34.22,0.68,0.33,1a9.46,9.46,0,0,1,.5,3.23,16.91,16.91,0,0,1-.05,1.83,11.64,11.64,0,0,1-1,3.63c-0.23.48-.47,0.94-0.73,1.4a7.3,7.3,0,0,1-2,2.28,12.06,12.06,0,0,1-6.08,2.44,18.1,18.1,0,0,1-2.59,0,11.26,11.26,0,0,1-4.28-1,6.41,6.41,0,0,1-4-5.56c0-.23,0-0.46-0.08-0.69a0.54,0.54,0,0,0-.43-0.48l-0.43-.1a6.83,6.83,0,0,1-5.35-5.78,8,8,0,0,1,0-2.32,4.33,4.33,0,0,1,.31-1.09c0.12-.27.07-0.33-0.23-0.3s-0.84.07-1.25,0.15c-1.59.3-3.19,0.58-4.77,0.93-1.13.25-2.24,0.6-3.36,0.88a38.76,38.76,0,0,0-3.8,1.37,50.76,50.76,0,0,0-5.12,2.31,14.65,14.65,0,0,0-1.59,1l-2.36,1.59Z" transform="translate(-0.35 -0.47)"/><path class="cls-1" d="M71.11,24.65c0.05,0.14.11,0.27,0.16,0.41,0.29,0.84.58,1.67,0.85,2.51a13.67,13.67,0,0,0,.81,2c0.65,1.3,1.25,2.62,2,3.89,0.78,1.43,1.73,2.74,2.62,4.1,1.1,1.68,2.36,3.23,3.6,4.8a15.87,15.87,0,0,0,1.21,1.29Q85,46.35,88,48.85c2.05,1.75,4.1,3.5,6.2,5.19,0.3,0.24.59,0.47,0.91,0.69,1.59,1.07,3.2,2.12,4.77,3.21,1.17,0.8,2.42,1.45,3.65,2.13,1,0.57,2.07,1.12,3.1,1.7s2.33,1.08,3.49,1.62a10,10,0,0,0,2,.71,6.44,6.44,0,0,1,.73.21,18.43,18.43,0,0,0,4.86.67,9.93,9.93,0,0,0,4.25-.75,3.89,3.89,0,0,0,1.55-1.06,7.72,7.72,0,0,0,1.31-1.92,2.32,2.32,0,0,0,.19-0.46,12.94,12.94,0,0,0,.3-3.13,0.74,0.74,0,0,0,0-.25,11,11,0,0,0-.57-1.4,5.33,5.33,0,0,0-1.72-1.81,5.49,5.49,0,0,0-2.82-.77c-0.54,0-1.09,0-1.64,0a2.41,2.41,0,0,0-.68.1,3,3,0,0,1-.55.14A5.1,5.1,0,0,0,115,54.76a2.45,2.45,0,0,0-1,1.56,7.15,7.15,0,0,0,0,3,2.36,2.36,0,0,0,.55,1,3.91,3.91,0,0,0,1,.82,1.29,1.29,0,0,0,.66.19c0.46,0,.93,0,1.39,0a1.2,1.2,0,0,0,1.15-1,5.22,5.22,0,0,0,.11-1.69,1.83,1.83,0,0,0-.4-1,1.08,1.08,0,0,0-.49-0.38,4.77,4.77,0,0,1-1.08-.65,0.24,0.24,0,0,1-.08-0.33,0.25,0.25,0,0,1,.33-0.11,6.78,6.78,0,0,1,2,1,1.27,1.27,0,0,1,.53,1,9.92,9.92,0,0,1,0,1.95,2.28,2.28,0,0,1-2.07,2,6,6,0,0,1-1.89-.1,1.08,1.08,0,0,1-.3-0.09,5.51,5.51,0,0,1-2-1.64,3.85,3.85,0,0,1-.72-1.93,5.55,5.55,0,0,1,.7-3.34,4.71,4.71,0,0,1,1.25-1.32,6.62,6.62,0,0,1,2.4-1.08,18.43,18.43,0,0,1,1.86-.32,6.49,6.49,0,0,1,1.76.14,8.16,8.16,0,0,1,1.35.33A4.91,4.91,0,0,1,124,53.75c0.2,0.18.43,0.34,0.65,0.51A4,4,0,0,1,126,56.16a7.72,7.72,0,0,1,.29,4.35,5.15,5.15,0,0,1-1.22,2.59A5.73,5.73,0,0,1,122.87,65a7.35,7.35,0,0,0-.67.36,5.23,5.23,0,0,1-2.4.71,31.57,31.57,0,0,1-3.66,0,8.11,8.11,0,0,1-1.68-.27c-1.63-.44-3.23-1-4.82-1.52a9.7,9.7,0,0,1-1.09-.5L103,61c-1.77-.9-3.46-1.92-5.21-2.84a67.88,67.88,0,0,1-7-4.49c-1.58-1.09-3-2.35-4.56-3.5s-2.75-2.42-4.12-3.63c-1.77-1.57-3.33-3.33-5-5-1.25-1.29-2.29-2.75-3.43-4.13a29,29,0,0,1-2.32-3.15c-0.07-.11-0.14-0.21-0.22-0.31a0.53,0.53,0,0,0-.12-0.08,2.15,2.15,0,0,0-.2.24,59.46,59.46,0,0,1-3.61,4.79,49.83,49.83,0,0,1-3.73,4.2L62.26,44.4c-1.13,1.19-2.4,2.24-3.58,3.38-1.38,1.34-2.93,2.47-4.42,3.68a85.3,85.3,0,0,1-7.58,5.36c-1,.61-2,1.11-3,1.68-2.71,1.54-5.48,3-8.28,4.34-0.57.28-1.13,0.56-1.68,0.88A16.09,16.09,0,0,1,31,64.81c-1.11.39-2.25,0.72-3.39,1a10.22,10.22,0,0,1-2.63.29l-2.21,0a6,6,0,0,1-3.07-.85c-0.27-.16-0.56-0.29-0.83-0.45a4.54,4.54,0,0,1-1.44-1.21c-0.24-.32-0.47-0.65-0.71-1a6,6,0,0,1-1.06-3.5,7.7,7.7,0,0,1,.55-3.21,3.66,3.66,0,0,1,1.06-1.47c0.49-.43,1-0.81,1.54-1.21A1.85,1.85,0,0,1,19.19,53a10,10,0,0,1,2.73-.74,8.34,8.34,0,0,1,4.66.82,4.79,4.79,0,0,1,2.35,2.29,5.27,5.27,0,0,1,.45,1.76,4.84,4.84,0,0,1,0,1.2,4.44,4.44,0,0,1-2,3.12A3.23,3.23,0,0,1,25.7,62a4.07,4.07,0,0,1-1.93-.2,2.07,2.07,0,0,1-1.29-1.52,8.16,8.16,0,0,1-.1-2.14,1.29,1.29,0,0,1,.55-1,6.82,6.82,0,0,1,2-1,0.23,0.23,0,0,1,.31.12,0.25,0.25,0,0,1-.09.33,6.47,6.47,0,0,1-1,.59,1.54,1.54,0,0,0-1,1.31,5,5,0,0,0,.09,1.82,1.19,1.19,0,0,0,1,1,7.3,7.3,0,0,0,1.58,0,0.72,0.72,0,0,0,.25-0.05,3,3,0,0,0,2-2.14,6.62,6.62,0,0,0,0-2.76,2.6,2.6,0,0,0-1.07-1.65C26.75,54.47,26.38,54.26,26,54a0.83,0.83,0,0,0-.22-0.11,8.9,8.9,0,0,0-2.53-.49,3.39,3.39,0,0,1-.51,0,8.92,8.92,0,0,0-2.57.26,1.28,1.28,0,0,0-.35.14c-0.17.09-.33,0.19-0.49,0.29a4.87,4.87,0,0,0-2.19,2.6,4.46,4.46,0,0,0-.27,1.66,15.43,15.43,0,0,0,.27,2.32,0.78,0.78,0,0,0,.06.24,7.7,7.7,0,0,0,1,1.68c0.11,0.12.23,0.24,0.34,0.38a4.28,4.28,0,0,0,2.13,1.4,15.73,15.73,0,0,0,2.2.55,3.92,3.92,0,0,0,.94.06l3.34-.19a4.51,4.51,0,0,0,1.05-.18c0.4-.12.81-0.23,1.22-0.34a23.43,23.43,0,0,0,3.15-1.13,67.65,67.65,0,0,0,6.07-3.11c0.45-.24.88-0.5,1.33-0.73a26.79,26.79,0,0,0,2.79-1.73c1.34-.91,2.69-1.81,4-2.7,0.4-.27.79-0.56,1.17-0.86,2.61-2.1,5.16-4.27,7.68-6.47,1.63-1.43,3.22-2.91,4.71-4.49,0.44-.46.83-0.95,1.24-1.43a72.33,72.33,0,0,0,4.6-6.42,32.82,32.82,0,0,0,2.11-3.81c0.27-.55.52-1.11,0.8-1.65a29.87,29.87,0,0,0,1.51-4c0.1-.28.19-0.56,0.28-0.84A0.41,0.41,0,0,1,71.11,24.65Z" transform="translate(-0.35 -0.47)"/><path class="cls-5" d="M40,95.39a3.26,3.26,0,0,1-.13,1,0.13,0.13,0,0,1-.13.11,0.27,0.27,0,0,1-.15-0.09,1.67,1.67,0,0,1-.26-0.64q-0.85-3.17-1.72-6.33c-0.09-.34-0.21-0.68-0.33-1-0.37-1-.78-2-1.13-3.08a49.72,49.72,0,0,0-2-4.69c-0.92-2-1.79-4-2.74-6a37.65,37.65,0,0,0-2.22-4l-0.4-.64a0.8,0.8,0,0,1-.14-0.48,0.1,0.1,0,0,1,.17-0.07,3.36,3.36,0,0,1,.24.29c0.62,0.83,1.21,1.68,1.85,2.48a29.66,29.66,0,0,1,2.48,4c1,1.77,1.89,3.62,2.76,5.46a17.77,17.77,0,0,1,.71,2c0.71,2.11,1.43,4.22,2.1,6.35a21.79,21.79,0,0,1,1,4.18A4.28,4.28,0,0,1,40,95.39Z" transform="translate(-0.35 -0.47)"/><path class="cls-5" d="M107.68,95.39a7.76,7.76,0,0,1,.18-1.5,25.35,25.35,0,0,1,1.1-4.4c0.72-2.2,1.47-4.39,2.19-6.59a16.94,16.94,0,0,1,.77-1.93c1.12-2.38,2.38-4.69,3.69-7a4.35,4.35,0,0,1,.28-0.42l2.75-3.7a2.86,2.86,0,0,1,.23-0.3,0.25,0.25,0,0,1,.17,0,0.18,0.18,0,0,1,0,.11,0.78,0.78,0,0,1-.12.42l-0.23.38a43.17,43.17,0,0,0-2.2,3.83c-0.43.82-.77,1.68-1.16,2.52q-1.46,3.15-2.92,6.3c-0.47,1-.8,2.08-1.21,3.12-0.21.53-.39,1.07-0.6,1.6a31.08,31.08,0,0,0-1,3.38q-0.63,2.31-1.25,4.63a1.69,1.69,0,0,1-.2.53c-0.05.08-.09,0.21-0.23,0.17a0.25,0.25,0,0,1-.15-0.25C107.73,96,107.71,95.68,107.68,95.39Z" transform="translate(-0.35 -0.47)"/><path class="cls-5" d="M199.38,133c-0.1,1-.2,1.92-0.28,2.88a0.45,0.45,0,0,1-.53.46c-0.64-.09-1.29-0.15-1.94-0.22l-0.25,0a0.3,0.3,0,0,1-.28-0.41c0.07-.43.16-0.87,0.24-1.3,0.11-.6.23-1.19,0.34-1.79a0.25,0.25,0,0,1,.25-0.23c0.67-.05,1.34-0.11,2-0.15,0.37,0,.48.1,0.47,0.49,0,0.1,0,.21,0,0.31h0Z" transform="translate(-0.35 -0.47)"/><path class="cls-5" d="M158.58,132.21c0.23,0,.46,0,0.69,0a0.34,0.34,0,0,1,.37.4,0.94,0.94,0,0,1,0,.13c-0.11,1.06-.21,2.13-0.34,3.19,0,0.39-.16.46-0.54,0.43l-1.94-.21a2.14,2.14,0,0,1-.31-0.07,0.23,0.23,0,0,1-.18-0.23,2.42,2.42,0,0,1,0-.44c0.16-.89.33-1.77,0.49-2.66a0.38,0.38,0,0,1,.45-0.4c0.42,0,.84-0.07,1.25-0.11h0Z" transform="translate(-0.35 -0.47)"/><path class="cls-2" d="M67.75,108.81c0.1-.29.17-0.55,0.27-0.8a0.49,0.49,0,0,1,.66-0.32L70.1,108a3,3,0,0,0,.44.06,31.36,31.36,0,0,0,3.16,0,7.54,7.54,0,0,0,2.1-.42,1.7,1.7,0,0,0,.45-0.22,0.63,0.63,0,0,1,.71,0l0.23,0.11a10.68,10.68,0,0,0,3.78.91l1,0a0.8,0.8,0,0,0,.24,0,0.13,0.13,0,0,0,.08-0.16,0.2,0.2,0,0,0-.09-0.15,1.79,1.79,0,0,0-.37,0,10.17,10.17,0,0,1-6.77-2.85,11.7,11.7,0,0,1-2.72-4.14,14.24,14.24,0,0,1-1-5,7.48,7.48,0,0,1,1.88-5.28,26.24,26.24,0,0,1,2.5-2.4q0.49-.44,1-0.91a4.15,4.15,0,0,0,.75-1,2.37,2.37,0,0,0,.31-1.15,5.54,5.54,0,0,0,0-1.07,3.38,3.38,0,0,1,.06-1,5.44,5.44,0,0,1,1.09-2.92c0.16-.2.34-0.38,0.51-0.56s0.22-.2.31-0.31a0.45,0.45,0,0,0,0-.53,2.47,2.47,0,0,0-.48-0.58,7.89,7.89,0,0,1-1.35-1.89c0-.09-0.09-0.19-0.13-0.29s-0.07-.26.12-0.35l1-.45a0.3,0.3,0,0,0,.24-0.28,1,1,0,0,0-.54,0c-0.23,0-.45.1-0.68,0.16s-0.42.09-.47-0.35a1.57,1.57,0,0,1,0-.19,0.25,0.25,0,0,1,.21-0.27l1.17-.26a1.9,1.9,0,0,0,.35-0.14A0.3,0.3,0,0,0,79.17,74a0.57,0.57,0,0,0-.47-0.13l-1.07.05a0.2,0.2,0,0,1-.23-0.23,3.42,3.42,0,0,1,.26-1,6.61,6.61,0,0,1,1.6-2.25l0.37-.34A1.15,1.15,0,0,0,80,69.39a13.3,13.3,0,0,0,.13-1.44,7.45,7.45,0,0,0,0-1.7,0.52,0.52,0,0,1,0-.25,0.28,0.28,0,0,1,.49-0.13c0.48,0.48,1,.89,1.45,1.4l0.09,0.09a0.91,0.91,0,0,0,1.29.25A7.59,7.59,0,0,1,85.9,67a4.67,4.67,0,0,1,1.18.17,1.69,1.69,0,0,1,.24.07,0.78,0.78,0,0,0,1.07-.39c0.21-.31.38-0.65,0.57-1a1.9,1.9,0,0,1,.18-0.26,0.22,0.22,0,0,1,.28,0,0.35,0.35,0,0,1,0,.11,28.52,28.52,0,0,1,.29,3.39,2.15,2.15,0,0,1-.14.87,1,1,0,0,0,.07.91c0.15,0.28.31,0.55,0.47,0.82a3.4,3.4,0,0,1,.42.85c-0.42.18-.83,0.34-1.23,0.52a5.8,5.8,0,0,0-.6.34,0.13,0.13,0,0,0,0,.11,0.11,0.11,0,0,0,.08.07,1.85,1.85,0,0,0,.38,0l1.1-.27a1.26,1.26,0,0,1,.57-0.1,3.1,3.1,0,0,1,.05,1.18,0.23,0.23,0,0,1-.3.23c-0.23,0-.46-0.07-0.69-0.06a1.6,1.6,0,0,0-1.13.14,2,2,0,0,0,1,.36c0.22,0.06.46,0.08,0.68,0.13a0.13,0.13,0,0,1,.09.2,3,3,0,0,1-.59.82c-0.8.9-1.56,1.82-2.28,2.78-0.38.51-.72,1-1.08,1.56a1.61,1.61,0,0,0-.28,1.14,20.15,20.15,0,0,0,.38,2.62A3.43,3.43,0,0,0,87.56,86a0.28,0.28,0,0,1,.12.33,0.31,0.31,0,0,1-.4.09,2.64,2.64,0,0,1-1.32-1,7.36,7.36,0,0,1-1-2.16,17.33,17.33,0,0,1-.52-2A1,1,0,0,0,84.37,81a0.19,0.19,0,0,0-.21-0.1A0.13,0.13,0,0,0,84,81a2.59,2.59,0,0,0,0,.44,9.69,9.69,0,0,0,.71,3.25,4.32,4.32,0,0,0,1.12,1.59,2.07,2.07,0,0,0,1.6.62,0.89,0.89,0,0,1,1,.6c0.09,0.21.19,0.42,0.28,0.63a35.84,35.84,0,0,1,1.5,4.55,25.73,25.73,0,0,1,.66,3.66,10.51,10.51,0,0,1,0,2,23.38,23.38,0,0,1-.5,3.62,8.44,8.44,0,0,1-3.21,5.06,12.62,12.62,0,0,1-1.18.73,0.48,0.48,0,0,1-.73-0.12c-0.12-.12-0.23-0.25-0.36-0.35a0.19,0.19,0,0,0-.17,0,0.15,0.15,0,0,0-.08.21c0.08,0.15.17,0.29,0.26,0.43,0.3,0.46.6,0.91,0.89,1.38a1.26,1.26,0,0,1,.25.59,13.22,13.22,0,0,1-1.57-.23,0.27,0.27,0,0,1-.21-0.21L84,108.91a4,4,0,0,0-.17-0.41,0.19,0.19,0,0,0-.26-0.12,0.23,0.23,0,0,0-.11.27,2.51,2.51,0,0,0,.08.31l0.16,0.54a0.48,0.48,0,0,1-.48.05c-0.9-.13-1.79-0.27-2.69-0.39s-2-.21-3-0.34a19.07,19.07,0,0,0-2.52-.1l-5.24,0c-0.48,0-1,0-1.45.07h-0.6Z" transform="translate(-0.35 -0.47)"/><path class="cls-2" d="M70.88,109.32c0.95,0,1.9,0,2.84.06,1.83,0.12,3.65.2,5.47,0.42,1.36,0.16,2.72.31,4.07,0.55l0.13,0c0.62,0.1.64,0.1,0.75,0.71,0.18,1,.36,2,0.45,3.06,0.06,0.71.17,1.42,0.19,2.13a5,5,0,0,1-.54,2.5,6.38,6.38,0,0,1-2.85,2.86,5.25,5.25,0,0,1-4.28.28,6.18,6.18,0,0,1-1.52-.76,3.33,3.33,0,0,1-1.19-1.66,0.65,0.65,0,0,1,.2-0.79c0.24-.21.46-0.43,0.69-0.64a2.32,2.32,0,0,0,.21-2.81,1.46,1.46,0,0,0-.15-0.2A13.52,13.52,0,0,1,73.79,113a2.37,2.37,0,0,0-1.6-1,3.07,3.07,0,0,0-2.95.89,3.59,3.59,0,0,0-.89,1.51l-0.41,1.46a2.24,2.24,0,0,1-.12.36,0.24,0.24,0,0,1-.38.06,2.14,2.14,0,0,1-.46-0.59,4.28,4.28,0,0,1-.48-1.88,7.88,7.88,0,0,1,.41-2.8c0.14-.44.31-0.87,0.46-1.31a0.4,0.4,0,0,1,.43-0.29c0.86,0,1.73-.06,2.59,0h0.51Z" transform="translate(-0.35 -0.47)"/><path class="cls-2" d="M84.62,110.67a0.64,0.64,0,0,1,.48,0,6.09,6.09,0,0,0,.93.17,0.8,0.8,0,0,1,.79.67,11.06,11.06,0,0,1-.38,8.83c-0.26.55-.57,1.08-0.87,1.61a6.89,6.89,0,0,1-2.24,2.27,11.37,11.37,0,0,1-4.9,1.89,11.82,11.82,0,0,1-6.08-.69,7,7,0,0,1-2.11-1.24,5.86,5.86,0,0,1-1.57-2.48,13.85,13.85,0,0,1-.35-1.34,1.5,1.5,0,0,1,0-.31,0.4,0.4,0,0,1,.36-0.44,3.07,3.07,0,0,1,.44,0h2.21a9.92,9.92,0,0,0,1.5-.18l0.37-.08a0.43,0.43,0,0,1,.46.26,0.91,0.91,0,0,1,.08.24A3.7,3.7,0,0,0,75.36,122a6.07,6.07,0,0,0,3.44,1.08,6.83,6.83,0,0,0,2.35-.36,5.62,5.62,0,0,0,1.72-.91,7.19,7.19,0,0,0,2.41-3.26,4.44,4.44,0,0,0,.24-1.93c-0.07-.69-0.06-1.38-0.16-2.07a32.27,32.27,0,0,0-.65-3.53C84.67,110.94,84.65,110.81,84.62,110.67Z" transform="translate(-0.35 -0.47)"/><path class="cls-2" d="M69.92,119.18A9.09,9.09,0,0,1,67,118.8,6.32,6.32,0,0,1,62.71,115a8.19,8.19,0,0,1-.63-2.63,3.64,3.64,0,0,1,.27-1.61c0.12-.29.28-0.57,0.4-0.86a0.43,0.43,0,0,1,.39-0.27c1-.1,2.09-0.2,3.15-0.2a0.14,0.14,0,0,1,.14.21c-0.19.51-.39,1-0.56,1.54a8.83,8.83,0,0,0-.29,3.31,4,4,0,0,0,.23,1.11,3.44,3.44,0,0,0,2,2.19,5.81,5.81,0,0,0,1.44.45c0.1,0,.21,0,0.31,0a10.66,10.66,0,0,0,4.34-.61,1.49,1.49,0,0,1,.3-0.1c0.11,0,.26-0.09.33,0.06a0.29,0.29,0,0,1-.08.29,1.64,1.64,0,0,1-.59.46,7,7,0,0,1-2.22.68A8.22,8.22,0,0,1,69.92,119.18Z" transform="translate(-0.35 -0.47)"/><path class="cls-2" d="M70.52,117.31a4.52,4.52,0,0,1-1.61-.23,0.55,0.55,0,0,1-.45-0.75,9.06,9.06,0,0,1,.67-2.36,3,3,0,0,1,1.12-1.25,2.36,2.36,0,0,1,3.57,1.51,6.34,6.34,0,0,1,.1,1.51,1.63,1.63,0,0,1-.26.77A1,1,0,0,1,73,117,12.31,12.31,0,0,1,70.52,117.31Z" transform="translate(-0.35 -0.47)"/></svg>