<svg id="Layer_1" data-name="Layer 1" xmlns="http://www.w3.org/2000/svg" viewBox="0 0 161.73 160.6"><defs><style>.cls-1{fill:#fefefe;}.cls-2{fill:#0282dc;}.cls-3{fill:#0283dd;}.cls-4{fill:#0383dd;}.cls-5{fill:#feffff;}.cls-6{fill:#fff;}</style></defs><title>לוגו לנייד</title><path class="cls-1" d="M216.93,154.71H55.2V-5.89H216.93v160.6Z" transform="translate(-55.2 5.89)"/><path class="cls-2" d="M192.79,60.62a35.53,35.53,0,0,1-.13,3.65,55.16,55.16,0,0,1-16.59,35.49,56.1,56.1,0,0,1-20.49,12.66,55,55,0,0,1-9,2.34q-2.76.47-5.55,0.69a53.81,53.81,0,0,1-5.71.15,57.51,57.51,0,0,1-8.21-.82,56.19,56.19,0,0,1-26.7-12.46,55.24,55.24,0,0,1-17.3-26.49,54.26,54.26,0,0,1-1.54-6.72A55.31,55.31,0,0,1,81,63.2c-0.09-1.7-.09-3.4,0-5.09,0.05-1.53.19-3,.38-4.56a54.29,54.29,0,0,1,1.39-7.21,55.29,55.29,0,0,1,15-25.51A56.17,56.17,0,0,1,121.25,7.2a54.81,54.81,0,0,1,7.18-1.56,59.17,59.17,0,0,1,6.36-.59c1.19,0,2.38-.06,3.56,0a58,58,0,0,1,8.21.82,56.24,56.24,0,0,1,26.7,12.46,55.21,55.21,0,0,1,17.31,26.54,54.14,54.14,0,0,1,1.69,7.79q0.34,2.41.47,4.84C192.78,58.43,192.78,59.37,192.79,60.62Z" transform="translate(-55.2 5.89)"/><path class="cls-3" d="M181.36,128c0,0.9.09,1.81,0.13,2.71a5.7,5.7,0,0,1,0,.62,1.07,1.07,0,0,1-1.08,1.09c-0.49,0-1,.06-1.47.08l-1.58,0c-0.38,0-.39,0-0.53-0.37a3.91,3.91,0,0,1-.23-1.1c0-.11,0-0.23,0-0.34,0-.9-0.07-0.84.76-0.71l1.34,0.19a0.38,0.38,0,0,0,.51-0.37c0-.26.06-0.52,0.09-0.79,0.08-.79.15-1.58,0.22-2.37a5.44,5.44,0,0,0,0-.73,0.76,0.76,0,0,0-.82-0.81c-0.85,0-1.7,0-2.55-.06a0.57,0.57,0,0,0-.69.67c0,0.6-.07,1.2-0.11,1.81q-0.13,2.2-.25,4.41c0,0.28-.05.33-0.31,0.39a3.8,3.8,0,0,1-2-.12,0.23,0.23,0,0,1-.17-0.31c0-.3.1-0.6,0.15-0.89l0.85-4.62c0-.15,0-0.3.06-0.45a0.48,0.48,0,0,0-.33-0.53l-0.69-.25a3,3,0,0,0-.38-0.12,0.39,0.39,0,0,1-.33-0.44,5,5,0,0,1,.55-2.46c0.12-.23.17-0.25,0.39-0.15l1,0.48a2.39,2.39,0,0,0,1.14.27l1,0,2.77-.17a4.44,4.44,0,0,1,1.13,0,1.56,1.56,0,0,1,1.26,1.35,8.21,8.21,0,0,1,.09.9c0.05,1,.1,2.07.14,3.11h0Z" transform="translate(-55.2 5.89)"/><path class="cls-3" d="M143,127.19q0-1,0-2c0-.09,0-0.19,0-0.28a0.18,0.18,0,0,0-.21-0.2l-0.56.06-0.28,0c-0.55,0-.59.14-0.65-0.54a5.22,5.22,0,0,1,.17-2c0.08-.28.12-0.3,0.39-0.29l2.09,0.12,3.22,0.19,1.52,0.1a1.67,1.67,0,0,1,1.66,1.43,3.24,3.24,0,0,1,.08.5c0.09,1.26.17,2.52,0.26,3.78,0.07,1.05.13,2.11,0.23,3.16a0.83,0.83,0,0,1-.5.9,4.6,4.6,0,0,1-1.84.52,0.22,0.22,0,0,1-.28-0.26c0-.3,0-0.6.07-0.9q0.14-2.15.27-4.29c0-.58.08-1.17,0.11-1.75a1.68,1.68,0,0,0-.06-0.67,0.54,0.54,0,0,0-.59-0.42l-2.26.11-0.9.06c-0.23,0-.27.05-0.25,0.27,0,0.58.08,1.17,0.13,1.75s0.12,1.35.17,2,0.09,1.2.13,1.81a2.44,2.44,0,0,1-.12,1,1.3,1.3,0,0,1-1.06.91c-0.3.05-.6,0.08-0.9,0.11l-1.74.19c-0.25,0-.29,0-0.32-0.26a5.18,5.18,0,0,1,0-1.3c0-.28.09-0.56,0.15-0.83a0.17,0.17,0,0,1,.2-0.15l0.56,0.1c0.56,0.13.94,0.1,1-.75s0.06-1.51.08-2.26h0Z" transform="translate(-55.2 5.89)"/><path class="cls-3" d="M162.94,128c0.08,1.18.17,2.37,0.26,3.55a0.45,0.45,0,0,1-.2.43,3.52,3.52,0,0,1-1.44.64c-0.2,0-.41.07-0.61,0.1s-0.42,0-.39-0.36c0-.11,0-0.22,0-0.34q0.14-2.14.27-4.29c0-.72.09-1.43,0.14-2.14a2.25,2.25,0,0,0,0-.62,0.57,0.57,0,0,0-.67-0.53l-2,.09-1.13.07c-0.19,0-.22.06-0.21,0.26,0,0.47.07,0.94,0.11,1.41,0.06,0.75.12,1.5,0.18,2.25,0,0.6.1,1.2,0.13,1.81a4,4,0,0,1,0,.79,1.39,1.39,0,0,1-1.29,1.28l-0.79.09-1.74.19c-0.21,0-.24,0-0.26-0.2a6.13,6.13,0,0,1,.12-2.14c0-.19.09-0.22,0.27-0.2l0.45,0.08,0.33,0.06a0.53,0.53,0,0,0,.68-0.5,3.33,3.33,0,0,0,.07-0.62c0-1,0-2.07.06-3.11,0-.34,0-0.68,0-1s-0.06-.29-0.31-0.27l-1.07.09c-0.21,0-.25,0-0.29-0.25a5.13,5.13,0,0,1,.14-2.35A0.26,0.26,0,0,1,154,122l0.68,0.05,2.15,0.12c1.32,0.08,2.63.16,4,.22a1.79,1.79,0,0,1,1.88,1.85c0.09,1.09.16,2.18,0.23,3.27,0,0.15,0,.3,0,0.45h0Z" transform="translate(-55.2 5.89)"/><path class="cls-3" d="M130.52,128.87q0-1.47.08-2.94c0-.19,0-0.38,0-0.57a0.57,0.57,0,0,0-.61-0.65h-0.45l-3.17-.06h-0.28a0.19,0.19,0,0,0-.19.23c0,0.08,0,.15,0,0.23q0.1,1.78.2,3.56c0.05,0.9.11,1.81,0.17,2.71,0,0,0,.08,0,0.11a0.45,0.45,0,0,1-.25.52,4.14,4.14,0,0,1-.51.24,5.15,5.15,0,0,1-1.72.26,0.22,0.22,0,0,1-.27-0.27q0.11-1.15.22-2.31c0.1-1,.19-2,0.29-2.93l0.19-2c0-.08,0-0.15,0-0.23a0.17,0.17,0,0,0-.16-0.19,0.67,0.67,0,0,1-.43-0.07,0.79,0.79,0,0,1-.1-0.54,3.06,3.06,0,0,1,.19-1.22,0.43,0.43,0,0,1,.41-0.32l2.93-.23,2.54-.2a4.11,4.11,0,0,1,1.29.06,1.46,1.46,0,0,1,1.16,1.18,5,5,0,0,1,.1.61q0.31,3,.61,6c0.06,0.54.11,1.09,0.19,1.63a0.54,0.54,0,0,1-.3.6,4.14,4.14,0,0,1-2,.53,0.19,0.19,0,0,1-.21-0.21c0-.13,0-0.26,0-0.4q0-1.58,0-3.17h0Z" transform="translate(-55.2 5.89)"/><path class="cls-3" d="M183.45,122.57a4.24,4.24,0,0,1,2.07-.41c1.12,0.06.88,0,1,.91,0.24,1.51.44,3,.66,4.53,0.09,0.62.18,1.23,0.26,1.85a2.39,2.39,0,0,0,.16.66,0.54,0.54,0,0,0,.84.27,1.69,1.69,0,0,0,.82-1.23,6.59,6.59,0,0,0,.08-0.67q0.13-1.69.26-3.38c0-.66.1-1.32,0.14-2a0.5,0.5,0,0,1,.37-0.5,5.07,5.07,0,0,1,2.34-.29,0.54,0.54,0,0,1,.16,0,0.18,0.18,0,0,1,.13.22l-0.11.44q-0.89,3.48-1.78,7a3.93,3.93,0,0,1-2.6,2.84c-1.25.46-2.54,0.83-3.82,1.23-0.27.09-.32,0.06-0.45-0.19a5,5,0,0,1-.52-2.41,0.19,0.19,0,0,1,.21-0.21l1.64-.11h0.17c0.49,0,.75-0.12.52-0.79-0.45-1.3-.87-2.61-1.3-3.92l-1.18-3.54C183.51,122.8,183.49,122.71,183.45,122.57Z" transform="translate(-55.2 5.89)"/><path class="cls-3" d="M119.43,130a2,2,0,0,0,.8,0l0.84-.07a0.21,0.21,0,0,1,.27.21,3.4,3.4,0,0,1-.34,2.09,0.32,0.32,0,0,1-.32.19h-0.17l-5,.14-3.22.1a4.43,4.43,0,0,1-.51,0,0.12,0.12,0,0,1-.1-0.16,2.78,2.78,0,0,1,.1-0.32,7.23,7.23,0,0,1,1.18-2,0.66,0.66,0,0,1,.62-0.29c1.16,0.1,2.33.19,3.49,0.28l0.22,0c0.62,0,.55.06,0.58-0.51,0.07-1.19.14-2.37,0.21-3.56a4.62,4.62,0,0,0,0-.51,1.08,1.08,0,0,0-1-1.07,5.68,5.68,0,0,0-1.13.06l-2.7.29c-0.35,0-.36,0-0.5-0.31a3.48,3.48,0,0,1-.23-2.16c0.05-.25.08-0.27,0.34-0.26l2.14,0.16,1.86,0.17,1.86,0.14a3.58,3.58,0,0,1,1.1.24,1.46,1.46,0,0,1,1,1.45,3.9,3.9,0,0,1-.16.94l-1.11,4.5C119.46,129.78,119.44,129.87,119.43,130Z" transform="translate(-55.2 5.89)"/><path class="cls-3" d="M87.11,121.91c0-.64,0-1.43,0-2.22a0.46,0.46,0,0,1,.36-0.5,4.51,4.51,0,0,1,1.5-.27c0.3,0,.6,0,0.91,0s0.3,0.11.21,0.33l-0.79,1.82-0.42,1a0.13,0.13,0,0,0,.12.19h0.4l3.74-.06a3.14,3.14,0,0,1,.9.1,1.86,1.86,0,0,1,.52.23,1,1,0,0,1,.51.95,2.45,2.45,0,0,1-.25,1l-1.23,2.74L91.49,132l-0.19.41a0.3,0.3,0,0,1-.32.18,5.49,5.49,0,0,1-2-.43L88.75,132c-0.45-.28-0.47-0.33-0.17-0.78l4-6a4.8,4.8,0,0,0,.27-0.43,0.28,0.28,0,0,0-.15-0.38,0.66,0.66,0,0,0-.39-0.05l-4.84.48-0.28,0a0.17,0.17,0,0,1-.18-0.18c0-.11,0-0.23,0-0.34C87.06,123.53,87.08,122.8,87.11,121.91Z" transform="translate(-55.2 5.89)"/><path class="cls-3" d="M109.78,128.43c0,1.13.1,2.26,0.13,3.39,0,0.57.08,0.54-.56,0.7a4.1,4.1,0,0,1-1.8,0c-0.19,0-.22-0.08-0.2-0.27,0.11-1.31.23-2.63,0.34-3.94,0.07-.79.13-1.58,0.19-2.37,0,0,0-.08,0-0.11a0.77,0.77,0,0,0-.86-0.93c-1.33-.12-2.67-0.23-4-0.36-0.64-.06-0.65,0-0.72-0.74a4.48,4.48,0,0,1,0-1.18c0.05-.3.08-0.31,0.42-0.33l1-.07,3.05-.15a3.88,3.88,0,0,1,1,.07,2.29,2.29,0,0,1,1.78,2c0,0.26.06,0.53,0.07,0.79,0,1.17.09,2.34,0.13,3.51h0Z" transform="translate(-55.2 5.89)"/><path class="cls-3" d="M169.16,127.7q0,1.81,0,3.62a1.75,1.75,0,0,0,0,.28,0.45,0.45,0,0,1-.34.51,5,5,0,0,1-1.29.41l-0.73.09a0.15,0.15,0,0,1-.18-0.17,4.79,4.79,0,0,1,0-.51q0.27-2,.54-4.09c0.06-.43.12-0.86,0.18-1.29a4.61,4.61,0,0,0,0-.68,0.4,0.4,0,0,0-.37-0.43c-0.18,0-.37-0.06-0.56-0.08l-1-.11a0.27,0.27,0,0,1-.26-0.25,5.36,5.36,0,0,1,.18-2.73,0.23,0.23,0,0,1,.33-0.19l2.48,0.56a1,1,0,0,1,.8.91,4.69,4.69,0,0,1,0,.51q0,1.81,0,3.62h0.06Z" transform="translate(-55.2 5.89)"/><path class="cls-3" d="M99.37,138.44a1.79,1.79,0,0,0-.67,0H98.2a0.14,0.14,0,0,1-.15-0.18,2.7,2.7,0,0,1,.8-1.34,0.36,0.36,0,0,1,.26-0.1h0.34l3.45,0.05a3,3,0,0,1,.67.07,1,1,0,0,1,.88,1,2.78,2.78,0,0,1,0,.45c0,1.15-.07,2.3-0.11,3.45a0.75,0.75,0,0,1-.74.84c-0.39.06-.78,0.1-1.18,0.15l-2.64.3a2.15,2.15,0,0,1-.68,0,0.78,0.78,0,0,1-.66-0.74,1.76,1.76,0,0,1,.07-0.61c0.26-1,.52-2,0.77-3C99.33,138.66,99.35,138.57,99.37,138.44Z" transform="translate(-55.2 5.89)"/><path class="cls-3" d="M135,138.42h-1.07c-0.21,0-.31,0-0.23-0.32a2.85,2.85,0,0,1,.66-1.11,0.59,0.59,0,0,1,.5-0.21l1.13,0,2.6,0a3.15,3.15,0,0,1,.62.07,1,1,0,0,1,.85.87,2.88,2.88,0,0,1,.05.67L140,141.5c0,0.09,0,.19,0,0.28a0.78,0.78,0,0,1-.76.83c-0.84.12-1.68,0.21-2.52,0.31-0.45.05-.9,0.11-1.35,0.15a2.53,2.53,0,0,1-.62,0,0.74,0.74,0,0,1-.64-0.69,2.09,2.09,0,0,1,.08-0.78l0.67-2.57C134.91,138.83,134.95,138.65,135,138.42Z" transform="translate(-55.2 5.89)"/><path class="cls-3" d="M84,143.09H83.16a0.29,0.29,0,0,1-.3-0.21,2.73,2.73,0,0,1-.15-1.28,0.14,0.14,0,0,1,.15-0.14l0.39,0,0.45,0.07c0.53,0.07.58,0.06,0.62-.49s0.11-1.12.17-1.69a1.78,1.78,0,0,0,0-.34,0.43,0.43,0,0,0-.42-0.45c-0.56,0-1.13,0-1.69,0a0.27,0.27,0,0,0-.28.24,4.09,4.09,0,0,0-.06.5c-0.06,1-.11,2-0.16,3,0,0,0,0,0,.06,0,0.57-.09.63-0.68,0.63H80.93c-0.64-.07-0.68-0.13-0.56-0.78l0.5-2.72c0-.11,0-0.22,0-0.34a0.35,0.35,0,0,0-.29-0.47l-0.27-.09c-0.5-.18-0.48-0.08-0.48-0.67a2.53,2.53,0,0,1,.15-0.77c0.21-.65.23-0.67,0.83-0.35a2.19,2.19,0,0,0,1.2.25l2.14-.12H84.5a1,1,0,0,1,1,1c0,0.41.05,0.83,0.07,1.24q0.07,1.38.14,2.77s0,0.08,0,.11a0.77,0.77,0,0,1-.84.9c-0.3,0-.6,0-0.9,0v0.05Z" transform="translate(-55.2 5.89)"/><path class="cls-3" d="M89.69,140.17c0,0.55.09,1.09,0.13,1.64a1.38,1.38,0,0,1-.13.66,0.71,0.71,0,0,1-.54.46c-0.58.09-1.16,0.15-1.74,0.22a0.16,0.16,0,0,1-.18-0.17,4.44,4.44,0,0,1,0-1.18c0.05-.27.13-0.27,0.36-0.23a2.9,2.9,0,0,0,.39.05,0.3,0.3,0,0,0,.33-0.25,1.48,1.48,0,0,0,0-.28q0-1.16.07-2.32c0-.08,0-0.15,0-0.23a0.16,0.16,0,0,0-.18-0.17l-0.45,0c-0.35,0-.36,0-0.42-0.36a3.17,3.17,0,0,1,.1-1.18c0-.2.13-0.24,0.39-0.23l2,0.12,1.58,0.1a4.49,4.49,0,0,1,.51,0,1.07,1.07,0,0,1,1,1.05c0,0.41.07,0.83,0.1,1.24,0.07,1,.14,2,0.21,2.93a0.65,0.65,0,0,1-.52.86,2.15,2.15,0,0,1-.48.16c-0.68.12-.67,0.07-0.62-0.57,0.07-.86.12-1.73,0.18-2.6,0-.32,0-0.64.07-1,0-.09,0-0.19,0-0.28,0-.46-0.11-0.57-0.57-0.56l-1.58.06c-0.24,0-.29.08-0.27,0.32C89.59,139.08,89.64,139.63,89.69,140.17Z" transform="translate(-55.2 5.89)"/><path class="cls-3" d="M162,140.8c0-.68,0-1.36,0-2,0-.35-0.08-0.44-0.43-0.45-0.7,0-1.39,0-2.09,0-0.25,0-.28,0-0.26.31l0.19,3.33c0,0.13,0,.27,0,0.4a0.44,0.44,0,0,1-.34.51,2.73,2.73,0,0,1-1.16.2,0.2,0.2,0,0,1-.21-0.26c0-.53.1-1,0.15-1.57l0.26-2.64c0-.16,0-0.3-0.2-0.32a0.22,0.22,0,0,1-.2-0.24,2.86,2.86,0,0,1,0-.51,0.57,0.57,0,0,1,.68-0.64l1.86-.14,1.07-.09a4.6,4.6,0,0,1,.62,0,1,1,0,0,1,1,1c0,0.26.06,0.52,0.09,0.79l0.36,3.54c0,0.13,0,.27,0,0.39a0.48,0.48,0,0,1-.31.59,2.61,2.61,0,0,1-1,.26,0.2,0.2,0,0,1-.22-0.2c0-.15,0-0.3,0-0.45,0-.57,0-1.13.06-1.69h0Z" transform="translate(-55.2 5.89)"/><path class="cls-3" d="M124.73,136.71H125a0.3,0.3,0,0,1,.33.31q0.23,1.62.46,3.25c0,0.34.08,0.67,0.15,1a0.46,0.46,0,0,0,.33.48,0.57,0.57,0,0,0,.51-0.31,1.36,1.36,0,0,0,.24-0.74c0-.53.08-1.05,0.12-1.58s0.09-1.2.13-1.8a0.31,0.31,0,0,1,.19-0.31,2.92,2.92,0,0,1,1.5-.19,0.18,0.18,0,0,1,.16.24c0,0.13-.06.26-0.09,0.39-0.33,1.3-.68,2.59-1,3.89a2.61,2.61,0,0,1-1.87,2l-2,.65c-0.24.08-.27,0.05-0.39-0.18a2.71,2.71,0,0,1-.27-0.92c-0.09-.73-0.07-0.64.52-0.67l0.84-.08a0.18,0.18,0,0,0,.18-0.23,4.58,4.58,0,0,0-.13-0.49l-1.3-3.92-0.12-.38a0.16,0.16,0,0,1,.11-0.22,2.76,2.76,0,0,1,.88-0.2h0.33Z" transform="translate(-55.2 5.89)"/><path class="cls-3" d="M155.32,141.43a1,1,0,0,0,.55,0h0.39a0.16,0.16,0,0,1,.15.14,2,2,0,0,1-.21,1.26,0.26,0.26,0,0,1-.23.15H155.7l-4.58.13h-0.59a0.32,0.32,0,0,1,0-.31,4.39,4.39,0,0,1,.69-1.23,0.54,0.54,0,0,1,.53-0.24l1.86,0.16,0.45,0a0.18,0.18,0,0,0,.19-0.17c0-.09,0-0.19,0-0.28,0-.66.08-1.32,0.12-2a0.75,0.75,0,0,0-1-1c-0.58,0-1.16.13-1.74,0.19s-0.52,0-.64-0.42a2.06,2.06,0,0,1-.08-1c0.05-.24.1-0.29,0.34-0.27l1,0.06,2.48,0.21a2.93,2.93,0,0,1,.61.11,0.94,0.94,0,0,1,.71,1.12,5.35,5.35,0,0,1-.12.55l-0.57,2.3A0.73,0.73,0,0,0,155.32,141.43Z" transform="translate(-55.2 5.89)"/><path class="cls-3" d="M85.12,125.43c0,0.68,0,1.36,0,2a0.38,0.38,0,0,1-.29.41,5.42,5.42,0,0,1-2.06.29c-0.24,0-.29-0.07-0.28-0.32s0-.45.05-0.68c0.05-.58.11-1.16,0.16-1.75a0.57,0.57,0,0,0-.49-0.76c-0.35-.14-0.7-0.28-1.06-0.39a0.41,0.41,0,0,1-.3-0.36,2.69,2.69,0,0,1,.1-1.28,0.29,0.29,0,0,1,.29-0.22l2.31-.23a1.6,1.6,0,0,1,.83.1,1.08,1.08,0,0,1,.72,1c0,0.7,0,1.4,0,2.09h0Z" transform="translate(-55.2 5.89)"/><path class="cls-3" d="M164.5,136.75c0-.49.06-1,0.06-1.47a0.38,0.38,0,0,1,.31-0.4,2.49,2.49,0,0,1,.78-0.13c0.89,0,.89,0,0.54.75q-0.23.52-.45,1c-0.07.17,0,.24,0.18,0.24l1,0,1.24,0a2,2,0,0,1,.72.11,0.73,0.73,0,0,1,.5.94,3,3,0,0,1-.17.48l-2,4.44-0.12.25a0.2,0.2,0,0,1-.18.12,2.59,2.59,0,0,1-1.51-.4c-0.16-.11-0.18-0.2-0.06-0.38l1.88-2.83,0.62-.94a1,1,0,0,0,.12-0.25,0.13,0.13,0,0,0-.1-0.17,1.55,1.55,0,0,0-.56,0l-2.59.26c-0.2,0-.27,0-0.27-0.26,0-.45,0-0.91,0-1.36h0Z" transform="translate(-55.2 5.89)"/><path class="cls-3" d="M71.19,138.4l-1.8.13H68.94a0.17,0.17,0,0,1-.18-0.17,3.11,3.11,0,0,1,.3-1.48,0.27,0.27,0,0,1,.32-0.16l1,0.13L71.46,137a5.41,5.41,0,0,0,2-.09l0.66-.16c0.41-.1.43-0.08,0.51,0.34a2.6,2.6,0,0,1,0,1.12,0.32,0.32,0,0,1-.3.27,0.69,0.69,0,0,0-.76.88c0,0.36,0,.72,0,1.07,0,0.53.06,1.05,0.08,1.58,0,0.69,0,.74-0.65,1a2.08,2.08,0,0,1-.6.14c-0.63,0-.64,0-0.57-0.58,0.13-1.07.27-2.13,0.41-3.2a3.27,3.27,0,0,0,0-.56,0.45,0.45,0,0,0-.47-0.46H71.19v0Z" transform="translate(-55.2 5.89)"/><path class="cls-3" d="M113.79,140.57c0,0.66.06,1.32,0.08,2,0,0.44,0,.46-0.45.55a2.61,2.61,0,0,1-1,0,0.21,0.21,0,0,1-.2-0.23c0-.17,0-0.34,0-0.51q0.14-1.55.28-3.1c0.06-.64,0-0.78-0.66-0.84s-1.24-.11-1.86-0.16c-0.93-.08-0.87,0-0.86-1,0-.49,0-0.49.52-0.52l2-.11a5.31,5.31,0,0,1,.62,0,1.39,1.39,0,0,1,1.34,1.23,7.49,7.49,0,0,1,.07.84c0,0.6,0,1.21.06,1.81h0Z" transform="translate(-55.2 5.89)"/><path class="cls-4" d="M149.4,140.4q0.05,1.07.11,2.15a2.05,2.05,0,0,1,0,.28,0.2,0.2,0,0,1-.13.17,2.37,2.37,0,0,1-1.33.1,0.21,0.21,0,0,1-.17-0.26q0.12-1.38.25-2.76c0-.32.06-0.64,0.07-1,0-.52-0.06-0.62-0.59-0.68s-1.24-.11-1.86-0.17l-0.67-.07a0.25,0.25,0,0,1-.22-0.21,2,2,0,0,1,0-.62c0-.53,0-0.55.59-0.58l1.92-.1h0.51a1.45,1.45,0,0,1,1.49,1.4c0,0.19,0,.38,0,0.57q0,0.88.08,1.75h0Z" transform="translate(-55.2 5.89)"/><path class="cls-4" d="M118.39,137.77c0,0.58,0,.6-0.53.71-0.7.13-.67,0.28-0.62,0.88q0.15,1.57.31,3.15l0,0.22a0.22,0.22,0,0,1-.18.25,2.5,2.5,0,0,1-1,0l-0.16,0c-0.47-.12-0.47-0.12-0.42-0.62,0.09-.9.19-1.8,0.28-2.7,0-.26,0-0.53.05-0.79a0.3,0.3,0,0,0-.32-0.37l-0.45-.06c-0.19,0-.24-0.09-0.23-0.26a3.1,3.1,0,0,1,.29-1.2,0.34,0.34,0,0,1,.4-0.22c0.22,0,.45,0,0.67.06a4.38,4.38,0,0,0,1.34-.15c0.26,0,.3,0,0.38.2A2.24,2.24,0,0,1,118.39,137.77Z" transform="translate(-55.2 5.89)"/><path class="cls-4" d="M122.17,140.11c0,0.75,0,1.51,0,2.26a0.45,0.45,0,0,1-.3.48,4.42,4.42,0,0,1-1,.27,0.21,0.21,0,0,1-.25-0.27c0.08-.6.16-1.2,0.24-1.79s0.16-1.2.24-1.79c0-.38,0-0.48-0.4-0.52l-0.67-.09a0.23,0.23,0,0,1-.23-0.21,3.54,3.54,0,0,1,.09-1.57c0.06-.19.12-0.23,0.34-0.18,0.46,0.09.92,0.19,1.38,0.31a0.63,0.63,0,0,1,.56.73c0,0.79,0,1.58,0,2.38h0Z" transform="translate(-55.2 5.89)"/><path class="cls-4" d="M143.87,138.75c0,0.4,0,.79,0,1.19a0.3,0.3,0,0,1-.24.33,3.1,3.1,0,0,1-1.17.17,0.23,0.23,0,0,1-.26-0.28c0-.38.07-0.75,0.1-1.13,0-.62.06-0.6-0.51-0.82l-0.21-.08a0.46,0.46,0,0,1-.39-0.53,0.77,0.77,0,0,1,0-.17c0.1-.48,0-0.54.58-0.59l1-.1a1.64,1.64,0,0,1,.39,0,0.75,0.75,0,0,1,.68.77c0,0.41,0,.83,0,1.24h0Z" transform="translate(-55.2 5.89)"/><path class="cls-4" d="M78.46,138.76c0,0.38,0,.75,0,1.13a0.34,0.34,0,0,1-.26.38,3.18,3.18,0,0,1-1.17.16,0.21,0.21,0,0,1-.22-0.26c0-.3,0-0.6.07-0.9s0-.34,0-0.51a0.36,0.36,0,0,0-.3-0.47L76,138.05a0.28,0.28,0,0,1-.19-0.26,1.66,1.66,0,0,1,0-.17c0-.78.1-0.75,0.7-0.8l0.84-.09a1.32,1.32,0,0,1,.56,0,0.68,0.68,0,0,1,.54.7c0,0.43,0,.87,0,1.3h0Z" transform="translate(-55.2 5.89)"/><path class="cls-4" d="M108.25,138.74c0,0.36,0,.71,0,1.07s0,0.4-.39.5a2.32,2.32,0,0,1-.44.09c-0.93.07-.83,0.08-0.78-0.72,0-.34.06-0.67,0.09-1a0.32,0.32,0,0,0-.23-0.35l-0.68-.26a0.3,0.3,0,0,1-.21-0.3,3.56,3.56,0,0,1,0-.39,0.44,0.44,0,0,1,.5-0.53l1.12-.12a1.13,1.13,0,0,1,.5,0,0.68,0.68,0,0,1,.51.66c0,0.43,0,.87,0,1.3h0Z" transform="translate(-55.2 5.89)"/><path class="cls-5" d="M129.08,89a0.58,0.58,0,0,0,.14,0L132,88.9a0.38,0.38,0,0,0,.36-0.21,7,7,0,0,0,.88-3.13,5.64,5.64,0,0,0,0-1.35,0.32,0.32,0,0,1,0-.16,0.11,0.11,0,0,1,.08-0.06,0.25,0.25,0,0,1,.15,0,0.23,0.23,0,0,1,.08.14,8.32,8.32,0,0,1,.1,1.35c0,0.45,0,.9,0,1.36a0.4,0.4,0,0,0,.45.45h5.83a2.76,2.76,0,0,0,.39,0,0.21,0.21,0,0,0,.12-0.1,0.17,0.17,0,0,0,0-.21,1.24,1.24,0,0,0-.17-0.14,11.39,11.39,0,0,1-4.55-7.62,11.82,11.82,0,0,1-.2-2.59,7.19,7.19,0,0,1,1.64-4.42,15,15,0,0,1,1.36-1.44L140,69.43a5.75,5.75,0,0,0,.85-1,1.5,1.5,0,0,0,.29-0.9c0-.49,0-1,0-1.47a5.54,5.54,0,0,1,1.07-3.28c0.5-.66.45-0.63,0-1.2a7.31,7.31,0,0,1-1-1.72c-0.09-.22-0.12-0.23-0.34-0.18l-1,.27a1.9,1.9,0,0,1-.62.07,0.1,0.1,0,0,1-.08-0.06,0.11,0.11,0,0,1,0-.1,2.25,2.25,0,0,1,.34-0.2l1-.44L141,59.1a0.67,0.67,0,0,0,0-.17c-0.07-.91,0-0.72-0.77-0.7a5.71,5.71,0,0,1-1.07,0,0.1,0.1,0,0,1-.07-0.07,0.11,0.11,0,0,1,0-.09,4.09,4.09,0,0,1,1-.29l0.61-.12a0.15,0.15,0,0,0,.13-0.16,4.37,4.37,0,0,1,.31-1.49,0.49,0.49,0,0,0-.09-0.48L141,55.27a9.5,9.5,0,0,1-1.19-1.71,3.54,3.54,0,0,1-.43-2,14.44,14.44,0,0,0-.19-3.94,7.6,7.6,0,0,0-.48-1.45,1.37,1.37,0,0,0-.18-0.28,0.22,0.22,0,0,0-.31,0,1.7,1.7,0,0,0-.16.23,10.77,10.77,0,0,1-2.42,2.75,5.26,5.26,0,0,1-.61.41,1.78,1.78,0,0,1-.92.22,1,1,0,0,1-1-.64,1.69,1.69,0,0,1-.15-0.82,10.77,10.77,0,0,0,0-2.31,3.27,3.27,0,0,1,0-.45,18.65,18.65,0,0,0-.33-3.2,5.88,5.88,0,0,0-.56-1.66,1.8,1.8,0,0,0-1.31-1.06,0.19,0.19,0,0,1-.1,0,0.25,0.25,0,0,1-.08-0.14,0.21,0.21,0,0,1,.06-0.14,0.35,0.35,0,0,1,.27-0.06,1.79,1.79,0,0,1,1.08.43,2.92,2.92,0,0,1,.64.78,7.24,7.24,0,0,1,.76,2.12,19.77,19.77,0,0,1,.41,3.31c0,0.64.07,1.28,0,1.92a1.55,1.55,0,0,0,.13.72,0.38,0.38,0,0,0,.56.2,3.81,3.81,0,0,0,.88-0.61,10.55,10.55,0,0,0,1.74-1.93,4.38,4.38,0,0,0,.67-1.55,9.4,9.4,0,0,0,.17-3.21,10,10,0,0,0-.29-1.84,6.62,6.62,0,0,0-.9-1.88,2.64,2.64,0,0,0-.83-0.76,1.55,1.55,0,0,0-1.36-.17c-0.5.17-1,.35-1.49,0.54a2.93,2.93,0,0,1-1.89.09c-0.25-.07-0.5-0.16-0.75-0.24l-0.26-.1a0.53,0.53,0,0,0-.78.4,4.81,4.81,0,0,0-.24,1.45c0,1.15,0,2.3,0,3.45,0,0.77.12,1.54,0.19,2.31a3.29,3.29,0,0,1,0,.4,0.11,0.11,0,0,1-.1.12,0.18,0.18,0,0,1-.2-0.07,2,2,0,0,1-.13-0.43,30.29,30.29,0,0,1-.46-3,8.11,8.11,0,0,1-.07-2.08,4.64,4.64,0,0,0,0-1,4.37,4.37,0,0,1,.2-1.45,1.63,1.63,0,0,1,.08-0.21,1.15,1.15,0,0,1,1.36-.75,2.89,2.89,0,0,1,.49.15l0.63,0.25a2.51,2.51,0,0,0,1.87.07,6.86,6.86,0,0,1,1.64-.43,2.41,2.41,0,0,1,1.93.61,4.83,4.83,0,0,1,1.25,1.79,10.79,10.79,0,0,1,.84,4.07,10.6,10.6,0,0,1-.17,2.36,0.65,0.65,0,0,0,.17.63,5,5,0,0,1,1.2,2.58,12.16,12.16,0,0,1,.22,2.59,7.8,7.8,0,0,1-.07,1,2.72,2.72,0,0,0,.28,1.48,11.66,11.66,0,0,0,1,1.8,1,1,0,0,0,.14.18,0.23,0.23,0,0,0,.31,0,0.84,0.84,0,0,0,.2-0.2,7.36,7.36,0,0,1,1-1.08,1.59,1.59,0,0,0,.52-1.09c0.1-1.07.2-2.14,0.23-3.21a0.85,0.85,0,0,1,.15-0.53,0.31,0.31,0,0,1,.45-0.08,3.48,3.48,0,0,1,.43.36l1.56,1.56,0.28,0.28a0.62,0.62,0,0,0,.72.15,6.26,6.26,0,0,1,1.37-.34c0.27,0,.53,0,0.79,0a3.39,3.39,0,0,1,1.34.1,0.44,0.44,0,0,0,.49-0.21,4.12,4.12,0,0,0,.3-0.48c0.23-.43.45-0.87,0.68-1.3a1.91,1.91,0,0,1,.2-0.34,0.26,0.26,0,0,1,.45.08,1,1,0,0,1,.06.27c0.11,1,.23,2,0.33,3a7.23,7.23,0,0,1,0,.79c0,0.51,0,1,0,1.53a0.82,0.82,0,0,0,.12.43l0.7,1.23a0.25,0.25,0,0,0,.34.11c0.33-.09.65-0.19,1-0.26s0.6-.06.56,0a0.67,0.67,0,0,1-.44.32c-0.34.16-.69,0.29-1,0.44a0.17,0.17,0,0,0-.13.16,9.21,9.21,0,0,1,.09,1.47l1.24,0.26a3.42,3.42,0,0,1,.48.17,0.15,0.15,0,0,1,0,.09s0,0.07-.07.07a6.21,6.21,0,0,1-1.07,0,2.17,2.17,0,0,0-.73,0,1.08,1.08,0,0,0-.38.6,8.43,8.43,0,0,1-.78,1.11,31.09,31.09,0,0,0-2.31,3.21,1.46,1.46,0,0,0-.21,1.07c0.09,0.52.16,1,.28,1.56a2.87,2.87,0,0,0,.69,1.41,4.62,4.62,0,0,1,.83,1.34,28.72,28.72,0,0,1,1.94,6.43,12.09,12.09,0,0,1,.23,1.91,22,22,0,0,1-.1,2.7,16.88,16.88,0,0,1-.54,3,7.72,7.72,0,0,1-3.9,4.84,4,4,0,0,0-.44.25,0.27,0.27,0,0,0-.08.35c0.24,0.41.49,0.81,0.74,1.21a0.37,0.37,0,0,0,.29.15l0.89,0.16c1.58,0.29,3.12.74,4.68,1.12a19,19,0,0,1,2,.68c1.93,0.71,3.87,1.4,5.75,2.22q1.69,0.73,3.35,1.52a8,8,0,0,1,1,.6,0.19,0.19,0,0,1,.1.24,0.16,0.16,0,0,1-.21,0l-0.53-.2c-2-.78-4-1.58-6-2.32a92.39,92.39,0,0,0-8.88-2.87l-0.55-.12-1.26-.22a0.27,0.27,0,0,0,0,.32c0.18,0.58.39,1.14,0.52,1.73a8,8,0,0,1,.14,1.06,11.23,11.23,0,0,1-.67,5.12,13.45,13.45,0,0,1-1.26,2.4,7.73,7.73,0,0,1-2.81,2.4,11.2,11.2,0,0,1-3.74,1.24,6.85,6.85,0,0,1-1,.07c-0.72,0-1.43,0-2.15,0a5.22,5.22,0,0,1-.84-0.12,12,12,0,0,1-2.28-.66A5.74,5.74,0,0,1,133.1,100a5.21,5.21,0,0,1-.11-0.9,1.55,1.55,0,0,0,0-.28,0.55,0.55,0,0,0-.47-0.49,6.61,6.61,0,0,1-1.62-.49,6,6,0,0,1-3.17-3.45,6.77,6.77,0,0,1-.27-3.73,5.58,5.58,0,0,1,.32-0.87,1.21,1.21,0,0,0-.63,0q-0.89.14-1.78,0.3l-3.17.61c-1,.2-2,0.53-3,0.77a18.1,18.1,0,0,0-2.41.81c-0.84.34-1.69,0.64-2.53,1-0.64.27-1.27,0.58-1.9,0.88l-0.92.44a8.15,8.15,0,0,0-1.18.67c-0.88.61-1.78,1.21-2.67,1.81l-0.33.2a9,9,0,0,1-1.35-1.36,0.27,0.27,0,0,1,.24-0.19c0.74-.38,1.48-0.76,2.18-1.19A35.34,35.34,0,0,1,113,92.2a40.33,40.33,0,0,1,4.61-1.55c0.9-.26,1.84-0.42,2.76-0.6,1.35-.26,2.72-0.44,4.08-0.6q1.69-.19,3.38-0.31a0.37,0.37,0,0,0,.35-0.23c0.14-.31.3-0.61,0.43-0.92s0-.54-0.37-0.5c-1.09.13-2.16,0.35-3.23,0.53s-2,.34-3.07.49c-0.32,0-.64,0-1,0.06a1.41,1.41,0,0,0-.28,0,5,5,0,0,1-1.57,0,2,2,0,0,1-1-.35,1.16,1.16,0,0,1-.2-1.73,2.13,2.13,0,0,1,.85-0.55,8.87,8.87,0,0,1,2.32-.47c0.28,0,.56-0.05.84-0.1a0.18,0.18,0,0,0,.1-0.31,1.79,1.79,0,0,0-.22-0.18A16.1,16.1,0,0,1,119.56,83a8.13,8.13,0,0,1-2.09-3.32,4.79,4.79,0,0,1-.23-1.22,7.83,7.83,0,0,1,.34-3,3.26,3.26,0,0,1,2.79-2.25c0.56-.08,1.12-0.14,1.68-0.2a1.55,1.55,0,0,0,1.1-.63c0.38-.49.77-1,1.15-1.47,1.29-1.67,2.6-3.33,3.77-5.1,0.49-.74,1-1.49,1.4-2.26a13.11,13.11,0,0,0,.64-1.38,1.42,1.42,0,0,0,0-1.15,3,3,0,0,1-.21-1.11,1.62,1.62,0,0,1,.52-1.27c0.17-.15.34-0.3,0.49-0.47a2.19,2.19,0,0,0,.5-0.81,1.25,1.25,0,0,0-.13-1,0.44,0.44,0,0,0-.58-0.23,2.19,2.19,0,0,0-.68.39l-1,.78a13.09,13.09,0,0,1-3.8,2.1,5.49,5.49,0,0,1-2.9.25,3.86,3.86,0,0,1-1.32-.49A7.45,7.45,0,0,1,119,57.17a2.21,2.21,0,0,1-.38-1.61,0.87,0.87,0,0,1,.19-0.46,4.68,4.68,0,0,1,1.06-1,1.75,1.75,0,0,1,1-.28,2.18,2.18,0,0,0,1.33-.54,11.24,11.24,0,0,0,2-2,2.62,2.62,0,0,0,.16-0.23,0.42,0.42,0,0,0,0-.53l-0.1-.14a3.73,3.73,0,0,1-.83-2.63,4.16,4.16,0,0,1,.74-2.34c0.22-.33.48-0.63,0.73-0.93a1.41,1.41,0,0,1,.25-0.23,0.24,0.24,0,0,1,.31,0,0.21,0.21,0,0,1,0,.3l-0.63.94a5,5,0,0,0-.58,1.16,3.51,3.51,0,0,0-.05,2.12,2.68,2.68,0,0,0,.48,1l0.18,0.22a1.14,1.14,0,0,1,.08,1.71,12.59,12.59,0,0,1-2.34,2.45l-0.14.1a0.8,0.8,0,0,0-.33.68,7.24,7.24,0,0,1-.06.84,2,2,0,0,1-1.09,1.56c-0.08,0-.17.08-0.25,0.13a0.22,0.22,0,0,0,0,.38,4.18,4.18,0,0,0,3,1.22,5.53,5.53,0,0,0,1.55-.3,13.1,13.1,0,0,0,1.86-.83,1.28,1.28,0,0,0,.56-0.54,9.92,9.92,0,0,0,.94-2.48c0-.18.06-0.37,0.08-0.56a0.89,0.89,0,0,0-.5-1,0.94,0.94,0,0,1-.42-0.45,0.28,0.28,0,0,1,0-.36,0.26,0.26,0,0,1,.31,0,10.86,10.86,0,0,0,1.22.46,0.24,0.24,0,0,1,.1.44,0.71,0.71,0,0,0-.24.71,4.28,4.28,0,0,1-.27,2.11,0.8,0.8,0,0,0-.09.38,0.13,0.13,0,0,0,.15.11,1.16,1.16,0,0,0,.38-0.25,4.64,4.64,0,0,1,.84-0.57l0.2-.1a1,1,0,0,1,1.46.56c0.05,0.13.06,0.32,0.26,0.32a0.41,0.41,0,0,0,.31-0.29A11.07,11.07,0,0,0,133.93,53a3,3,0,0,1,.11-0.32,0.17,0.17,0,0,1,.19-0.09,0.15,0.15,0,0,1,.14.14,4.22,4.22,0,0,1-.09,1.4,5.82,5.82,0,0,1-1.9,3.15,4.75,4.75,0,0,0-.8.87,6.66,6.66,0,0,1-.6.67l-0.27.29a1.19,1.19,0,0,0-.26,1.16c0,0.14.08,0.29,0.13,0.43a2.57,2.57,0,0,1-.08,2,15.64,15.64,0,0,1-.77,1.64c-0.46.85-1,1.66-1.5,2.47-1.31,2-2.79,3.94-4.21,5.89a2.72,2.72,0,0,1-2.24,1.2,7.7,7.7,0,0,0-1.45.21,2.43,2.43,0,0,0-1.82,1.54,5.63,5.63,0,0,0-.38,2.15,6,6,0,0,0,1.36,3.59,12.8,12.8,0,0,0,2.36,2.35c0.56,0.45,1.16.85,1.75,1.25a2.38,2.38,0,0,1,.43.36,0.43,0.43,0,0,1-.08.68,1.11,1.11,0,0,1-.64.19c-0.6,0-1.21.05-1.81,0.1a13.5,13.5,0,0,0-1.74.24,3.4,3.4,0,0,0-.9.32,0.53,0.53,0,0,0-.37.46,0.52,0.52,0,0,0,.44.46,3.77,3.77,0,0,0,.88.2,10.34,10.34,0,0,0,1.53,0c1.88-.16,3.74-0.45,5.61-0.7a7,7,0,0,1,1.35-.06,0.84,0.84,0,0,0,1-.64l1-2.29a1.4,1.4,0,0,1,.16-0.3,0.18,0.18,0,0,1,.21,0,0.14,0.14,0,0,1,.1.18c-0.08.31-.16,0.62-0.26,0.93a37,37,0,0,1-1.36,3.78A0.26,0.26,0,0,0,129.08,89Z" transform="translate(-55.2 5.89)"/><path class="cls-6" d="M136.1,21.65c-0.09.12-.18,0.24-0.26,0.37a25.81,25.81,0,0,1-1.94,2.65c-0.38.47-.77,0.93-1.13,1.42A51.62,51.62,0,0,1,129.29,30c-1.69,1.83-3.57,3.47-5.39,5.16-0.62.58-1.33,1.06-2,1.6a84.2,84.2,0,0,1-7.4,5.32c-0.19.12-.38,0.24-0.58,0.35-1.85,1-3.69,2.06-5.54,3.07-1,.52-2,1-2.93,1.48s-1.89.94-2.82,1.44a15.16,15.16,0,0,1-2.26.9c-1.09.38-2.19,0.7-3.3,1a7.34,7.34,0,0,1-1.06.18,19.44,19.44,0,0,1-3.84,0,3.81,3.81,0,0,1-1.52-.42c-0.49-.27-1-0.51-1.49-0.81a3.58,3.58,0,0,1-1.1-1l-1-1.43a1.1,1.1,0,0,1-.14-0.3,8,8,0,0,1-.43-2.95,6.67,6.67,0,0,1,.65-2.5,3,3,0,0,1,.85-1c0.43-.34.85-0.68,1.3-1a5,5,0,0,1,1.56-.65,8.49,8.49,0,0,1,1.89-.31,5.41,5.41,0,0,1,1.29.11,9.71,9.71,0,0,1,1.85.51,5.11,5.11,0,0,1,2,1.48,3.14,3.14,0,0,1,.66,1.24,6.38,6.38,0,0,1,.24,1.73,3.71,3.71,0,0,1-1.24,2.75,5.5,5.5,0,0,1-.49.39,3.42,3.42,0,0,1-3.43.38,1.7,1.7,0,0,1-1-1.26,6.08,6.08,0,0,1-.07-2.14A1.08,1.08,0,0,1,93,42.54a6.15,6.15,0,0,1,1.8-.92,0.22,0.22,0,0,1,.29.11A0.21,0.21,0,0,1,95,42a5.26,5.26,0,0,1-.86.53,1.4,1.4,0,0,0-.87,1.16,4,4,0,0,0,.11,1.74,1,1,0,0,0,.84.75,4.6,4.6,0,0,0,1.35.07,2.35,2.35,0,0,0,1.34-.68,2.59,2.59,0,0,0,.85-1.85,7,7,0,0,0,0-1.75,2.54,2.54,0,0,0-1.16-1.79,5.8,5.8,0,0,0-2-.85,8.55,8.55,0,0,0-3.09-.11l-0.11,0a3.25,3.25,0,0,0-2,.79,4.08,4.08,0,0,0-1.45,1.84c0,0.11-.07.21-0.12,0.32a3.06,3.06,0,0,0-.22,1.32,13.63,13.63,0,0,0,.24,2.08,1.1,1.1,0,0,0,.09.33,6.08,6.08,0,0,0,.93,1.54,3.6,3.6,0,0,1,.26.3A3.89,3.89,0,0,0,91,49a14.29,14.29,0,0,0,2.25.53,2.79,2.79,0,0,0,.62,0l2.93-.19a4.12,4.12,0,0,0,.89-0.15L100,48.6a5.51,5.51,0,0,0,.64-0.23L103,47.3c0.75-.32,1.44-0.75,2.15-1.13,1-.54,2-1.11,3-1.65a24.18,24.18,0,0,0,2.22-1.36c1.08-.73,2.16-1.46,3.25-2.17A27.62,27.62,0,0,0,116,39.29q3.45-2.8,6.77-5.75c1.42-1.26,2.81-2.57,4.11-4,0.06-.07.14-0.13,0.19-0.21,1-1.32,2.1-2.58,3-4,0.28-.43.57-0.85,0.86-1.26a35.18,35.18,0,0,0,3.15-5.55c0.09-.21.19-0.41,0.3-0.61a24.27,24.27,0,0,0,1.32-3.49c0.12-.35.24-0.71,0.37-1.07a0.53,0.53,0,0,1,.2.34c0.25,0.73.52,1.46,0.74,2.2a15.09,15.09,0,0,0,.85,2.09c0.68,1.43,1.39,2.85,2.19,4.21,0.31,0.52.65,1,1,1.52,0.51,0.77,1,1.53,1.56,2.29s1.09,1.4,1.61,2.12a25.26,25.26,0,0,0,2.89,3.18c0.76,0.73,1.53,1.46,2.32,2.16q1.8,1.59,3.64,3.14c1.36,1.14,2.73,2.27,4.1,3.39,0.13,0.11.27,0.2,0.42,0.29l4.8,3.21c0.41,0.27.83,0.52,1.26,0.76l4.72,2.58c0.78,0.42,1.62.71,2.42,1.1a24.13,24.13,0,0,0,4,1.31,1.6,1.6,0,0,0,.33.06l2.26,0.15,0.85,0.06a3.72,3.72,0,0,0,.9,0,17.51,17.51,0,0,0,2-.47,5.76,5.76,0,0,0,1.42-.69,1.52,1.52,0,0,0,.29-0.26,7.73,7.73,0,0,0,.71-0.81,4.78,4.78,0,0,0,.89-1.86,14.21,14.21,0,0,0,.2-2.25,1.7,1.7,0,0,0-.13-0.72c-0.13-.29-0.22-0.61-0.36-0.89a4.51,4.51,0,0,0-1.65-1.74,4.43,4.43,0,0,0-1.52-.55,8.19,8.19,0,0,0-2.48-.06A5,5,0,0,0,176,40c-0.11.08-.22,0.14-0.34,0.21A2.47,2.47,0,0,0,174.53,42a6.64,6.64,0,0,0,0,2.25,2.28,2.28,0,0,0,.44,1,3.11,3.11,0,0,0,1.1.88,1.44,1.44,0,0,0,.54.16,4.49,4.49,0,0,0,1.41-.08,1,1,0,0,0,.84-0.82,4.64,4.64,0,0,0,.09-1.57,1.4,1.4,0,0,0-.9-1.26,5.22,5.22,0,0,1-.82-0.5,0.25,0.25,0,0,1-.08-0.08,0.23,0.23,0,0,1,0-.26,0.2,0.2,0,0,1,.24-0.09c0.35,0.14.71,0.27,1,.43a6.1,6.1,0,0,1,.72.45,1.2,1.2,0,0,1,.56,1,7.44,7.44,0,0,1-.09,1.86,1.83,1.83,0,0,1-1.19,1.39,4,4,0,0,1-1.61.19,3.46,3.46,0,0,1-2.35-1.21A3.65,3.65,0,0,1,173.44,43a5.84,5.84,0,0,1,.33-1.77,3,3,0,0,1,.52-0.93,5.05,5.05,0,0,1,1.91-1.46,8.8,8.8,0,0,1,2.57-.64,7.87,7.87,0,0,1,3.9.72,12.39,12.39,0,0,1,2,1.58,4.41,4.41,0,0,1,1,2.3,6.92,6.92,0,0,1-.12,3.14,3.67,3.67,0,0,1-.68,1.47c-0.23.27-.43,0.57-0.64,0.87a4.06,4.06,0,0,1-1.37,1.16l-1,.56a4.34,4.34,0,0,1-1.83.54c-0.64,0-1.28.07-1.92,0.09a12.65,12.65,0,0,1-4.12-.59q-1.62-.51-3.23-1.06a8.07,8.07,0,0,1-1-.47c-1.45-.73-2.89-1.47-4.34-2.19-1.88-.93-3.67-2-5.52-3a62.08,62.08,0,0,1-6.27-4c-1.35-.94-2.59-2-3.9-3S147.23,34.09,146,33c-1.37-1.21-2.59-2.58-3.88-3.88s-2.55-3-3.79-4.5a27.62,27.62,0,0,1-1.91-2.6A0.78,0.78,0,0,0,136.1,21.65Z" transform="translate(-55.2 5.89)"/><path class="cls-5" d="M168.92,76.71A3.29,3.29,0,0,1,169,76a21.21,21.21,0,0,1,1-4.34c0.68-2.08,1.38-4.15,2.06-6.23a15,15,0,0,1,.71-1.72c1-2.06,2.07-4.06,3.2-6a4.3,4.3,0,0,1,.28-0.43l2.56-3.45a1.7,1.7,0,0,1,.19-0.21,0.14,0.14,0,0,1,.09,0,0.06,0.06,0,0,1,0,0,1.2,1.2,0,0,1,0,.17,1.12,1.12,0,0,1-.21.46c-0.73,1.1-1.35,2.27-2,3.43-0.22.41-.41,0.85-0.61,1.28-1,2.19-2,4.38-3,6.57-0.28.6-.51,1.22-0.74,1.83l-1.22,3.29c-0.29.8-.47,1.63-0.7,2.45-0.37,1.33-.72,2.66-1.08,4,0,0.09,0,.18-0.08.27-0.1.29-.24,0.45-0.33,0.4a0.51,0.51,0,0,1-.15-0.46C169,77.12,168.94,76.92,168.92,76.71Z" transform="translate(-55.2 5.89)"/><path class="cls-5" d="M108.34,76.89c0,0.25,0,.5-0.08.74a0.25,0.25,0,0,1-.13.17,0.16,0.16,0,0,1-.17-0.11,1.62,1.62,0,0,1-.21-0.52q-0.74-2.76-1.49-5.51c-0.1-.36-0.22-0.72-0.34-1.08q-0.72-2-1.45-3.92c-0.14-.37-0.3-0.73-0.47-1.09-1.14-2.4-2.25-4.82-3.35-7.24-0.21-.46-0.47-0.9-0.71-1.35-0.48-.9-1-1.78-1.54-2.64a3.52,3.52,0,0,1-.25-0.51,0.17,0.17,0,0,1,0-.21,0.14,0.14,0,0,1,.18.08l0.17,0.23,2.42,3.27a5.15,5.15,0,0,1,.37.57c0.78,1.42,1.62,2.81,2.33,4.27l1.18,2.44a4.07,4.07,0,0,1,.19.47c0.78,2.34,1.58,4.68,2.34,7a22.27,22.27,0,0,1,.95,4.24c0,0.11,0,.22,0,0.34S108.34,76.78,108.34,76.89Z" transform="translate(-55.2 5.89)"/><path class="cls-6" d="M102.1,138.17c0.23,0,.45,0,0.68,0a0.29,0.29,0,0,1,.29.28,1.1,1.1,0,0,1,0,.23c-0.1.94-.19,1.87-0.3,2.81a0.36,0.36,0,0,1-.48.39l-1.74-.19a1.51,1.51,0,0,1-.27-0.06,0.24,0.24,0,0,1-.18-0.3c0.06-.35.13-0.7,0.19-1.05,0.1-.55.21-1.11,0.31-1.66,0.05-.27.06-0.28,0.31-0.31l1.18-.11h0Z" transform="translate(-55.2 5.89)"/><path class="cls-6" d="M138.68,138.63l-0.17,1.75c0,0.3-.06.6-0.09,0.9a2.27,2.27,0,0,1-.05.33,0.3,0.3,0,0,1-.33.25l-0.62-.06c-0.45,0-.9-0.09-1.34-0.15s-0.4-.14-0.34-0.45q0.23-1.3.48-2.6c0.05-.28.08-0.3,0.37-0.32l1.57-.12h0.22a0.3,0.3,0,0,1,.3.33C138.68,138.54,138.68,138.62,138.68,138.63Z" transform="translate(-55.2 5.89)"/><path class="cls-3" d="M153.65,56.37l-0.74.3a4.55,4.55,0,0,0-1,.49,0.12,0.12,0,0,0,0,.1,0.1,0.1,0,0,0,.07.06,3.4,3.4,0,0,0,.5-0.06l1.29-.33a1.78,1.78,0,0,1,0,1.27,2.47,2.47,0,0,1-.72,0,5.4,5.4,0,0,0-1,0,0.12,0.12,0,0,0-.08.06,0.1,0.1,0,0,0,.07.13,5.2,5.2,0,0,0,1,.27,1.19,1.19,0,0,1,.52.14,1.06,1.06,0,0,1-.3.56c-0.23.27-.48,0.54-0.71,0.81a34,34,0,0,0-2.44,3.19,1.9,1.9,0,0,0-.33,1.38c0.09,0.62.14,1.24,0.26,1.85a3.35,3.35,0,0,0,.83,1.82,0.51,0.51,0,0,1,.09.14,0.2,0.2,0,0,1-.16.24,1.65,1.65,0,0,1-.38-0.11,2.44,2.44,0,0,1-1-.83,6.5,6.5,0,0,1-.87-1.77,20.3,20.3,0,0,1-.53-2c0-.07,0-0.15,0-0.22a0.16,0.16,0,0,0-.16-0.13,0.16,0.16,0,0,0-.16.18,1.63,1.63,0,0,0,0,.23,8.74,8.74,0,0,0,.69,3.13,3.84,3.84,0,0,0,.92,1.28,1.88,1.88,0,0,0,1.48.58,0.8,0.8,0,0,1,.88.55c0.08,0.19.17,0.38,0.25,0.57a31.91,31.91,0,0,1,1.32,4,25.32,25.32,0,0,1,.66,3.78,8.17,8.17,0,0,1-.06,1.52,19.37,19.37,0,0,1-.45,3.19,7.87,7.87,0,0,1-2,3.78,7.75,7.75,0,0,1-1.73,1.27c-0.45.25-.53,0.24-0.88-0.12a1.84,1.84,0,0,0-.25-0.23,0.17,0.17,0,0,0-.15,0,0.2,0.2,0,0,0-.07.14,0.67,0.67,0,0,0,.17.35c0.26,0.4.53,0.78,0.78,1.18a1.75,1.75,0,0,1,.29.59,0.25,0.25,0,0,1-.27.06l-1-.15a0.42,0.42,0,0,1-.4-0.33,5.11,5.11,0,0,0-.22-0.64,0.76,0.76,0,0,0-.15-0.23,0.2,0.2,0,0,0-.15,0,0.12,0.12,0,0,0-.11.11,1.27,1.27,0,0,0,0,.28c0,0.16.1,0.32,0.15,0.49s0,0.19-.13.18l-0.56-.07c-1-.16-2.09-0.33-3.14-0.42-0.77-.07-1.54-0.16-2.31-0.24-0.24,0-.49,0-0.73,0-1.25,0-2.49,0-3.74,0-1,0-2.07.05-3.11,0.08h-0.55a2.18,2.18,0,0,1,.28-0.84,0.37,0.37,0,0,1,.44-0.18l0.33,0.09a9.3,9.3,0,0,0,2.69.32,14.48,14.48,0,0,0,1.86-.06,8.38,8.38,0,0,0,1.43-.31,1.75,1.75,0,0,0,.56-0.25,0.5,0.5,0,0,1,.58,0l0.52,0.23a9.14,9.14,0,0,0,3.13.69l1,0a0.15,0.15,0,0,0,.16-0.13,0.18,0.18,0,0,0-.14-0.21h-0.23a9,9,0,0,1-6.24-2.67A10.37,10.37,0,0,1,137.32,82a12.45,12.45,0,0,1-1-4.34,7.55,7.55,0,0,1,.28-2.51,6.69,6.69,0,0,1,1-2,12.23,12.23,0,0,1,1.79-1.88l1.23-1.09a5.68,5.68,0,0,0,.91-1,2.58,2.58,0,0,0,.47-1.48,14.71,14.71,0,0,1,0-1.53,6.45,6.45,0,0,1,.49-2,4.13,4.13,0,0,1,.9-1.29c0.11-.11.22-0.2,0.32-0.32a0.44,0.44,0,0,0,.05-0.53,2,2,0,0,0-.4-0.47,7.58,7.58,0,0,1-1.23-1.69,2.41,2.41,0,0,1-.12-0.26c-0.09-.22-0.06-0.27.18-0.38l0.41-.18,0.45-.23a0.16,0.16,0,0,0,.13-0.16c0-.13-0.16-0.09-0.23-0.07-0.3.05-.59,0.12-0.89,0.19s-0.32,0-.38-0.26V58.46c0-.29,0-0.39.29-0.44a7.56,7.56,0,0,0,1.1-.26,0.64,0.64,0,0,0,.19-0.11,0.11,0.11,0,0,0,0-.1,0.69,0.69,0,0,0-.22,0l-1.08,0a0.19,0.19,0,0,1-.23-0.24,2.35,2.35,0,0,1,.21-0.82,4.93,4.93,0,0,1,1.43-2,2,2,0,0,0,.74-1.57c0-.73.15-1.46,0.1-2.2a0.35,0.35,0,0,1,.15-0.4,0.36,0.36,0,0,1,.43.17c0.42,0.41.88,0.78,1.26,1.22a1.82,1.82,0,0,0,.21.19,0.63,0.63,0,0,0,.73.12c0.2-.1.42-0.18,0.62-0.26a7.14,7.14,0,0,1,1.7-.39,3.69,3.69,0,0,1,1,.14,1.46,1.46,0,0,1,.33.09,0.65,0.65,0,0,0,.84-0.27c0.17-.25.32-0.51,0.47-0.77s0.14-.27.22-0.4a0.15,0.15,0,0,1,.2-0.06,0.2,0.2,0,0,1,.12.11,4.57,4.57,0,0,1,.1.56c0.07,0.73.15,1.46,0.2,2.2a2.45,2.45,0,0,1-.12,1.06,1.12,1.12,0,0,0,.11,1Z" transform="translate(-55.2 5.89)"/><path class="cls-3" d="M143.15,100.83a5.54,5.54,0,0,1-3-1,2.85,2.85,0,0,1-1.06-1.56,0.48,0.48,0,0,1,.13-0.52c0.13-.13.29-0.24,0.43-0.37a2.2,2.2,0,0,0,.79-1.39,2.11,2.11,0,0,0-.29-1.35,1.39,1.39,0,0,0-.24-0.32,10.59,10.59,0,0,1-1.32-1.76,2.22,2.22,0,0,0-1.71-1,2.89,2.89,0,0,0-3.11,2c-0.17.48-.28,1-0.42,1.47a0.42,0.42,0,0,1-.29.43,0.47,0.47,0,0,1-.39-0.29,3,3,0,0,1-.56-1.35,5.72,5.72,0,0,1,0-2.14,14.45,14.45,0,0,1,.66-2.16,0.36,0.36,0,0,1,.38-0.27c0.74,0,1.47,0,2.21,0s1.28,0,1.92,0c1,0.06,2,0,2.94.15,0.71,0.07,1.43.08,2.14,0.15,1.67,0.17,3.34.34,5,.65a0.44,0.44,0,0,1,.42.42c0.13,0.82.28,1.63,0.39,2.46s0.16,1.54.21,2.31a4.13,4.13,0,0,1-.27,1.83,5.57,5.57,0,0,1-3.06,3.17A4.51,4.51,0,0,1,143.15,100.83Z" transform="translate(-55.2 5.89)"/><path class="cls-3" d="M135.44,98.44a9,9,0,0,0,2.47-.2,0.38,0.38,0,0,1,.5.24,3.52,3.52,0,0,1,.14.43,2.41,2.41,0,0,0,.55,1,5.23,5.23,0,0,0,3.92,1.73,6.18,6.18,0,0,0,2.11-.3,5,5,0,0,0,1.54-.81,6.79,6.79,0,0,0,1.9-2.29,4.63,4.63,0,0,0,.48-2.52C149,95,149,94.3,148.87,93.61c-0.15-.93-0.29-1.86-0.53-2.77,0-.07,0-0.15-0.05-0.22a0.14,0.14,0,0,1,.18-0.19l1.23,0.22a0.54,0.54,0,0,1,.45.37,10.1,10.1,0,0,1-.65,8.88c0,0.08-.1.16-0.14,0.25a6.44,6.44,0,0,1-2.46,2.59,10.8,10.8,0,0,1-3.43,1.41,10.19,10.19,0,0,1-2.69.25,10.39,10.39,0,0,1-4.35-1.11,5,5,0,0,1-2.49-3,5.9,5.9,0,0,1-.31-1.38,0.36,0.36,0,0,1,.29-0.42,2.1,2.1,0,0,1,.39,0h1.13Z" transform="translate(-55.2 5.89)"/><path class="cls-3" d="M135,98.09a8.08,8.08,0,0,1-2.57-.35,5.62,5.62,0,0,1-3.66-3.13,7.09,7.09,0,0,1-.69-2.66,3.45,3.45,0,0,1,.32-1.59,1,1,0,0,1,1.23-.87l2.14-.13c0.22,0,.27.06,0.18,0.28a12.22,12.22,0,0,0-.57,1.71,7.07,7.07,0,0,0-.05,3.19,3.09,3.09,0,0,0,2,2.35,4.25,4.25,0,0,0,1.29.38,9.57,9.57,0,0,0,4-.46l0.32-.11c0.25-.08.39-0.07,0.4,0a0.42,0.42,0,0,1-.19.38,2.29,2.29,0,0,1-.72.43,7.23,7.23,0,0,1-2.7.55H135Z" transform="translate(-55.2 5.89)"/><path class="cls-3" d="M135.78,96.42a4.52,4.52,0,0,1-1.49-.16,0.53,0.53,0,0,1-.49-0.73,8.07,8.07,0,0,1,.58-2.06,2.61,2.61,0,0,1,1.24-1.27,2,2,0,0,1,2.58.63,2,2,0,0,1,.45,1.14c0,0.35,0,.71,0,1.07a1.18,1.18,0,0,1-.12.49,1,1,0,0,1-.8.64A9.49,9.49,0,0,1,135.78,96.42Z" transform="translate(-55.2 5.89)"/></svg>