<svg id="Layer_1" data-name="Layer 1" xmlns="http://www.w3.org/2000/svg" viewBox="0 0 404.04 408.3"><defs><style>.cls-1{fill:#fff;}.cls-2{fill:#010101;}.cls-3{fill:#493d3d;}.cls-4{fill:#675c5c;}.cls-5{fill:#a7a0a0;}</style></defs><title>אימוץ וירטואלי</title><path class="cls-1" d="M1161.56,566.18a15.86,15.86,0,0,1-5.84-3.22,14.34,14.34,0,0,1-5-1.78c-2.43-.86-4.82-1.85-7.25-2.67-4.62-1.55-9.22-3.2-13.82-4.82-9.58-3.39-18.87-7.51-28.87-9.53a12.15,12.15,0,0,1-6.52-3.78c-8-3.07-16.13-6.05-25-8.48a14.67,14.67,0,0,1-5.68-2.92c-5.58-1.85-11.08-3.94-16.64-5.86-3-1-5.92-2.06-8.85-3.17a39.73,39.73,0,0,1-5.38-2.36l-0.14-.08a13.82,13.82,0,0,1-1.53.09,14.72,14.72,0,0,1-14.53-14.53,13.87,13.87,0,0,1,.47-3.51,14.12,14.12,0,0,1-1.2-5.64c0-1.27,0-2.56-.07-3.83-0.05-.27-0.22-1.59-0.31-2.06-0.67-3.19-1.19-6.39-1.59-9.63a39.88,39.88,0,0,1-.3-8.49c0.11-1.29.26-2.65,0.51-4a19.3,19.3,0,0,1-1-4.12,32.72,32.72,0,0,1-.33-5.16c0-.2-0.17-4.17.1-3a15.8,15.8,0,0,1-.34-2.29,11,11,0,0,1-.57-1.92,104,104,0,0,1-1.64-12.64c-0.09-1.48-.14-3-0.16-4.44q-0.17-1.55.19-.35l-0.34-1.63a98.19,98.19,0,0,1-2.39-20.68c0.05-7.21-.67-11.92-1.51-19,0,0.09-.32-2.9-0.34-3.29-0.19-1.22-.47-2.44-0.68-3.66a54.14,54.14,0,0,1-1.16-11,15.34,15.34,0,0,1,1-4.95,15.21,15.21,0,0,1-.63-3.84c-0.14-4.62-1.32-9.38-1.92-14.87-0.07-.64-0.35-2-0.56-3.38a12.38,12.38,0,0,1-3-4.41q-0.66-.28-1.29-0.62c-2.54-.11-5.07-0.08-7.63,0a0.76,0.76,0,0,1-.49,0l-0.66.14c-0.91.19-1.82,0.37-2.72,0.62-0.52.14-1,.3-1.57,0.47a4.18,4.18,0,0,1-.8.53,14.74,14.74,0,0,1-6,2.05c-4.1,3.78-9.27,5.52-14.56,7.24a63.81,63.81,0,0,0-11.83,5.79,130,130,0,0,1-30,12.92,14.11,14.11,0,0,0-9,3.11,47.65,47.65,0,0,0-9.22,3.74,44,44,0,0,1-6.65,5.68,25.65,25.65,0,0,1-9.74,3.87c-3.12,4.21-8.39,6.69-13.84,8-6.61,1.54-9.89,2.31-14.67,5.84-6.68,4.93-13.33,8.2-21.85,8.39-0.21,0-.42,0-0.62,0a13.62,13.62,0,0,1-5,5,53.08,53.08,0,0,1-11,4.48c-1.33.39-2.81,0.69-4.15,1.16,0.32,0-1.82,1.13-.76.38a68.86,68.86,0,0,1-7.33,5.14c-3.58,1.83-7,2.38-10.87,3.15a14.89,14.89,0,0,0-2.33.54q1.3-.7-0.06,0a35.21,35.21,0,0,0-3.58,1.89c-3,1.72-5.72,3.8-8.68,5.53a75,75,0,0,1-8.83,4c1.25-.51-1.81,1-0.82.27-2,1.45-3.72,3-5.81,4.25-0.14.09-.29,0.15-0.43,0.23a116.1,116.1,0,0,1,.34,14.23c-0.24,8.45-.22,16.88-0.2,25.34a24.56,24.56,0,0,1-.17,2.9,22.69,22.69,0,0,1,.15,10.21,22.3,22.3,0,0,1,.2,3c0,8.52,1.6,17,2.07,25.46,0.23,4.05.57,8.1,1,12.13,0.14,1.39.3,2.77,0.45,4.16a50.55,50.55,0,0,1,1.45,10.78,22.46,22.46,0,0,1-.36,4.51c3.1,21.78,4.67,43.91,6.25,65.81,0.16,2.26.22,4.49,0.23,6.75,0,0.55,0,1.11,0,1.66l0.38,0.35a24.3,24.3,0,0,1,18.67,16.06,28.46,28.46,0,0,1,5.09,4,66.62,66.62,0,0,1,4.69,6.22l1.15,2.77,0.09,0-0.08-.19,0.09,0.2A25.07,25.07,0,0,1,820,669.45a29.67,29.67,0,0,1,3,1.23,38.59,38.59,0,0,1,4.26,2.42l1.61,0.74a38.91,38.91,0,0,1,9.18,6.28,60.62,60.62,0,0,1,4.71,4.91c0.6,0.66,1.23,1.3,1.84,2a64.29,64.29,0,0,1,12.29,6.61,81.61,81.61,0,0,1,8.83,6.77l0,0c1,0.58,1.93,1.22,2.92,1.8,4.47,2.63,9.19,4.8,13.77,7.23,5.81,3.08,10.84,7.34,15.89,11.52,0.63,0.52,4.29,3.74,1.4,1.19-2.59-2.27.22,0,.9,0.46,2.2,1.38,4.54,2.53,6.85,3.72a79.86,79.86,0,0,1,16.41,11.18c0.18,0.16.34,0.33,0.51,0.5a26.5,26.5,0,0,1,3.41-.83,62.41,62.41,0,0,1,5.71-3.95c1.07-.67,3.74-2.78,5.29-3.31,0.46-.51.92-1,1.37-1.55,3.76-4.35,8-8.43,13.18-11,3-1.46,6.13-2.68,9.26-3.85l0.91-.45,1.37-.79L964,713l0.25-.09A29.89,29.89,0,0,1,974,708a31.93,31.93,0,0,1,10.49-8c0.33-.16,1.71-0.76,2.67-1.26l1.24-1,3.94-3c6-4.48,12-9.14,18.31-13.13,5.93-3.75,11.93-7.26,17.63-11.37s12.17-7.45,17.87-11.73a18.28,18.28,0,0,1,10.63-3.63,47,47,0,0,1,7.23-5.35l0.17-.16c1.63-1.53,3.41-3,5.13-4.39a117.2,117.2,0,0,1,13.46-9.73c1.94-1.2,3.92-2.34,5.83-3.59,0.45-.29.88-0.6,1.33-0.91l0.47-.41,0.07-.06a57.57,57.57,0,0,1,5.19-6,72.31,72.31,0,0,1,9.56-7.65c10.7-14.79,18.85-26.24,35.07-35.48a104.51,104.51,0,0,1,22.34-9.72A28.49,28.49,0,0,1,1161.56,566.18Z" transform="translate(-758.57 -336.09)"/><path d="M1162.58,575c0,1.76,0,3.52,0,5.28a8.32,8.32,0,0,1-3.86,7.51c-2.84,1.93-5.64,3.91-8.48,5.84l-56.84,38.67q-19.7,13.41-39.39,26.85l-60.2,41-39,26.57q-11.28,7.69-22.55,15.41c-2.16,1.48-4.35,2.65-7.11,2.13a11.59,11.59,0,0,1-4.34-2q-11.51-7.78-23-15.61-13.16-9-26.29-18l-38.15-26.09L806.31,664.1c-4.81-3.29-9.6-6.6-14.43-9.86a8.32,8.32,0,0,1-4-7.68c0.08-2,0-4,0-6,0-1-.29-1.44-1.36-1.4-1.52.07-3,0-4.56,0-5.09-.08-8.43-3.46-8.74-8.56-0.33-5.57-.84-11.12-1.28-16.68q-0.49-6.19-1-12.38c-0.38-4.52-.8-9-1.16-13.56-0.32-4-.55-7.95-0.87-11.92-0.36-4.44-.78-8.88-1.14-13.33-0.41-5.08-.77-10.17-1.17-15.25-0.37-4.6-.79-9.2-1.16-13.8-0.32-4-.57-7.95-0.88-11.92-0.35-4.44-.77-8.88-1.12-13.33-0.41-5.24-.76-10.49-1.17-15.73-0.35-4.44-.77-8.88-1.12-13.32-0.32-4-.59-8.1-0.91-12.15-0.34-4.29-.74-8.57-1.08-12.85-0.24-3-.53-6-0.64-9.05a7.93,7.93,0,0,1,5-8q7.93-3.68,15.88-7.33l35.25-16.23,39.6-18.25,31.11-14.35,39.16-18.05,31.76-14.66,25.23-11.64a9.53,9.53,0,0,1,6.09-.46l8.9,1.79a8.32,8.32,0,0,1,7,8c0.64,7.37,1.34,14.74,2,22.11,0.62,7.06,1.17,14.12,1.78,21.18s1.29,13.95,1.9,20.92c0.53,6,1,12.05,1.54,18.08s1.21,12.19,1.75,18.29c0.71,8.09,1.31,16.18,2,24.27s1.55,16.31,2.31,24.47c0.4,4.36.85,8.72,1.07,13.09a2.27,2.27,0,0,0,1.78,2.37q15.62,5.73,31.22,11.53l41.31,15.26L1155.29,561c0.9,0.33,1.8.67,2.67,1.06,3.11,1.39,4.5,3.92,4.61,7.21C1162.63,571.18,1162.58,573.1,1162.58,575Z" transform="translate(-758.57 -336.09)"/><path class="cls-1" d="M1099.74,608.36l32-21.78q2.72-2,5.8-3.94l15.51-10.55c2-1.39,4.06-2.8,6.13-4.22a5.2,5.2,0,0,0-2-1l-57.5-21.28-53.92-19.91c-8.46-3.13-16.91-6.31-25.38-9.42a7.76,7.76,0,0,1-5.37-7c-0.17-1.51-.34-3-0.48-4.53q-1.45-16.22-2.89-32.44c-0.83-9.47-1.6-18.93-2.43-28.4-0.61-7-1.29-14-1.91-21-0.71-8-1.36-16.07-2.08-24.1s-1.52-16.21-2.24-24.32-1.36-16.07-2.06-24.1a16.61,16.61,0,0,0-.48-2.83c-0.65-2.44-2-3.37-4.53-3.38-2.33,0-4.34,1-6.37,1.92q-27.86,12.8-55.71,25.65l-66.57,30.69q-44.38,20.46-88.78,40.89c-4.31,2-6.52,5.46-6,10.3,0.62,5.71,1,11.45,1.41,17.19,0.39,4.94.74,9.87,1.14,14.81,0.57,7.08,1.17,14.16,1.74,21.24,0.4,5,.75,10,1.16,15,0.56,7,1.16,14,1.72,21,0.41,5.09.77,10.19,1.18,15.29,0.55,6.84,1.14,13.68,1.69,20.52,0.42,5.25.78,10.51,1.2,15.77,0.55,6.84,1.13,13.68,1.69,20.53,0.35,4.3.72,8.59,1,12.9,0.07,1.11.44,1.54,1.59,1.47,1.59-.09,3.2,0,4.8,0a8,8,0,0,1,8.17,8.2,45.48,45.48,0,0,1,0,5.52c-0.19,1.87.6,2.87,2.07,3.88q31.17,21.32,62.26,42.75,25.49,17.52,50.95,35.08a9.65,9.65,0,0,0,8.62,1.35,23.64,23.64,0,0,0,7-3.55L1012.13,668Z" transform="translate(-758.57 -336.09)"/><path d="M794,616.26c-0.27-2.94-.55-5.78-0.79-8.63q-1.34-15.78-2.66-31.56-1.59-18.77-3.18-37.53-1.29-15.18-2.61-30.36-1.59-18.65-3.15-37.29-0.84-9.8-1.73-19.6c-0.26-2.86-.26-2.86,2.33-4.06l143.07-66.35,66.54-30.84a6.34,6.34,0,0,1,2.33-.85c0.36,3.74.73,7.38,1.06,11q2.13,23.41,4.25,46.83,1.78,19.71,3.53,39.43,1.81,19.95,3.66,39.9c0.26,2.87.28,5.77,0.79,8.59,0.39,2.15-.37,3.06-2.17,4-9.06,4.91-18,10-27.05,15L797,614.83A10.78,10.78,0,0,1,794,616.26Z" transform="translate(-758.57 -336.09)"/><path d="M806.7,633c-0.31-4.11-1.4-7.29-5.74-8.12,0.27-.94,1.17-1.06,1.82-1.41q76.22-42,152.46-83.87l50.4-27.73,0.84-.46c2.53-1.33,5-.15,5.6,2.67a2.4,2.4,0,0,1-1.15,2.87l-3.53,2L809,631.8C808.34,632.19,807.64,632.54,806.7,633Z" transform="translate(-758.57 -336.09)"/><path class="cls-2" d="M1064.89,543.53c3.65,1.3,7.31,2.59,11,3.91,4,1.46,8,2.94,12.09,4.43a3.65,3.65,0,0,1-1.91,1.58Q986.19,614.22,886.36,675a3.7,3.7,0,0,1-4.48.07Q854,658.32,826.12,641.72a6.75,6.75,0,0,1-2.16-1.5c0.27-.2.54-0.37,0.79-0.57,1.57-1.25,3-1.08,4.71,0C847,650.37,864.57,661,882.09,671.7a3.33,3.33,0,0,0,4,0q97.78-59.08,195.62-118.08c0.54-.33,1.07-0.68,1.69-1.07a2.09,2.09,0,0,0-1.5-1c-5.48-2.2-10.84-4.69-16.42-6.65a11.22,11.22,0,0,1-1.64-.9C1063.87,543.12,1064.37,543.31,1064.89,543.53Z" transform="translate(-758.57 -336.09)"/><path class="cls-2" d="M1071.63,612.62a13.66,13.66,0,0,1,3,1.57,4.22,4.22,0,0,1-1.67,1.33q-31.21,20-62.41,39.94c-1.16.74-2,1.12-3.43,0.31-14.09-8.2-28.23-16.31-42.36-24.45-0.27-.16-0.52-0.36-0.79-0.54,1.81-1.7,1.82-1.71,3.78-.6Q986.89,641.09,1006,652a3.19,3.19,0,0,0,3.84,0q29.71-18.75,59.49-37.37c0.62-.39,1.54-0.52,1.69-1.48C1071,612.7,1071.1,612.45,1071.63,612.62Z" transform="translate(-758.57 -336.09)"/><path class="cls-3" d="M1064.89,543.53a1.44,1.44,0,0,0-1,.48c-4.27-1.39-8.31-3.35-12.46-5l-0.88-.33c-0.08-.17-0.15-0.36.06-0.48a0.33,0.33,0,0,1,.32.11C1055.59,540,1060.35,541.47,1064.89,543.53Z" transform="translate(-758.57 -336.09)"/><path class="cls-4" d="M1071.63,612.62l-0.58.55L1058,606.3a2,2,0,0,1,.48-0.29A143.7,143.7,0,0,1,1071.63,612.62Z" transform="translate(-758.57 -336.09)"/><path class="cls-5" d="M1050.91,538.3l-0.38.37a9.43,9.43,0,0,1-3.59-1.61A7.07,7.07,0,0,1,1050.91,538.3Z" transform="translate(-758.57 -336.09)"/></svg>