<?xml version="1.0" encoding="utf-8"?>
<!-- Generator: Adobe Illustrator 19.2.1, SVG Export Plug-In . SVG Version: 6.00 Build 0)  -->
<svg version="1.1" id="Layer_1" xmlns="http://www.w3.org/2000/svg" xmlns:xlink="http://www.w3.org/1999/xlink" x="0px" y="0px"
	 viewBox="0 0 44.5 44.5" style="enable-background:new 0 0 44.5 44.5;" xml:space="preserve">
<style type="text/css">
	.st0{fill:#FFFFFF;}
	.st1{fill:#FCAF17;}
	.st2{fill:#F8B002;}
	.st3{fill:#FEFEFE;}
	.st4{fill:#F7AD21;}
	.st5{fill:#F7AE22;}
	.st6{fill:#F8B001;}
	.st7{fill:#F6C56B;}
</style>
<title>מדרגות</title>
<path class="st0" d="M40.1,11.2c-0.5-0.5-0.8-1-1.1-1.6C38.3,8.8,37.7,8,37,7.2L36.9,7c-1-0.1-1.9-0.2-2.9-0.4l-3.7-0.8
	c-2.1-0.5-4.1-0.8-6.2-1.2c-3.5-0.4-7-0.5-10.5-0.2c-0.3,0-0.5,0-0.8,0c-0.3,1.2-0.6,2.3-1,3.4c-0.3,1-0.7,2-1,3.1
	c-0.2,0.7-0.3,1.4-0.4,2.1c-0.1,0.7-0.2,1.6-0.2,2.4c-0.2,2-0.5,4-0.8,6c-0.4,2.5-0.9,4.9-1.6,7.3c-0.4,1.6-1.3,3-2.4,4.1l-0.8,0.6
	l0.1,0.1c0.7,0.7,1.2,1.6,1.5,2.5c0.5,0.3,0.9,0.6,1.3,1c0.6,0.4,1.2,0.7,1.8,1c1.1,0.4,2.1,0.9,3.2,1.3l-2.2-0.9
	c1.7,0.7,3.5,1.2,5.3,1.5c2,0.2,3.9,0.5,5.9,0.7c2.1,0.3,4.2,0.4,6.3,0.3c0.6-0.1,1.2-0.3,1.8-0.5c0.4-0.2,0.7-0.4,1.1-0.6
	c0.2-0.2,0.5-0.5,0.7-0.7c0.9-1.5,1.8-3,2.5-4.6c0.5-1,1-2,1.6-3c0.4-0.7,0.8-1.3,1.1-2c0.3-1,0.7-2,1-3c0.5-1.5,1-2.9,1.5-4.4
	c0.8-2.5,1.5-5.1,1.9-7.8c0-0.4,0-0.8,0-1.2c0-0.2,0-0.5,0-0.7C40.7,12.2,40.4,11.7,40.1,11.2z"/>
<path class="st1" d="M22.2,44.5C10,44.5,0,34.5,0,22.2S10,0,22.2,0s22.2,10,22.2,22.2c0,0,0,0,0,0.1C44.4,34.5,34.5,44.5,22.2,44.5z
	"/>
<path class="st0" d="M12,34.4H8.2c-0.2,0-0.2,0-0.2-0.2c0-0.8,0-1.6,0-2.4c0-0.2,0-0.2,0.2-0.2h4.8c0.3,0,0.3,0,0.3-0.3
	c0-1.6,0-3.2,0-4.8c0-2.4,0-0.1,0-0.1s0-0.2,0.2-0.2h5c0,0,0.1,0,0.1-0.1c0,0,0,0,0,0c0-0.1,0-0.1,0-0.2c0-1.6,0-3.3,0-4.9
	c0-2.4,0-0.1,0-0.1c0-0.2,0-0.2,0.2-0.2h5c0.2,0,0.2,0,0.2-0.2c0-0.7,0-1.4,0-2.2c0-0.9,0-1.8,0-2.7c0-1.4,0-0.1,0-0.1
	c0,0,0-0.1,0.1-0.1c0,0,0,0,0,0h5.1c0,0,0.1,0,0.1,0c0,0,0-0.1,0-0.1c0-0.1,0-0.1,0-0.2c0-1.6,0-3.2,0-4.8c0-0.3,0-0.3,0.3-0.3h7.5
	c0.2,0,0.2,0,0.2,0.2c0,0.7,0,1.5,0,2.3c0,0.3,0,0.2-0.2,0.2h-4.8c-0.3,0-0.3,0-0.3,0.3c0,1.6,0,3.2,0,4.9c0,0.2,0,0.2-0.2,0.2H27
	c-0.3,0-0.3,0-0.3,0.3c0,1.6,0,3.3,0,4.9c0,0.1,0,0.1,0,0.2c0,0,0,0.1-0.1,0.1c0,0,0,0,0,0h-5.1c0,0-0.1,0-0.1,0.1c0,0,0,0,0,0
	c0,0.1,0,0.1,0,0.2c0,1.6,0,3.2,0,4.8c0,2.4,0,0.1,0,0.1c0,0.2,0,0.2-0.2,0.2h-4.9c-0.3,0-0.3,0-0.3,0.3c0,1.7,0,3.3,0,5
	c0,0.3,0,0.2-0.2,0.2C15.8,34.4,12,34.4,12,34.4z"/>
<g>
	<g>
		<path class="st2" d="M20.4,0.1c1.2,0,2.5,0,3.7,0c0.5,0.1,1,0.1,1.5,0.1c1,0,1.9,0.3,2.8,0.5c3,0.8,5.7,2.3,8.1,4.2
			c2.5,2.1,4.6,4.6,6,7.6c0.9,1.9,1.6,3.8,1.9,5.9c0.2,1.8,0.2,3.7,0.1,5.5c0,0.8,0,1.6-0.2,2.4c-0.6,3-1.7,5.8-3.4,8.3
			c-2.4,3.5-5.5,6.2-9.3,8c-2,0.9-4,1.6-6.2,1.8c-1.9,0.2-3.9,0.2-5.9,0c-3.5-0.2-6.7-1.5-9.6-3.4c-2.5-1.6-4.5-3.6-6.2-6
			c-1.8-2.5-3-5.3-3.6-8.3c-0.1-0.7-0.1-1.5-0.2-2.3c0-0.1,0-0.2,0-0.3c0-1.3,0-2.5,0-3.8c0.1-0.7,0.1-1.3,0.2-2
			c0.1-0.9,0.3-1.7,0.5-2.5c0.8-2.7,2-5.1,3.7-7.3C5.6,7.3,6.8,6,8.2,4.9c2.3-1.8,4.8-3.2,7.6-4.1c1.4-0.4,2.9-0.7,4.4-0.7
			C20.2,0.1,20.3,0.2,20.4,0.1z"/>
		<path class="st3" d="M0.1,24.2c0.2,0.7,0.2,1.4,0.3,2.1c0.8,4.4,2.8,8.2,5.9,11.5c3.8,3.9,8.3,6.2,13.7,6.7
			c6.8,0.7,12.7-1.4,17.7-6c3.9-3.7,6.2-8.3,6.7-13.7c0.7-6.8-1.4-12.8-6.1-17.7c-3.5-3.7-7.9-5.9-13-6.6c-0.4-0.1-0.9,0-1.3-0.2
			c6.7,0,13.4,0,20.2,0c0.3,0,0.4,0.1,0.4,0.4c0,14.6,0,29.2,0,43.8c0,0.3-0.1,0.4-0.4,0.4c-14.6,0-29.2,0-43.8,0
			c-0.3,0-0.4-0.1-0.4-0.4C0.1,37.6,0.1,30.9,0.1,24.2z"/>
		<path class="st3" d="M20.4,0.1c-0.7,0.2-1.4,0.2-2.1,0.4c-5.8,1.1-10.4,4-14,8.8c-2.2,3-3.5,6.3-4.1,10c-0.1,0.4,0,0.8-0.2,1.2
			c0-6.7,0-13.3,0-20c0-0.3,0.1-0.4,0.4-0.4C7.1,0.1,13.8,0.1,20.4,0.1z"/>
		<path class="st4" d="M40.3,17.2c0.2,0.7-0.3,1.4-0.3,2.2c0,0.2-0.1,0.4,0,0.7c0.2,1,0,2-0.3,2.9c-0.2,0.6-0.5,1.1-0.7,1.7
			c0,0.1-0.1,0.2-0.1,0.3c-0.1,1.4-0.5,2.7-1.4,3.8c-0.3,0.4-0.5,0.8-0.6,1.3c-0.2,0.9-0.6,1.7-1.2,2.4c-0.6,0.7-0.7,1.5-1.1,2.2
			c-0.4,0.9-1,1.6-1.7,2.3c-0.8,0.7-1.6,1.2-2.5,1.6c-0.6,0.2-1.3,0.3-1.8,0.6c-0.3,0.2-0.6,0.3-0.9,0.5c-1.3,0.7-2.8,0.9-4.3,0.8
			c-0.6,0-1.1-0.3-1.7-0.3c-0.4,0-0.7,0.2-1.1,0.2c-0.8,0-1.6-0.1-2.4-0.3c-0.1,0-0.3,0-0.4,0c-1,0-2,0.1-3-0.2
			c-0.5-0.1-0.9,0-1.4,0c-0.8,0.1-1.5,0.1-2.3-0.1c-1-0.2-1.9-0.6-2.8-1.1c-0.8-0.4-1.4-1-1.9-1.6c-0.6-0.7-1.1-1.6-1.3-2.6
			c-0.3-0.9-0.5-1.8-0.5-2.8c0-0.3-0.2-0.7-0.3-1C4,30,3.9,29.2,4,28.4c0-0.6-0.2-1.1-0.3-1.6c-0.3-1.1-0.4-2.1-0.2-3.2
			c0.1-0.6-0.1-1.1-0.2-1.6c-0.1-1-0.2-2,0.1-3c0.3-1,0.2-2,0.3-3.1c0.1-1.1,0.4-2.2,1-3.1c0.6-1,1.4-1.9,2.4-2.6
			C8,9.6,9.2,9.2,10.5,9.1c0.4-0.1,0.9-0.1,1.3,0C12,9.1,12.3,9,12.5,9c1.3-0.5,2.6-0.2,3.9-0.2c0.3,0,0.7,0.2,1,0.3
			c0.3,0.2,0.7,0.2,1,0.2c1.5,0,2.9,0.4,4.2,1.2c0.5,0.3,0.5,0.3,0.8-0.2C24,9,24.9,8.1,25.9,7.4c1.7-1.1,3.7-1.6,5.7-1.2
			c1.8,0.3,3.4,1.2,4.6,2.6c0.5,0.5,0.9,1.1,1.2,1.8c0.3,0.6,0.8,1.1,1.2,1.6C39.7,13.6,40.3,15.2,40.3,17.2z"/>
		<path class="st3" d="M29.5,17c0.3,0,0.7,0,1,0c1.1,0,2.3,0,3.4,0c0.3,0,0.4,0.1,0.4,0.4c0,2,0,4,0,6c0,0.3-0.1,0.5-0.4,0.5
			c-0.4,0-0.9-0.2-1.2,0.1c-0.3,0.3-0.1,0.8-0.1,1.2c0,3.4,0,6.8,0,10.3c0,0.3-0.1,0.5-0.4,0.5c-6.6,0-13.1,0-19.7,0
			c-0.4,0-0.4-0.2-0.4-0.5c0-3.7,0-7.3,0-11c0-0.4-0.1-0.5-0.5-0.5c-0.4,0-0.9,0.2-1.1-0.1c-0.3-0.3-0.1-0.8-0.1-1.2
			c0-1.7,0-3.4,0-5.2c0-0.3,0.1-0.5,0.4-0.5c1.6,0,3.1,0,4.7,0c0.1,0,0.3,0,0.4,0c-0.4-0.4-0.9-0.7-1.3-1c-1-0.9-1.6-2-1.6-3.4
			c0-2,1.8-3.4,3.8-3c1.3,0.3,2.2,1,3,2c1,1.3,1.6,2.9,2,4.5c0,0.1,0,0.2,0.1,0.4c0.1-0.4,0.2-0.7,0.3-0.9c0.7-1.9,1.7-3.8,3.2-5.2
			c1-0.9,2.2-1.5,3.6-1.5c2,0,3.4,1.5,3.2,3.5c-0.1,1.8-1.1,3.2-2.5,4.3c-0.1,0.1-0.3,0.2-0.5,0.4C29.5,17,29.5,17,29.5,17z"/>
		<path class="st4" d="M13.8,28.6c0-1.7,0-3.4,0-5.2c0-0.3,0.1-0.4,0.4-0.4c2,0,4,0,6,0c0.3,0,0.4,0.1,0.4,0.4c0,3.4,0,6.9,0,10.3
			c0,0.3-0.1,0.4-0.4,0.4c-2,0-4,0-6,0c-0.4,0-0.5-0.1-0.5-0.5C13.8,32,13.8,30.3,13.8,28.6z"/>
		<path class="st4" d="M30.9,28.6c0,1.7,0,3.5,0,5.2c0,0.3-0.1,0.4-0.4,0.4c-2,0-4,0-6,0c-0.3,0-0.4-0.1-0.4-0.4c0-3.5,0-6.9,0-10.4
			c0-0.3,0.2-0.3,0.4-0.3c2,0,4,0,6,0c0.3,0,0.4,0.1,0.4,0.4C30.9,25.1,30.9,26.9,30.9,28.6z"/>
		<path class="st5" d="M16.4,22.2c-1.3,0-2.6,0-3.8,0c-0.3,0-0.4-0.1-0.4-0.4c0-0.9,0-1.8,0-2.6c0-0.3,0.1-0.4,0.4-0.4
			c2.6,0,5.2,0,7.8,0c0.3,0,0.4,0.1,0.4,0.3c0,0.9,0,1.8,0,2.7c0,0.3-0.1,0.3-0.4,0.3C19,22.2,17.7,22.2,16.4,22.2z"/>
		<path class="st4" d="M28.4,18.7c1.3,0,2.6,0,3.9,0c0.3,0,0.4,0.1,0.4,0.4c0,0.9,0,1.8,0,2.7c0,0.3-0.1,0.4-0.4,0.4
			c-2.6,0-5.2,0-7.8,0c-0.3,0-0.4-0.1-0.4-0.4c0-0.9,0-1.8,0-2.7c0-0.3,0.1-0.4,0.4-0.4C25.8,18.8,27.1,18.7,28.4,18.7z"/>
		<path class="st4" d="M24.6,17c-0.8,0-0.8,0-0.5-0.7c0.6-1.6,1.3-3.1,2.5-4.3c0.7-0.7,1.5-1.2,2.5-1.3c1,0,1.5,0.6,1.4,1.6
			c-0.2,1.1-0.8,1.9-1.6,2.6c-1,0.9-2.2,1.5-3.5,2C25.1,17.1,24.8,17,24.6,17z"/>
		<path class="st4" d="M14.9,12.6c0-0.8,0.5-1.3,1.3-1.2c0.8,0,1.3,0.4,1.8,1c0.9,1.1,1.5,2.4,1.9,3.7c0.1,0.2,0,0.3-0.2,0.2
			c-1.4-0.4-2.7-1-3.8-1.9C15.3,13.9,14.9,13.3,14.9,12.6z"/>
	</g>
</g>
<g>
	<g>
		<path class="st6" d="M0.1,24.2c0-1.3,0-2.5,0-3.8c0.1-0.7,0.1-1.3,0.2-2c0.1-0.9,0.3-1.7,0.5-2.5c0.8-2.7,2-5.1,3.7-7.3
			C5.6,7.3,6.8,6,8.2,4.9c2.3-1.8,4.8-3.2,7.6-4.1c1.4-0.4,2.9-0.7,4.4-0.7c0.1,0,0.2,0,0.3,0c1.2,0,2.5,0,3.7,0
			c0.5,0.1,1.1,0.1,1.6,0.1c1,0,1.9,0.3,2.8,0.5c2.1,0.6,4.1,1.5,5.9,2.7c1.7,1.1,3.3,2.5,4.6,4c1.7,1.9,3,4,4,6.3
			c0.6,1.4,1,2.7,1.3,4.2c0.2,0.8,0.1,1.6,0.2,2.4c0,1.2,0,2.4,0,3.6c-0.1,0.8-0.1,1.6-0.2,2.4c-0.2,1.5-0.6,2.9-1.1,4.2
			c-0.7,1.9-1.8,3.8-3,5.4c-1.5,2-3.3,3.7-5.4,5.1c-2.3,1.5-4.8,2.6-7.5,3.2c-0.9,0.2-1.8,0.2-2.7,0.3c-0.1,0-0.1,0-0.2,0
			c-1.4,0-2.8,0-4.2,0c-0.8-0.2-1.6-0.1-2.3-0.2c-2.6-0.5-5.1-1.5-7.4-3c-1.4-0.9-2.8-1.9-3.9-3.1c-2.1-2.1-3.7-4.5-4.9-7.3
			c-0.6-1.4-1-2.7-1.3-4.2c-0.1-0.7-0.1-1.5-0.2-2.3C0.1,24.4,0.2,24.3,0.1,24.2z"/>
		<path class="st3" d="M20.4,0.1c-0.7,0.2-1.4,0.2-2.1,0.4c-5.8,1.1-10.4,4.1-14,8.8c-2.2,3-3.5,6.3-4.1,10c-0.1,0.4,0,0.8-0.2,1.2
			c0-6.7,0-13.3,0-20c0-0.3,0.1-0.4,0.4-0.4C7.1,0.1,13.8,0.1,20.4,0.1z"/>
		<path class="st3" d="M44.6,20.3c-0.2-0.6-0.2-1.3-0.3-1.9c-0.8-4.4-2.8-8.2-5.8-11.4c-2.9-3.1-6.5-5.1-10.6-6.2
			c-1.1-0.3-2.2-0.5-3.3-0.6c-0.1,0-0.2,0-0.3-0.1c6.7,0,13.4,0,20.1,0c0.3,0,0.4,0.1,0.4,0.4C44.6,7,44.6,13.6,44.6,20.3z"/>
		<path class="st3" d="M0.1,24.2c0.2,0.7,0.2,1.4,0.3,2.1c0.8,4.4,2.8,8.2,5.9,11.5c3.7,3.8,8.1,6,13.3,6.7c0.2,0,0.4,0,0.5,0.2
			c-6.6,0-13.1,0-19.7,0c-0.3,0-0.4-0.1-0.4-0.4C0.1,37.5,0.1,30.9,0.1,24.2z"/>
		<path class="st3" d="M24.4,44.5c0.6-0.2,1.3-0.2,2-0.4c4.3-0.8,8.1-2.7,11.2-5.7c3.4-3.2,5.6-7.2,6.5-11.8
			c0.2-0.9,0.3-1.9,0.4-2.8c0,6.8,0,13.6,0,20.4c0,0.3-0.1,0.4-0.4,0.4C37.6,44.5,31,44.5,24.4,44.5z"/>
		<path class="st4" d="M35.4,32.8c-0.3,0.5-0.4,1-0.6,1.6c-0.7,1.7-1.8,2.9-3.4,3.8c-0.7,0.4-1.6,0.6-2.4,0.9
			c-0.7,0.2-1.4,0.7-2.1,1c-0.7,0.3-1.5,0.5-2.3,0.5c-0.7,0-1.5,0.1-2.2-0.2c-0.3-0.1-0.7-0.1-1,0c-0.8,0.2-1.6,0.2-2.4,0
			c-1-0.3-2.1-0.2-3.1-0.2c-0.4,0-0.8-0.1-1.2-0.2C14,39.7,13.3,40,12.6,40c-1.6,0-3-0.5-4.4-1.3c-0.7-0.4-1.3-1-1.8-1.6
			c-0.6-0.7-1.1-1.6-1.3-2.6c-0.2-0.9-0.4-1.8-0.5-2.8c0-0.4-0.2-0.7-0.3-1.1C4,30,3.9,29.3,4,28.5c0.1-0.6-0.2-1.2-0.3-1.7
			c-0.3-1-0.4-2.1-0.2-3.2c0.1-0.5-0.1-0.9-0.2-1.3C3,21,3,19.7,3.4,18.5c0.2-0.5,0.1-1.1,0.1-1.6c0-1.7,0.5-3.2,1.5-4.6
			c0.9-1.3,2.1-2.2,3.5-2.7c1-0.4,2.1-0.7,3.2-0.5c0.3,0.1,0.7,0,1-0.2c0.3-0.2,0.6-0.2,1-0.2c0.6,0,1.3,0,1.9,0
			c0.7,0,1.4,0.2,2,0.5c0.2,0.1,0.3,0.1,0.5,0.1c1.4,0,2.7,0.3,4,0.9c0.3,0.2,0.6,0.5,1,0.5c0.2,0.2,0.1,0.3,0,0.5
			c-0.5,1.2-0.4,2.2,0.4,3.2c0.3,0.5,0.8,0.7,1.3,0.9c0.5,0.2,1,0.4,1.6,0.3c0.1,0,0.2,0.1,0.3,0.2c0,0.3-0.2,0.4-0.4,0.5
			c-0.7,0.5-1,1.2-1.1,2.1c-0.1,1.1-0.7,2-1.5,2.7c-0.9,0.8-2,1.3-3.3,1.2c-0.4,0-0.8,0.2-1.1,0.5c-0.4,0.5-1,0.6-1.6,0.7
			c-0.4,0.1-0.7-0.2-1-0.4c-0.3-0.2-0.6-0.2-0.9,0c-0.7,0.6-1.5,1.1-2.2,1.6c-0.2,0.2-0.4,0.3-0.5,0.6c-0.7,1.2-1.4,2.4-2.1,3.6
			c-0.2,0.3-0.4,0.4-0.6,0.5c-0.3,0.1-0.6,0.2-0.9,0.4c-0.2,0.1-0.4,0.3-0.3,0.5c0.1,0.3,0.4,0.2,0.6,0.1c0.3-0.1,0.7-0.3,1-0.4
			c0.8-0.3,1.6,0.3,1.5,1.1c-0.1,0.9-0.3,1.9-0.4,2.8c0,0.2-0.1,0.3-0.1,0.5c0,0.3,0.1,0.6,0.4,0.6c0.3,0.1,0.6-0.1,0.7-0.4
			c0.1-0.3,0.1-0.6,0.2-1c0-0.2,0.1-0.4,0.1-0.6c0-0.1,0.1-0.2,0.3-0.2c0.1,0,0.2,0.2,0.2,0.3c0,0.2,0,0.4,0,0.6
			c-0.1,0.3,0,0.6,0.1,0.8c0.1,0.3,0.3,0.4,0.6,0.4c0.3,0,0.5-0.2,0.5-0.5c0-0.1,0-0.2,0-0.4c0-0.9-0.1-1.8-0.1-2.7
			c0-0.3,0-0.5,0.1-0.7c0.4-0.8,0.8-1.6,1.3-2.5c0.5-1,1-1.9,1.5-2.9c0.3-0.6,0.8-1.1,1.5-1.2c0.1,0,0.3-0.1,0.4,0
			c0.9,0.3,1.8,0.2,2.7,0c1.2-0.3,2.3-0.8,3.2-1.6c0.3-0.2,0.5-0.2,0.7,0.2c0.2,0.6,0.3,1.2,0.4,1.8c0.1,0.3-0.2,0.5-0.5,0.6
			c-0.8,0.2-1.6,0.5-2.4,0.7c-0.2,0.1-0.5,0.2-0.7,0.2c-0.7,0.2-1.1,0.9-1,1.6c0.3,1.9,0.7,3.7,1,5.6c0.1,0.7,0.3,1.2,1,1.5
			c0.6,0.3,1.1,0.2,1.6-0.2c0.4-0.3,0.7-0.8,0.6-1.4c-0.2-1.3-0.5-2.5-0.7-3.7c-0.1-0.7,0-0.9,0.7-1.1c0.3-0.1,0.6-0.2,0.9-0.3
			c0.2-0.1,0.4-0.1,0.5,0.1c0.2,0.2,0.1,0.4,0,0.5c-0.2,0.6-0.4,1.1-0.7,1.7c-0.1,0.2-0.1,0.4-0.2,0.6c-0.1,1,0.5,1.7,1.5,1.8
			c0.8,0,1.5,0,2.3,0c1.1,0,2.2,0,3.3,0c0.4,0,0.9,0,1.3-0.2C35.1,32.7,35.3,32.7,35.4,32.8z"/>
		<path class="st3" d="M35.4,32.8c-0.6,0.4-1.3,0.4-1.9,0.4c-1.7,0-3.5,0-5.2,0c-1.3,0-2.3-1.1-1.7-2.6c0.3-0.7,0.6-1.4,0.9-2.2
			c-0.6,0.2-1.2,0.4-1.8,0.5c-0.2,0.1-0.2,0.2-0.2,0.4c0.2,1.3,0.5,2.7,0.7,4c0.2,0.9-0.4,1.8-1.2,2c-1,0.2-2-0.3-2.2-1.2
			c-0.3-1.2-0.5-2.5-0.7-3.7c-0.1-0.8-0.2-1.6-0.4-2.3c-0.2-0.8,0.4-1.8,1.2-2c1-0.3,2-0.6,3.1-0.9c0.2-0.1,0.4-0.1,0.3-0.3
			c-0.1-0.7-0.3-1.4-0.5-2.2c-1.6,1.6-3.5,2.1-5.6,2.1c-0.1,0-0.3,0-0.4,0c-0.9-0.3-1.5,0-1.9,0.8c-0.9,1.8-1.9,3.6-2.8,5.4
			c-0.1,0.3-0.1,0.5-0.1,0.9c0.1,1,0.1,1.9,0.1,2.9c0,0.4-0.2,0.7-0.7,0.7c-0.4,0-0.7-0.2-0.8-0.6c-0.1-0.5,0-1.1-0.1-1.8
			c-0.2,0.6-0.2,1.1-0.3,1.6c-0.1,0.6-0.5,0.9-0.9,0.8c-0.5-0.1-0.7-0.5-0.6-1.1c0.2-1,0.3-2.1,0.5-3.1c0.1-0.6-0.6-1.1-1.2-0.9
			c-0.4,0.1-0.7,0.3-1.1,0.4c-0.4,0.1-0.7,0.1-0.9-0.2c-0.2-0.3,0-0.7,0.5-0.8c1.3-0.5,1.3-0.5,2.1-1.9c0.4-0.8,0.9-1.6,1.4-2.4
			c0.2-0.4,0.5-0.6,0.8-0.9c0.8-0.6,1.6-1.1,2.3-1.7c0.2-0.1,0.4-0.2,0.5,0c0.1,0.1,0.2,0.1,0.2,0.1c0.7,0.7,1.4,0.4,2.1,0.1
			c0.1-0.1,0.2-0.1,0.2-0.2c0.3-0.4,0.7-0.6,1.2-0.6c2.3,0,4.5-1.6,4.7-4.1c0.1-1,0.8-1.7,1.6-2.2c0.2-0.3,0.6-0.4,0.9-0.5
			c0.8-0.2,1.6,0,2.3,0.4c0.6,0.4,1.1,0.9,1.3,1.7c0.5,2.4,1,4.8,1.5,7.2c0.2,0.7-0.2,1.3-0.4,2c-0.3,0.8-0.6,1.5-0.9,2.3
			c-0.2,0.5-0.1,0.6,0.4,0.6c0.9,0,1.7,0,2.6,0c0.6,0,1.2,0.2,1.6,0.7c0.5,0.6,0.5,1.3,0.1,2C35.7,32.4,35.6,32.6,35.4,32.8z"/>
		<path class="st4" d="M35.9,32.2c0.1-0.4,0.2-0.9,0-1.3c-0.2-0.8-0.8-1.2-1.7-1.2c-1,0-2,0-3,0c-0.3,0-0.5,0-0.3-0.4
			c0.4-1,0.8-2.1,1.3-3.1c0.3-0.6,0.3-1.2,0.2-1.9c-0.5-2.2-0.9-4.3-1.4-6.5c-0.3-1.4-1.3-2.2-2.8-2.2c-0.2,0-0.5,0-0.7,0
			c0,0,0-0.1,0-0.1c0-0.2,0.2-0.3,0.4-0.4c1.1-0.8,1.5-2.3,1.1-3.6c-0.5-1.3-1.7-2.1-3.1-2c-0.5,0-0.9,0.2-1.4,0.4
			c-0.2,0.1-0.4,0.2-0.6,0c0.2-0.7,0.8-1.2,1.3-1.7C26,7.2,27,6.6,28.1,6.3c1.2-0.3,2.4-0.4,3.6-0.2c1.9,0.3,3.4,1.2,4.6,2.6
			c0.4,0.5,0.9,1.1,1.2,1.7c0.2,0.5,0.5,0.9,0.9,1.3c0.7,0.8,1.3,1.8,1.6,2.8c0.4,1.1,0.4,2.3,0.3,3.4c0,0.4-0.2,0.7-0.3,1.1
			c-0.1,0.9,0.1,1.7,0,2.5c-0.2,1.1-0.5,2.1-1,3c-0.1,0.1-0.1,0.2-0.1,0.4c0,1-0.4,2-0.7,2.9c-0.2,0.4-0.5,0.8-0.8,1.2
			c-0.4,0.7-0.5,1.4-0.8,2.1C36.3,31.6,36.1,31.9,35.9,32.2z"/>
		<path class="st3" d="M23.8,9.7c0.5,0,0.9-0.4,1.4-0.5c1.3-0.3,2.8,0.3,3.5,1.5c0.7,1.2,0.7,2.8-0.2,3.8c-0.3,0.4-0.7,0.7-1.1,0.9
			c-0.3,0.3-0.8,0.3-1.2,0.3c-0.6,0.3-1.2-0.1-1.7-0.3c-1.8-0.8-2.5-2.8-1.6-4.6c0-0.1,0.1-0.2,0.1-0.2C23.4,10.3,23.6,10,23.8,9.7z
			"/>
		<path class="st3" d="M16.6,19.5c0,0.7-0.2,1.2-0.7,1.6c-0.3,0.3-0.4,0.6-0.2,0.9c0.2,0.3,0.1,0.5-0.2,0.7
			c-0.8,0.6-1.6,1.2-2.4,1.8c-0.2,0.2-0.3,0.2-0.5-0.1c-0.5-0.8-1-1.6-1.6-2.4c-0.3-0.4-0.6-0.7-0.9-1c-0.3-0.2-0.4-0.5-0.2-0.9
			c0.2-0.3,0.5-0.4,0.9-0.4c0.1,0,0.1,0,0.2,0c0.7,0.2,0.9,0.2,1.7,0c0.6-0.2,1.2-0.3,1.7-0.8c0.1-0.1,0.3-0.3,0.4-0.4
			c0.4-0.2,0.7-0.5,1.2-0.2C16.5,18.6,16.6,19,16.6,19.5z"/>
		<path class="st7" d="M26.3,15.8c0.4-0.1,0.8-0.2,1.2-0.3c0,0,0,0.1,0,0.1c-0.3,0.1-0.6,0.2-0.9,0.3C26.4,15.8,26.4,15.8,26.3,15.8
			z"/>
	</g>
</g>
</svg>
